<svg xmlns="http://www.w3.org/2000/svg" xml:space="preserve" style="enable-background:new 0 0 64 64" viewBox="0 0 64 80"><path d="M52.4 11.4c-.3-.2-.6-.2-.9-.1-2.5 1.1-5.1.3-6.6-1.7-.7-.9-1.1-2.1-1.1-3.2 0-.3-.1-.5-.3-.7s-.4-.3-.7-.3H32.6c-.6 0-1 .4-1 1v35.7c-.2 1.8-1.6 3.1-3.4 3.1-1.9 0-3.5-1.6-3.5-3.5 0-1.8 1.3-3.2 3.1-3.4.5-.1.9-.5.9-1V25.7c0-.6-.4-1-1-1h-.2c-9.2.4-16.3 7.8-16.3 17 0 9.4 7.6 17 17 17 8.8 0 16.2-6.8 16.9-15.5.1-.1.1-.3.1-.4V23.5c2.2.5 4.5.7 6.9.3.5-.1.8-.5.8-1V12.2c0-.3-.2-.6-.5-.8M50.9 22c-2.3.2-4.4 0-6.5-.7-.3-.1-.6 0-.9.1-.3.2-.4.5-.4.8v20.2c0 .1 0 .2-.1.3-.5 7.8-7.1 14-14.9 14-8.3 0-15-6.7-15-15 0-7.8 5.8-14.2 13.5-14.9v9.7c-2.3.7-4 2.8-4 5.2 0 3 2.5 5.5 5.5 5.5 2.7 0 5-2 5.4-4.6.1-.1.1-.3.1-.4V7.4h8.3c.2 1.3.7 2.4 1.4 3.4 1.7 2.3 4.7 3.5 7.6 2.8V22z"/></svg>