<svg xmlns="http://www.w3.org/2000/svg" xml:space="preserve" version="1.0" viewBox="0 0 100 125"><path d="M55.557 20H44.446L50 10zm3.701 6.667H40.742L33.333 40v.013c11.11 4.604 23.034 4.255 33.334-.013zM33.333 47.119v39.593c2.197.908 4.428 1.572 6.667 2.104V49.023c-2.249-.461-4.47-1.129-6.667-1.904m13.334 2.767c1.104.075 2.207.163 3.311.163 1.119 0 2.239-.091 3.355-.166V89.86c-2.203.172-4.43.191-6.666.022zm20-2.78v39.593c-2.155.892-4.392 1.572-6.667 2.112V49.014c2.249-.466 4.47-1.13 6.667-1.908M13.333 20c0-5.524 4.479-10 10-10h5v6.667h-5A3.333 3.333 0 0 0 20 20v23.333c0 2.575-.999 4.896-2.598 6.667 1.595 1.774 2.595 4.095 2.595 6.667L20 80a3.33 3.33 0 0 0 3.333 3.333h5V90h-5c-5.523 0-10-4.479-10-10V56.667A3.334 3.334 0 0 0 10 53.333v-6.666a3.331 3.331 0 0 0 3.333-3.334zm73.334 60.003c0 5.521-4.479 9.997-10 9.997h-5v-6.663h5A3.335 3.335 0 0 0 80 80.003V56.667c0-2.575.996-4.896 2.598-6.667C81.003 48.226 80 45.905 80 43.333V20a3.33 3.33 0 0 0-3.333-3.333h-5V10h5c5.521 0 10 4.479 10 10v23.333A3.331 3.331 0 0 0 90 46.667v6.666a3.331 3.331 0 0 0-3.333 3.334z"/></svg>