<svg xmlns="http://www.w3.org/2000/svg" xml:space="preserve" viewBox="0 0 100 125"><path d="M43.968 16.328a3.168 3.168 0 0 0 3.164-3.164A3.168 3.168 0 0 0 43.968 10a3.168 3.168 0 0 0-3.164 3.164 3.167 3.167 0 0 0 3.164 3.164m0-5.178c1.11 0 2.013.904 2.013 2.014 0 1.11-.903 2.013-2.013 2.013a2.015 2.015 0 0 1-2.014-2.013c0-1.111.904-2.014 2.014-2.014M25.949 23.007c.101 0 .205-.008.309-.027l3.475-.619 6.521-.936c.712-.124 1.252.026 1.652.472.963 1.072.933 3.567.84 4.437l-.003.056c-.045 4.596-3.029 7.875-3.058 7.907l-.039.046c-2.131 2.833-.867 4.554-.812 4.626l6.13 7.368.125-1.385c.18-1.979.188-3.368.163-4.184l-.006-.199-2.096-2.513c-.103-.206-.112-.451-.028-.745.284-.99 1.447-2.075 2.055-2.56.844 1.411.759 4.505.701 6.616-.014.544-.028 1.058-.028 1.505-.016 1.331-.124 2.851-.32 4.517l-.027.237.148.187c.229.289.673.41 1.412.533l.077.013c.084.015.17.022.255.022.821 0 1.533-.664 1.691-1.58l1.112-6.377c.011-.065.019-.129.024-.192L49.235 23.1l6.322 1.378 4.791 1.415c.277.079.535.119.771.119.694 0 1.194-.347 1.374-.953.064-.184.119-.381.1-.579-.039-.595-.262-.97-.789-1.332-3.533-2.695-17.566-5.31-18.163-5.42l-.024-.004a30.382 30.382 0 0 0-4.214-.291c-3.306 0-5.887.519-7.149.776a1.99 1.99 0 0 0-.202.025l-6.372 1.133c-.495.088-.912.394-1.174.863-.224.4-.308.875-.231 1.304.15.854.855 1.473 1.674 1.473m-.44-2.215c.064-.115.181-.258.372-.292l6.373-1.132a.855.855 0 0 1 .111-.012l.08-.011c1.212-.247 3.735-.76 6.957-.76 1.365 0 2.725.093 4.042.278.486.09 14.421 2.709 17.671 5.209l.027.02c.281.191.289.267.301.463-.004.02-.014.06-.041.143l-.012.03c-.017.066-.037.134-.271.134-.127 0-.283-.025-.448-.072l-4.808-1.419-7.552-1.648-3.226 18.34-.007.062a1.18 1.18 0 0 1-.011.104l-1.111 6.376c-.069.393-.34.627-.561.627a.39.39 0 0 1-.058-.005l-.087-.015a7.988 7.988 0 0 1-.531-.104c.17-1.53.263-2.936.279-4.187h.001c-.002-.44.013-.966.028-1.523.074-2.706.165-6.049-1.148-7.64l-.004-.358H41.3c-.545 0-2.258 1.613-2.91 2.738-.693 1.196-.502 2.035-.219 2.528l1.935 2.333c.012.572.005 1.382-.057 2.439l-4.3-5.167c-.076-.119-.696-1.214.8-3.215.312-.344 3.286-3.749 3.344-8.628.037-.372.318-3.686-1.13-5.299-.535-.595-1.225-.897-2.054-.897-.209 0-.429.02-.637.057l-6.521.936-3.494.622c-.369.065-.601-.233-.651-.514a.865.865 0 0 1 .103-.541m56.822 6.855a3.168 3.168 0 0 0 3.164-3.164c0-1.745-1.42-3.164-3.164-3.164s-3.164 1.419-3.164 3.164a3.168 3.168 0 0 0 3.164 3.164m0-5.178c1.11 0 2.015.903 2.015 2.014s-.904 2.014-2.015 2.014-2.015-.903-2.015-2.014.907-2.014 2.015-2.014m8.342 38.183a3.168 3.168 0 0 0 3.164-3.163 3.169 3.169 0 0 0-3.164-3.165 3.17 3.17 0 0 0-3.164 3.165 3.169 3.169 0 0 0 3.164 3.163m0-5.175c1.109 0 2.015.902 2.015 2.014a2.015 2.015 0 0 1-4.029 0c0-1.112.905-2.014 2.014-2.014m-38.544-.362a3.169 3.169 0 0 0 3.165 3.164c1.744 0 3.164-1.42 3.164-3.164s-1.42-3.164-3.164-3.164a3.169 3.169 0 0 0-3.165 3.164m5.178.001c0 1.11-.902 2.014-2.013 2.014s-2.015-.903-2.015-2.014.904-2.013 2.015-2.013 2.013.903 2.013 2.013M20.106 32.584a3.168 3.168 0 0 0 3.164 3.164 3.168 3.168 0 0 0 3.165-3.164c0-1.744-1.42-3.164-3.165-3.164s-3.164 1.42-3.164 3.164m3.164-2.013c1.11 0 2.014.903 2.014 2.014 0 1.11-.904 2.013-2.014 2.013s-2.013-.903-2.013-2.013c0-1.111.903-2.014 2.013-2.014m68.945 15.22a1.935 1.935 0 0 0-2.107 1.76l-.565 6.299.744-.137a3.404 3.404 0 0 1 2.301.387l.113.062.709.049.565-6.312a1.943 1.943 0 0 0-1.76-2.108m.168 6.963a4.56 4.56 0 0 0-1.482-.248l-.084.001.438-4.852a.791.791 0 0 1 1.576.141zM83.74 77.67a153.56 153.56 0 0 0 2.801-1.188l.293-.146.002-.004c.449-.204.842-.383 1.135-.518v.002l.492-.232.092-.044c4.424-2.313 3.926-9.337 3.879-9.886-.021-1.822-.496-3.161-1.414-3.981-.785-.704-1.696-.851-2.324-.851-.355 0-.598.049-.629.056a85.747 85.747 0 0 1-2.731.562H79.77l-4.232.08a1.936 1.936 0 0 0-1.367.582 1.936 1.936 0 0 0-.557 1.379 1.952 1.952 0 0 0 1.961 1.922l5.65-.057h3.205c.381 0 .663.107.872.329.416.444.466 1.271.447 1.55l-.002.03v.028c.11 3.186-5.681 7.052-7.901 8.262-3.406 1.689-3.55 4.033-3.556 4.132v1.95l.017.514h.01l.11 5.274a1.95 1.95 0 0 0 1.941 1.899v.002h.038a1.92 1.92 0 0 0 1.361-.598c.358-.374.553-.865.541-1.385l-.109-5.145c.553-2.83 3.24-3.697 3.348-3.731a18.72 18.72 0 0 0 1.316-.452l-.002.027zm-2.523-.316c-.14.045-3.5 1.106-4.158 4.683l-.01.058.111 5.264a.792.792 0 0 1-.777.806h-.016a.795.795 0 0 1-.791-.773l-.121-5.773-.017-.295h.004V79.72c.014-.12.244-1.821 2.936-3.157.354-.192 8.643-4.759 8.523-9.295.012-.255.033-1.535-.754-2.38-.426-.454-1.021-.696-1.717-.696h-3.211l-5.664.058a.79.79 0 0 1 0-1.581l4.225-.08h5.609l.104-.01c.011-.003 1.229-.228 2.813-.578.002 0 .157-.03.39-.03 2.221 0 2.573 2.328 2.588 3.715l.002.047c.006.065.53 6.439-2.974 8.621l-.403.219c-.269.127-.968.451-1.83.838l-.283.135-.002.008c-.547.238-1.178.506-1.883.801l-.604.242c-.864.346-1.567.602-2.09.757"/><path d="M88.873 81.455c-1.301-1.557-1.557-3.02-1.541-3.975l.014-.892-.818.354c-.762.332-1.67.714-2.692 1.135l-.392.161.037.423c.218 2.398 1.802 4.527 2.726 5.583l4.373 4.081a1.983 1.983 0 0 0 2.79-.128c.357-.388.541-.892.516-1.418a1.939 1.939 0 0 0-.645-1.366zm3.648 5.964a.817.817 0 0 1-.612.269.83.83 0 0 1-.554-.209l-4.246-3.947-.036-.043c-.63-.717-2.052-2.524-2.392-4.516.553-.229 1.07-.445 1.547-.647.133 1.075.576 2.44 1.756 3.858l4.482 4.082a.807.807 0 0 1 .055 1.153M67.605 45.454c-.147.082-1.103.638-1.903 1.83-.775 1.151-1.56 3.149-.91 6.127l.375 2.471a1.935 1.935 0 0 0 2.227 1.609A1.944 1.944 0 0 0 69 55.268l-.31-2.039c-.004-.029-.349-2.807 1.963-4.445l5.109-3.394c-.061 1.268-.396 3.516-1.891 5.47-.205.229-1.75 2.058-1.844 4.839v.001c-.01.347-.002.713.02 1.091l.021 1.227a1.932 1.932 0 0 0 1.94 1.887v.001h.06a1.925 1.925 0 0 0 1.356-.608c.355-.377.546-.87.529-1.382l-.015-.767h.007a5.444 5.444 0 0 0-.013-.25l-.012-.879c.139-1.149.93-3.474 4.611-6.37.445-.253 2.851-1.858 3.037-7.268l.299-7.643c1.273.818 3.887 2.922 5.885 7.337l.42 1.756a1.937 1.937 0 0 0 2.342 1.436c.502-.121.93-.431 1.201-.873s.354-.964.234-1.468l-.51-2.122c-.023-.11-.054-.231-.084-.353l-.213-.893-.015-.045a6.007 6.007 0 0 0-.121-.334 17.902 17.902 0 0 1-.137-.373l-.043-.098a3.439 3.439 0 0 1-.236-.506l-.041-.087c-.041-.07-.075-.143-.104-.204a22.086 22.086 0 0 0-.201-.417l-.012-.027-.107-.209c-1.659-3.215-5.234-7.538-12.848-9.879l-7.527-2.262-4.497-1.456a1.939 1.939 0 0 0-2.447 1.249 1.937 1.937 0 0 0 1.25 2.445l5.483 1.774c.492.244 5.565 2.977 2.5 9.952-.162.287-2.228 3.846-6.434 6.372m4.393-17.377-5.588-1.814a.786.786 0 0 1-.51-.996.785.785 0 0 1 .996-.509l4.508 1.459 7.535 2.264c7.228 2.222 10.603 6.287 12.164 9.312l.067.125a.608.608 0 0 0 .021.045l.016.034c.066.134.131.267.195.408.041.084.082.165.127.246.078.2.168.394.27.578.051.146.092.259.133.361.033.09.065.17.094.261l.211.878c.031.117.058.226.08.334l.511 2.132a.771.771 0 0 1-.095.598.786.786 0 0 1-.676.377.79.79 0 0 1-.768-.607l-.434-1.809-.033-.102c-2.932-6.516-7.096-8.331-7.271-8.405l-.766-.322-.369 9.414c-.174 5.079-2.438 6.301-2.455 6.31l-.057.027-.047.038c-3.881 3.039-4.908 5.601-5.086 7.214l-.006.037.036 1.977a.773.773 0 0 1-.217.564.787.787 0 0 1-.551.248h-.023a.786.786 0 0 1-.79-.763l-.021-1.231-.002-.023c-.021-.34-.026-.67-.018-.979v-.033c.084-2.459 1.545-4.091 1.559-4.105l.033-.04c2.508-3.26 2.146-7.148 2.129-7.312l-.096-.949-6.803 4.516c-2.889 2.048-2.471 5.406-2.45 5.557l.312 2.058a.79.79 0 0 1-1.56.258l-.376-2.483-.007-.037c-1.075-4.878 2.104-6.648 2.238-6.721l.027-.016c4.637-2.781 6.784-6.67 6.875-6.834l.02-.042c3.639-8.236-3.014-11.466-3.082-11.498m-1.137 32.044H66.26c-.076 0-.152.006-.236.017-3.375-.013-6.443-.034-7.14-.038-1.873-1.008-5.653-1.598-6.114-1.668-1.692-.519-6.299-4.918-8.542-7.062a7.508 7.508 0 0 0-.608-.618l-3.369-3.136a1.935 1.935 0 0 0-1.323-.521 1.943 1.943 0 0 0-1.322 3.363l3.368 3.135c.1.095.246.224.391.328l2.478 2.161c5.485 4.525 6.068 10.9 6.073 10.964l.006.049c1.197 7.179 4.459 12.447 6.306 14.958.274.426.52.825.666 1.065l.106.175 2.257 3.061c.365.485.946.776 1.554.776a1.944 1.944 0 0 0 1.553-3.105l-2.205-2.982c-.023-.029-.064-.088-.119-.163-.199-.276-.527-.733-.756-1.003-2.658-3.512-2.2-4.504-2.135-4.607l.09-.067a.63.63 0 0 1 .423-.172c.61 0 1.427.836 1.8 1.362l1.305 1.394c.188.247.705.803 1.514 1.666.481.513 1.082 1.153 1.173 1.278l3.039 3.168c.364.354.844.547 1.35.547.532 0 1.028-.211 1.396-.592.746-.769.726-2-.029-2.731l-2.834-2.933-.303-.295c-7.576-6.961-6.801-12.482-6.437-13.891h11.228c1.07 0 1.941-.871 1.941-1.941s-.873-1.942-1.944-1.942m-.002 2.733H58.831l-.147.35c-.119.277-2.804 6.891 6.596 15.529l.277.27 2.834 2.934a.79.79 0 0 1-.55 1.359.781.781 0 0 1-.535-.208l-2.943-3.062c-.139-.181-.506-.574-1.241-1.359-.554-.592-1.313-1.403-1.443-1.585l-1.299-1.386c-.22-.303-1.381-1.816-2.716-1.816-.415 0-.796.141-1.133.417-.154.099-.426.332-.547.806-.295 1.152.51 2.998 2.395 5.484l.021.025c.197.229.528.692.709.939l.129.18 2.207 2.983a.79.79 0 0 1-1.264.952l-2.216-3.001-.092-.147c-.149-.246-.403-.66-.69-1.104l-.021-.028c-1.782-2.419-4.94-7.513-6.104-14.457-.047-.534-.736-6.991-6.473-11.723l-2.487-2.17-.047-.037a2.905 2.905 0 0 1-.294-.246l-3.368-3.135a.794.794 0 0 1 .539-1.371c.201 0 .392.075.539.212l3.368 3.136c.113.105.38.354.525.531l.048.053c3.452 3.3 7.284 6.862 9.079 7.37l.074.016c.041.006 4.178.619 5.883 1.606l.132.076.151.002s3.472.024 7.332.039l.043.001.043-.007a.585.585 0 0 1 .113-.011h4.602a.79.79 0 1 1-.001 1.583m-58.541-1.097-.45-.938-4.955 7.844-2.657 4.061a1.945 1.945 0 0 0 .562 2.688c.317.207.684.316 1.062.316.659 0 1.266-.33 1.625-.879l2.238-3.406 4.496-5.918-.177-.325a81.878 81.878 0 0 1-1.744-3.443m-3.503 9.006-2.271 3.455a.791.791 0 1 1-1.324-.867l2.661-4.067 3.853-6.097c.388.787.77 1.535 1.141 2.231zM35.04 43.622l-1.306-.836c-.77-.514-4.786-3.183-8.318-5.238-2.206-1.283-4.041-1.553-5.191-1.553-.52 0-.944.052-1.262.113-.405-2.766.559-6.025 1.484-8.353l2.481-4.562a1.945 1.945 0 0 0-.777-2.634 1.865 1.865 0 0 0-.895-.231c-.676 0-1.309.386-1.657 1.009l-.828 1.285c-4.375 6.196-4.568 12.069-4.574 12.317l-.003.111.039.104c1.066 2.86-1.413 12.803-2.458 16.393l-.007.027c-1.095 4.599.827 8.568.976 8.867l1.081 2.354.647 1.318 5.934 8.988.617 1.281a1.953 1.953 0 0 0 2.59.911 1.945 1.945 0 0 0 .907-2.592l-2.742-5.696-.022.019-.859-1.76-.03-.054c-2.059-3.28-1.941-5.353-1.884-5.794 1.31-1.922 1.256-6.098 1.253-6.277v-.061l-.014-.061c-.623-2.699 2.475-8.749 4.043-11.417l6.766 4.006 1.852 1.246c.322.215.697.33 1.083.33.648 0 1.251-.32 1.612-.858a1.946 1.946 0 0 0-.538-2.702m-.416 2.059a.792.792 0 0 1-1.097.215l-1.866-1.255-7.788-4.612-.296.482a51.903 51.903 0 0 0-2.558 4.824c-1.639 3.546-2.288 6.195-1.931 7.876.013 1.192-.158 4.363-1.108 5.629l-.07.093-.028.113c-.025.104-.601 2.596 1.997 6.747l1.504 3.082.015-.014 2.087 4.336a.792.792 0 0 1-1.426.687l-.65-1.352-5.92-8.96-.625-1.272-1.077-2.347-.01-.022c-.02-.037-1.899-3.824-.892-8.078.069-.24.99-3.445 1.741-7.029 1.036-4.941 1.28-8.289.727-9.956.045-.786.487-6.102 4.366-11.592l.859-1.333.021-.037c.211-.386.636-.536 1.003-.336a.793.793 0 0 1 .316 1.073l-2.498 4.591-.029.062c-1.054 2.648-2.161 6.472-1.44 9.653l.152.649.622-.242c.005-.002.555-.212 1.501-.212 1.008 0 2.628.242 4.612 1.397 3.503 2.038 7.494 4.689 8.267 5.206l1.304.836a.791.791 0 0 1 .215 1.098"/></svg>