<svg xmlns="http://www.w3.org/2000/svg" viewBox="0 0 100 125"><path d="M81.863 45.044a1.002 1.002 0 0 0-.023-1.013L71.347 27.086a1.039 1.039 0 0 0-1.701 0l-1.611 2.6a24.582 24.582 0 0 0-34.032-3.137 10.838 10.838 0 1 0-9.239 19.571A24.704 24.704 0 0 0 40.82 68.861v9.007a1 1 0 0 0 1 1h16.945a1 1 0 0 0 1-1v-9.854a.982.982 0 0 0 .381-.088 24.477 24.477 0 0 0 13.869-22.162c0-.07-.004-.138-.004-.206h6.978a1 1 0 0 0 .874-.514m-61.852-8.959a8.841 8.841 0 1 1 8.84 8.842 8.85 8.85 0 0 1-8.84-8.842m37.754 40.783H42.82V61.924h14.945Zm14.25-31.104a22.473 22.473 0 0 1-12.25 20.102v-4.942a1 1 0 0 0-1-1H41.82a1 1 0 0 0-1 1v5.779a22.693 22.693 0 0 1-14.032-19.979 10.835 10.835 0 0 0 8.958-19 22.586 22.586 0 0 1 31.18 3.752L59.152 44.03a1 1 0 0 0 .851 1.527h12.009c0 .068.004.137.004.206Zm-10.217-2.206 8.698-14.046 8.697 14.046Z"/></svg>