<svg xmlns="http://www.w3.org/2000/svg" xml:space="preserve" viewBox="0 0 32 40"><path d="M25 30a.994.994 0 0 1-.303-.047l-4.511-1.432a1.004 1.004 0 0 1-.409-.25l-2.836-2.865a1 1 0 0 1-.24-1.017l.518-1.568-3.532-3.568c-.937-.945-.909-2.512.062-3.492.946-.957 2.572-.988 3.486-.064l1.87 1.889a2.527 2.527 0 0 1 2.643-1.073c.12-.273.291-.529.512-.752a2.48 2.48 0 0 1 1.775-.742h.001c.671 0 1.3.264 1.774.742l3.192 3.223c.153.155.25.355.28.571l.71 5.313a1 1 0 0 1-.285.839l-4 4A1 1 0 0 1 25 30m-3.975-3.311 3.698 1.174 3.22-3.22-.6-4.49-2.955-2.985a.494.494 0 0 0-.706 0 .53.53 0 0 0-.013.728l1.077 1.088a1.001 1.001 0 0 1-1.42 1.408l-.005-.004-1.06-1.07a.788.788 0 0 1-.029-.03l-.681-.687a.505.505 0 0 0-.707 0 .528.528 0 0 0 0 .74l1.065 1.076a1 1 0 0 1-1.422 1.407l-1.064-1.074a2.8 2.8 0 0 1-.158-.176 1.122 1.122 0 0 1-.114-.098l-3.337-3.372c-.244-.248-.481-.1-.644.064-.199.201-.228.512-.063.678l4.674 4.72a1.001 1.001 0 0 1-.927 1.68l-.061.188 2.232 2.255M21 14h-2a3.005 3.005 0 0 1-2.829-2H11.83A3.005 3.005 0 0 1 9 14H7c-2.757 0-5-2.243-5-5V7c0-2.757 2.243-5 5-5h14c2.757 0 5 2.243 5 5v2c0 2.757-2.243 5-5 5m-10-4h6a1 1 0 0 1 1 1c0 .551.448 1 1 1h2c1.654 0 3-1.346 3-3V7c0-1.654-1.346-3-3-3H7C5.346 4 4 5.346 4 7v2c0 1.654 1.346 3 3 3h2c.551 0 1-.449 1-1a1 1 0 0 1 1-1"/><path d="M22 9a1 1 0 0 1-1-1c0-.551-.448-1-1-1h-1a1 1 0 1 1 0-2h1c1.654 0 3 1.346 3 3a1 1 0 0 1-1 1M9.045 24.862a1 1 0 0 1-.26-1.966c.252-.068.494-.169.72-.3a1 1 0 1 1 1.005 1.73 5.01 5.01 0 0 1-1.203.501 1.01 1.01 0 0 1-.262.035m-3.033-.39a.99.99 0 0 1-.496-.132 5 5 0 0 1-1.036-.79 1 1 0 1 1 1.408-1.42c.186.185.396.345.623.475a1 1 0 0 1-.499 1.868m5.854-2.438a1 1 0 0 1-.967-1.258c.067-.251.101-.512.101-.776 0-.552.448-1.023 1-1.023s1 .424 1 .977V20c0 .438-.057.872-.168 1.292a1 1 0 0 1-.966.742M4 21.012a.99.99 0 0 1-1-.989v-.002c0-.448.054-.873.161-1.284a1 1 0 1 1 1.936.503A3.035 3.035 0 0 0 5 20a1.01 1.01 0 0 1-1 1.012m6.8-2.869a.998.998 0 0 1-.7-.286 3.014 3.014 0 0 0-.625-.47 1 1 0 0 1 .984-1.741c.378.214.729.478 1.04.783a1 1 0 0 1-.7 1.714m-4.826-.592a1 1 0 0 1-.509-1.862 4.96 4.96 0 0 1 1.202-.509 1 1 0 1 1 .532 1.928c-.252.07-.493.172-.718.304a.993.993 0 0 1-.507.139"/></svg>