<svg xmlns="http://www.w3.org/2000/svg" width="50" height="50"><path d="M25 3C12.85 3 3 12.85 3 25s9.85 22 22 22 22-9.85 22-22S37.15 3 25 3m-4 8h17l-1.02.88c0 .04.02.08.02.12v5.28c.6.34 1 .98 1 1.72v6c0 1.1-.9 2-2 2s-2-.9-2-2v-6c0-.74.4-1.38 1-1.72v-3.71l-3.59 3.08c.35.7.59 1.55.59 2.59 0 2.72-1.52 4.07-3.03 5.27-.47.48-1.02 1-1.02 1.81 0 .8.55 1.25.95 1.57l1.29 1.03c1.59 1.36 3.03 2.61 3.03 5.14 0 3.45-3.29 6.94-9.49 6.94-5.23 0-7.75-2.53-7.75-5.25 0-1.32.65-3.19 2.78-4.48 2.23-1.39 5.26-1.58 6.89-1.69-.51-.66-1.09-1.35-1.09-2.5 0-.61.19-.98.37-1.43-.4.04-.8.08-1.16.08-3.8 0-5.97-2.88-5.99-5.73H11zm3.27 3.24c-.93 0-1.94.47-2.52 1.22-.61.76-.8 1.75-.8 2.7 0 2.46 1.42 6.54 4.51 6.54.91 0 1.88-.44 2.46-1.03.82-.85.9-2.02.9-2.67 0-2.65-1.55-6.76-4.55-6.76m1.77 16.37c-.32 0-2.27.07-3.78.59-.8.3-3.1 1.17-3.1 3.78s2.48 4.48 6.34 4.48c3.47 0 5.3-1.7 5.3-3.97 0-1.87-1.18-2.86-3.92-4.84a5.382 5.382 0 0 0-.84-.04"/></svg>