<svg xmlns="http://www.w3.org/2000/svg" xml:space="preserve" viewBox="0 0 64 80"><path d="M7.792 13.584c2.637 0 4.778-2.159 4.778-4.799a4.784 4.784 0 1 0-9.57 0 4.8 4.8 0 0 0 4.792 4.799m33.768 0c2.637 0 4.777-2.159 4.777-4.801 0-2.64-2.14-4.784-4.777-4.784-2.638 0-4.792 2.144-4.792 4.784 0 2.642 2.154 4.801 4.792 4.801"/><path d="m60.953 28.025-3.898-10.097a.678.678 0 0 0-.283-.341l-6.975-4.401c-.156-.1-.326-.127-.496-.1l-11.271 1.86a.694.694 0 0 0-.425.227l-3.927 4.586-6.11-4.685a.706.706 0 0 0-.964.099l-1.077 1.25-.071-.384a.652.652 0 0 0-.297-.469c-.156-.113-.34-.154-.539-.113l-6.99 1.393-5.444-2.784a.802.802 0 0 0-.411-.07l-8.151.936a.7.7 0 0 0-.51.327.744.744 0 0 0-.086.597l8.152 25.146 5.67 17.82c.1.298.369.497.681.497h4.607a.736.736 0 0 0 .539-.241.76.76 0 0 0 .17-.569l-2.651-19.141h3.417l2.268 9.784c.085.369.454.61.822.54l3.303-.61-2.792 8.631a.753.753 0 0 0 .057.555c.085.17.241.285.44.341l4.876 1.364a.89.89 0 0 0 .183.027.7.7 0 0 0 .639-.412l8.704-18.416 5.954 6.049 2.169 12.196a.7.7 0 0 0 .694.583h4.849a.715.715 0 0 0 .68-.965l-1.403-15.676a.725.725 0 0 0-.127-.341l-6.28-9.272 1.869-12.04 3.013 1.095 3.226 7.538a.695.695 0 0 0 .95.241l2.935-1.69a.707.707 0 0 0 .311-.865m-31.699 3.336a.71.71 0 0 0-.709-.64H18.027l-3.204-9.002 3.885.909a.55.55 0 0 0 .34-.014l6.549-1.775a.683.683 0 0 0 .426-.312l7.513 7.057c.242.228.61.241.879.057l3.846-4.012-7.404 22.855z"/></svg>