<svg xmlns="http://www.w3.org/2000/svg" viewBox="0 0 48 60"><path d="M29 15a1 1 0 0 1 1-1h2a1 1 0 0 1 0 2h-2a1 1 0 0 1-1-1M7 22a2 2 0 1 0 2 2 2 2 0 0 0-2-2m14 0a2 2 0 1 0 2 2 2 2 0 0 0-2-2m-7 0a2 2 0 1 0 2 2 2 2 0 0 0-2-2m34 4v14a3 3 0 0 1-3 3h-2v3a1 1 0 0 1-1.71.71L37.59 43H23a3 3 0 0 1-3-3v-6h-9.59l-3.7 3.71A1 1 0 0 1 5 37v-3H3a3 3 0 0 1-3-3V17a3 3 0 0 1 3-3h7V8a3 3 0 0 1 3-3h2V2a1 1 0 0 1 1.71-.71L20.41 5H35a3 3 0 0 1 3 3v14a3 3 0 0 1-.18 1H45a3 3 0 0 1 3 3M12 14h13a3 3 0 0 1 3 3v6h7a1 1 0 0 0 1-1V8a1 1 0 0 0-1-1H20a1 1 0 0 1-.71-.29L17 4.42V6a1 1 0 0 1-1 1h-3a1 1 0 0 0-1 1Zm13 18a1 1 0 0 0 1-1V17a1 1 0 0 0-1-1H3a1 1 0 0 0-1 1v14a1 1 0 0 0 1 1h3a1 1 0 0 1 1 1v1.59l2.29-2.29A1 1 0 0 1 10 32Zm21-6a1 1 0 0 0-1-1H28v6a3 3 0 0 1-.3 1.29l.3.3 1.29-1.29a1 1 0 0 1 1.41 0l1.3 1.29 1.29-1.29a1 1 0 0 1 1.41 0l1.3 1.29 1.29-1.29a1 1 0 0 1 1.41 0l1.3 1.29 1.29-1.29a1 1 0 0 1 1.41 1.41l-2 2a1 1 0 0 1-1.41 0L38 33.41l-1.29 1.29a1 1 0 0 1-1.41 0L34 33.41l-1.29 1.29a1 1 0 0 1-1.41 0L30 33.41l-1.29 1.29a1 1 0 0 1-1.41 0l-1-1a3 3 0 0 1-1.3.3h-3v6a1 1 0 0 0 1 1h15a1 1 0 0 1 .71.29l2.29 2.3V42a1 1 0 0 1 1-1h3a1 1 0 0 0 1-1Z"/></svg>