<svg xmlns="http://www.w3.org/2000/svg" xml:space="preserve" style="enable-background:new 0 0 68 68" viewBox="0 0 68 85"><path d="M8.8 65.6h53.4c.7 0 1.2-.7.9-1.4-1.5-3.7-1.8-7.5 0-11.1.3-.7-.2-1.4-.9-1.4H44.7c-1-2-2.8-3.5-4.9-4.2l-6.5-2.1-2.3-1.1V43h.4c1.4 0 2.5-1.1 2.5-2.5S32.8 38 31.4 38c1.4 0 2.5-1.1 2.5-2.5 0-1-.6-1.9-1.5-2.3.3-1.3 1-2.6 2-3.7 2.2-2.3 3.4-5.3 3.4-8.5 0-6.8-5.5-12.3-12.3-12.3S13.2 14.2 13.2 21c0 3.2 1.2 6.2 3.4 8.5 1 1 1.6 2.2 2 3.5-1.2.2-2 1.3-2 2.5 0 1.4 1.1 2.5 2.5 2.5-1.4 0-2.5 1.1-2.5 2.5s1.1 2.5 2.5 2.5h.4v1.6l-2.2 1.2-5.9 1.8c-3.2 1-5.5 3.7-5.9 7l-.8 6.5c-.2 2.4 1.7 4.5 4.1 4.5m30.4-16.1c1.3.4 2.4 1.2 3.2 2.3h-2.2c-.5 0-1 .1-1.5.2L36 48.5zm1 4.3h20.5c-.3.9-.4 1.4-.6 2.2H42.9c-1.7 0-3 1.4-3 3 0 1.7 1.3 3 3 3h17.4c0 .1.1.7.5 1.7H40.2c-2.7 0-4.9-2.2-4.9-4.9 0-2.8 2.2-5 4.9-5m-17.1 9.8h-1.2L20 51.1l1.9 2c.3.3.8.4 1.2.1l.3.7zm6.6 0h-1.3l-.4-9.7.3-.6c.4.2.8.1 1.1-.2l2.2-2.3zm2.4-16.4v.3l-3.4 3.4-1.7-2.1 3.1-2.4v.3zm-6.4.1c-2-1.6-3.8-3-4-3.1-.1-.9 0-.5 0-1.2h7.4v.9c0 .3 0 .5-.1.8zM18.2 28c-1.8-1.9-2.8-4.4-2.8-7.1 0-5.7 4.6-10.3 10.3-10.3 5.7 0 10.3 4.6 10.3 10.3 0 2.7-1 5.2-2.8 7.1-1.3 1.4-2.2 3.1-2.6 4.8h-3.9v-7l2.7-2.7c.4-.4.4-1 0-1.4-.4-.4-1-.4-1.4 0L25.7 24l-2.2-2.2c-.4-.4-1-.4-1.4 0-.4.4-.4 1 0 1.4l2.7 2.7v7h-3.9c-.5-1.9-1.3-3.5-2.7-4.9m3.4 18.6 2.7 2.1-1.7 2.1-3.1-3.1-.1-.5zM6.8 61.4l.9-6.5c.3-2.5 2.1-4.6 4.5-5.4l3.4-1.1-3.2 4.1c-.3.4-.3 1.1.2 1.4l2.8 2.1-2.3 2.8c-.3.3-.3.8 0 1.2l2.6 3.7h-7c-1-.1-2-1.1-1.9-2.3zm17.9-58v1.8c0 .6.4 1 1 1s1-.4 1-1V3.4c0-.6-.4-1-1-1s-1 .4-1 1M12 8c-.4.4-.4 1 0 1.4l1.2 1.2c.4.4 1 .4 1.4 0 .4-.4.4-1 0-1.4L13.4 8c-.4-.4-1-.4-1.4 0M7.3 20.7c-.6 0-1 .4-1 1s.4 1 1 1h1.8c.6 0 1-.4 1-1s-.4-1-1-1z"/><path d="M42.3 20.7c-.6 0-1 .4-1 1s.4 1 1 1H44c.6 0 1-.4 1-1s-.4-1-1-1zM37.9 8l-1.2 1.2c-.4.4-.4 1 0 1.4.4.4 1 .4 1.4 0l1.2-1.2c.4-.4.4-1 0-1.4-.3-.4-1-.4-1.4 0"/></svg>