<svg width="669" height="313" viewBox="0 0 669 313" fill="none" xmlns="http://www.w3.org/2000/svg">
<path d="M651.709 311.111C652.047 311.548 652.675 311.629 653.112 311.291L660.233 305.788C660.67 305.45 660.75 304.822 660.413 304.385C660.075 303.948 659.447 303.867 659.01 304.205L652.68 309.097L647.788 302.767C647.45 302.33 646.822 302.249 646.385 302.587C645.948 302.925 645.868 303.553 646.206 303.99L651.709 311.111ZM2.56428 5.72753C2.69279 6.26466 3.23239 6.5959 3.76952 6.46739C4.30664 6.33888 4.63789 5.79927 4.50938 5.26215L2.56428 5.72753ZM7.21539 14.6742C7.0388 14.1509 6.47144 13.8698 5.94815 14.0464C5.42485 14.223 5.14379 14.7904 5.32038 15.3137L7.21539 14.6742ZM8.91982 24.5633C9.14338 25.0683 9.73401 25.2964 10.239 25.0729C10.744 24.8493 10.9722 24.2587 10.7486 23.7537L8.91982 24.5633ZM15.1149 32.5177C14.8466 32.0349 14.2378 31.8611 13.7551 32.1294C13.2723 32.3977 13.0985 33.0065 13.3668 33.4893L15.1149 32.5177ZM18.5675 41.9532C18.8766 42.4109 19.4982 42.5313 19.9559 42.2223C20.4136 41.9132 20.534 41.2916 20.2249 40.8339L18.5675 41.9532ZM26.0384 48.718C25.6929 48.2871 25.0636 48.2178 24.6327 48.5632C24.2017 48.9087 24.1325 49.538 24.4779 49.969L26.0384 48.718ZM30.9879 57.4817C31.3648 57.8854 31.9976 57.9071 32.4013 57.5301C32.805 57.1532 32.8266 56.5204 32.4497 56.1167L30.9879 57.4817ZM39.3817 63.0397C38.978 62.6629 38.3452 62.6846 37.9683 63.0884C37.5915 63.4921 37.6132 64.1249 38.017 64.5017L39.3817 63.0397ZM45.5113 71.0669C45.9377 71.418 46.5679 71.357 46.919 70.9307C47.27 70.5043 47.209 69.8741 46.7827 69.523L45.5113 71.0669ZM54.5019 75.5235C54.0568 75.1965 53.4309 75.2922 53.1039 75.7373C52.7769 76.1823 52.8726 76.8082 53.3177 77.1352L54.5019 75.5235ZM61.5402 82.8598C62.0011 83.1642 62.6214 83.0373 62.9258 82.5765C63.2301 82.1156 63.1032 81.4953 62.6424 81.1909L61.5402 82.8598ZM70.8807 86.3715C70.4069 86.0876 69.7928 86.2415 69.5089 86.7152C69.225 87.189 69.3789 87.8031 69.8526 88.087L70.8807 86.3715ZM78.5782 93.0773C79.0629 93.3421 79.6704 93.1637 79.9351 92.679C80.1999 92.1943 80.0215 91.5868 79.5368 91.3221L78.5782 93.0773ZM88.1557 95.8328C87.6621 95.5851 87.0611 95.7845 86.8134 96.2781C86.5658 96.7718 86.7651 97.3727 87.2588 97.6204L88.1557 95.8328ZM96.2253 101.94C96.7266 102.172 97.3209 101.953 97.5528 101.452C97.7847 100.951 97.5664 100.356 97.0651 100.125L96.2253 101.94ZM106.085 104.14C105.577 103.923 104.989 104.158 104.772 104.666C104.554 105.173 104.789 105.761 105.297 105.979L106.085 104.14ZM114.397 109.741C114.91 109.946 115.492 109.696 115.697 109.183C115.901 108.67 115.651 108.088 115.138 107.884L114.397 109.741ZM124.458 111.474C123.94 111.281 123.365 111.545 123.172 112.062C122.979 112.58 123.243 113.156 123.76 113.348L124.458 111.474ZM132.978 116.67C133.499 116.852 134.069 116.577 134.251 116.055C134.433 115.534 134.158 114.963 133.636 114.782L132.978 116.67ZM142.989 117.945C142.465 117.773 141.9 118.059 141.728 118.584C141.555 119.109 141.841 119.674 142.366 119.846L142.989 117.945ZM151.876 122.873C152.404 123.036 152.964 122.74 153.127 122.213C153.29 121.685 152.994 121.125 152.467 120.962L151.876 122.873ZM161.83 123.776C161.3 123.621 160.745 123.925 160.59 124.455C160.435 124.985 160.739 125.541 161.269 125.695L161.83 123.776ZM170.829 128.415C171.361 128.562 171.912 128.25 172.059 127.718C172.207 127.186 171.895 126.635 171.363 126.488L170.829 128.415ZM180.916 129.067C180.382 128.926 179.835 129.245 179.695 129.779C179.554 130.313 179.873 130.86 180.407 131.001L180.916 129.067ZM189.938 133.449C190.474 133.583 191.017 133.258 191.151 132.722C191.285 132.186 190.96 131.643 190.424 131.509L189.938 133.449ZM200.061 133.87C199.524 133.741 198.984 134.072 198.856 134.609C198.727 135.147 199.058 135.686 199.595 135.815L200.061 133.87ZM209.23 138.072C209.768 138.195 210.305 137.859 210.428 137.32C210.552 136.782 210.215 136.246 209.677 136.122L209.23 138.072ZM219.276 138.277C218.737 138.159 218.204 138.5 218.085 139.039C217.966 139.579 218.307 140.112 218.847 140.231L219.276 138.277ZM228.557 142.325C229.097 142.44 229.628 142.094 229.742 141.554C229.857 141.014 229.511 140.483 228.971 140.369L228.557 142.325ZM238.64 142.377C238.099 142.267 237.571 142.616 237.46 143.157C237.35 143.699 237.699 144.227 238.24 144.337L238.64 142.377ZM247.912 146.277C248.454 146.384 248.98 146.032 249.087 145.49C249.194 144.948 248.841 144.422 248.299 144.315L247.912 146.277ZM258.025 146.203C257.482 146.1 256.958 146.455 256.855 146.998C256.751 147.54 257.107 148.064 257.649 148.168L258.025 146.203ZM267.372 150C267.915 150.1 268.436 149.742 268.537 149.199C268.638 148.656 268.28 148.134 267.737 148.033L267.372 150ZM277.437 149.811C276.893 149.713 276.373 150.074 276.275 150.617C276.176 151.161 276.537 151.681 277.081 151.779L277.437 149.811ZM286.829 153.523C287.373 153.619 287.892 153.256 287.988 152.712C288.084 152.168 287.721 151.649 287.177 151.553L286.829 153.523ZM296.919 153.257C296.375 153.163 295.857 153.528 295.763 154.072C295.669 154.616 296.033 155.134 296.578 155.228L296.919 153.257ZM306.314 156.899C306.859 156.991 307.375 156.625 307.468 156.08C307.56 155.536 307.194 155.019 306.649 154.927L306.314 156.899ZM316.397 156.572C315.852 156.481 315.336 156.848 315.245 157.393C315.154 157.938 315.521 158.453 316.066 158.545L316.397 156.572ZM325.826 160.17C326.37 160.26 326.885 159.892 326.975 159.347C327.066 158.802 326.697 158.287 326.152 158.197L325.826 160.17ZM335.908 159.805C335.363 159.715 334.849 160.084 334.759 160.629C334.67 161.174 335.039 161.689 335.584 161.778L335.908 159.805ZM345.335 163.373C345.88 163.462 346.394 163.092 346.483 162.547C346.572 162.002 346.202 161.488 345.657 161.399L345.335 163.373ZM355.41 162.988C354.865 162.899 354.351 163.269 354.263 163.814C354.174 164.36 354.544 164.873 355.089 164.962L355.41 162.988ZM364.866 166.553C365.411 166.642 365.925 166.272 366.014 165.726C366.103 165.181 365.733 164.668 365.188 164.579L364.866 166.553ZM374.934 166.168C374.389 166.079 373.875 166.449 373.786 166.994C373.697 167.539 374.067 168.053 374.612 168.142L374.934 166.168ZM384.347 169.738C384.892 169.828 385.406 169.459 385.496 168.914C385.586 168.369 385.217 167.854 384.672 167.764L384.347 169.738ZM394.466 169.384C393.921 169.294 393.406 169.662 393.316 170.207C393.225 170.751 393.593 171.267 394.138 171.357L394.466 169.384ZM403.872 172.987C404.417 173.079 404.933 172.712 405.025 172.167C405.116 171.622 404.749 171.106 404.205 171.015L403.872 172.987ZM413.918 172.666C413.373 172.572 412.856 172.938 412.763 173.482C412.67 174.027 413.035 174.544 413.58 174.637L413.918 172.666ZM423.376 176.334C423.92 176.43 424.438 176.066 424.533 175.522C424.629 174.978 424.265 174.46 423.721 174.364L423.376 176.334ZM433.44 176.087C432.897 175.989 432.377 176.351 432.279 176.894C432.182 177.438 432.544 177.958 433.087 178.055L433.44 176.087ZM442.765 179.815C443.308 179.915 443.83 179.556 443.93 179.013C444.03 178.47 443.671 177.948 443.128 177.848L442.765 179.815ZM452.924 179.682C452.381 179.579 451.858 179.935 451.755 180.478C451.651 181.02 452.008 181.544 452.55 181.647L452.924 179.682ZM462.217 183.518C462.759 183.624 463.284 183.272 463.391 182.73C463.498 182.188 463.145 181.662 462.603 181.555L462.217 183.518ZM472.274 183.496C471.733 183.386 471.204 183.734 471.093 184.275C470.983 184.817 471.332 185.345 471.873 185.456L472.274 183.496ZM481.615 187.491C482.155 187.606 482.687 187.262 482.802 186.722C482.917 186.182 482.573 185.651 482.033 185.535L481.615 187.491ZM491.635 187.631C491.096 187.511 490.561 187.85 490.441 188.389C490.321 188.928 490.66 189.463 491.199 189.583L491.635 187.631ZM500.848 191.792C501.386 191.919 501.924 191.585 502.05 191.047C502.177 190.51 501.843 189.972 501.305 189.845L500.848 191.792ZM510.974 192.176C510.438 192.044 509.895 192.37 509.763 192.907C509.63 193.443 509.957 193.985 510.493 194.118L510.974 192.176ZM519.928 196.522C520.462 196.662 521.009 196.343 521.149 195.809C521.289 195.274 520.969 194.728 520.435 194.588L519.928 196.522ZM530.122 197.209C529.59 197.061 529.039 197.371 528.89 197.903C528.742 198.435 529.052 198.987 529.584 199.135L530.122 197.209ZM539.034 201.864C539.563 202.022 540.12 201.721 540.278 201.192C540.436 200.663 540.135 200.106 539.606 199.948L539.034 201.864ZM549.034 202.866C548.508 202.697 547.945 202.986 547.776 203.512C547.607 204.038 547.897 204.601 548.422 204.77L549.034 202.866ZM557.858 207.918C558.38 208.099 558.949 207.823 559.131 207.301C559.312 206.779 559.035 206.21 558.514 206.029L557.858 207.918ZM567.653 209.333C567.136 209.138 566.56 209.399 566.365 209.916C566.17 210.433 566.431 211.01 566.948 211.205L567.653 209.333ZM576.298 214.895C576.809 215.106 577.394 214.863 577.605 214.353C577.816 213.843 577.573 213.258 577.063 213.047L576.298 214.895ZM586.041 216.945C585.538 216.716 584.945 216.937 584.716 217.44C584.486 217.942 584.708 218.535 585.21 218.764L586.041 216.945ZM594.186 223.089C594.679 223.34 595.281 223.144 595.531 222.652C595.782 222.16 595.586 221.558 595.094 221.307L594.186 223.089ZM603.742 225.979C603.263 225.705 602.651 225.87 602.376 226.349C602.102 226.828 602.267 227.439 602.746 227.714L603.742 225.979ZM611.2 232.902C611.661 233.206 612.281 233.077 612.585 232.616C612.888 232.154 612.76 231.534 612.299 231.231L611.2 232.902ZM620.317 236.907C619.878 236.572 619.251 236.656 618.916 237.095C618.58 237.534 618.664 238.161 619.103 238.496L620.317 236.907ZM626.715 244.838C627.123 245.21 627.756 245.181 628.128 244.773C628.5 244.365 628.471 243.732 628.063 243.36L626.715 244.838ZM635.015 250.355C634.646 249.943 634.014 249.908 633.603 250.277C633.191 250.645 633.156 251.278 633.525 251.689L635.015 250.355ZM639.638 259.376C639.955 259.828 640.578 259.938 641.031 259.622C641.483 259.305 641.594 258.682 641.277 258.229L639.638 259.376ZM646.435 266.748C646.182 266.257 645.579 266.065 645.088 266.318C644.597 266.571 644.404 267.174 644.658 267.665L646.435 266.748ZM648.49 276.615C648.67 277.137 649.24 277.414 649.762 277.234C650.284 277.054 650.561 276.485 650.381 275.963L648.49 276.615ZM652.932 285.565C652.829 285.022 652.305 284.666 651.763 284.769C651.22 284.873 650.864 285.396 650.967 285.939L652.932 285.565ZM652.12 295.628C652.148 296.179 652.618 296.604 653.17 296.576C653.722 296.548 654.146 296.078 654.118 295.526L652.12 295.628ZM654.007 305.459C654.046 304.909 653.631 304.43 653.08 304.391C652.529 304.353 652.051 304.768 652.012 305.319L654.007 305.459ZM1.49557 0.769711C1.81687 2.44086 2.17329 4.09338 2.56428 5.72753L4.50938 5.26215C4.12539 3.65725 3.77527 2.034 3.4596 0.392105L1.49557 0.769711ZM5.32038 15.3137C6.38534 18.4695 7.58673 21.552 8.91982 24.5633L10.7486 23.7537C9.44003 20.7977 8.26077 17.772 7.21539 14.6742L5.32038 15.3137ZM13.3668 33.4893C14.9734 36.3802 16.7087 39.2007 18.5675 41.9532L20.2249 40.8339C18.3977 38.1282 16.6929 35.3569 15.1149 32.5177L13.3668 33.4893ZM24.4779 49.969C26.5357 52.5358 28.7072 55.0393 30.9879 57.4817L32.4497 56.1167C30.2021 53.7097 28.0636 51.2442 26.0384 48.718L24.4779 49.969ZM38.017 64.5017C40.4192 66.7442 42.9187 68.9319 45.5113 71.0669L46.7827 69.523C44.2207 67.4132 41.7524 65.2527 39.3817 63.0397L38.017 64.5017ZM53.3177 77.1352C55.9775 79.0895 58.7196 80.9971 61.5402 82.8598L62.6424 81.1909C59.8483 79.3457 57.1337 77.4572 54.5019 75.5235L53.3177 77.1352ZM69.8526 88.087C72.6933 89.7894 75.6029 91.4523 78.5782 93.0773L79.5368 91.3221C76.5839 89.7092 73.6975 88.0595 70.8807 86.3715L69.8526 88.087ZM87.2588 97.6204C90.1922 99.0923 93.182 100.532 96.2253 101.94L97.0651 100.125C94.0401 98.725 91.0694 97.2948 88.1557 95.8328L87.2588 97.6204ZM105.297 105.979C108.285 107.259 111.319 108.513 114.397 109.741L115.138 107.884C112.075 106.662 109.057 105.414 106.085 104.14L105.297 105.979ZM123.76 113.348C126.795 114.478 129.868 115.585 132.978 116.67L133.636 114.782C130.54 113.701 127.479 112.599 124.458 111.474L123.76 113.348ZM142.366 119.846C145.503 120.875 148.674 121.883 151.876 122.873L152.467 120.962C149.275 119.976 146.115 118.97 142.989 117.945L142.366 119.846ZM161.269 125.695C164.428 126.619 167.616 127.525 170.829 128.415L171.363 126.488C168.158 125.6 164.98 124.696 161.83 123.776L161.269 125.695ZM180.407 131.001C183.562 131.831 186.739 132.647 189.938 133.449L190.424 131.509C187.233 130.709 184.063 129.895 180.916 129.067L180.407 131.001ZM199.595 135.815C202.788 136.579 206 137.331 209.23 138.072L209.677 136.122C206.453 135.383 203.247 134.633 200.061 133.87L199.595 135.815ZM218.847 140.231C222.068 140.939 225.306 141.637 228.557 142.325L228.971 140.369C225.725 139.682 222.493 138.985 219.276 138.277L218.847 140.231ZM238.24 144.337C241.453 144.993 244.677 145.639 247.912 146.277L248.299 144.315C245.068 143.678 241.848 143.032 238.64 142.377L238.24 144.337ZM257.649 148.168C260.881 148.786 264.122 149.396 267.372 150L267.737 148.033C264.491 147.43 261.253 146.821 258.025 146.203L257.649 148.168ZM277.081 151.779C280.324 152.366 283.574 152.947 286.829 153.523L287.177 151.553C283.925 150.978 280.677 150.398 277.437 149.811L277.081 151.779ZM296.578 155.228C299.82 155.789 303.066 156.346 306.314 156.899L306.649 154.927C303.403 154.375 300.159 153.818 296.919 153.257L296.578 155.228ZM316.066 158.545C319.318 159.09 322.572 159.631 325.826 160.17L326.152 158.197C322.9 157.658 319.647 157.117 316.397 156.572L316.066 158.545ZM335.584 161.778C338.836 162.312 342.087 162.843 345.335 163.373L345.657 161.399C342.409 160.869 339.159 160.338 335.908 159.805L335.584 161.778ZM355.089 164.962C358.353 165.493 361.612 166.023 364.866 166.553L365.188 164.579C361.933 164.049 358.674 163.519 355.41 162.988L355.089 164.962ZM374.612 168.142C377.864 168.673 381.109 169.205 384.347 169.738L384.672 167.764C381.433 167.232 378.187 166.7 374.934 166.168L374.612 168.142ZM394.138 171.357C397.393 171.898 400.638 172.441 403.872 172.987L404.205 171.015C400.969 170.469 397.722 169.926 394.466 169.384L394.138 171.357ZM413.58 174.637C416.858 175.199 420.124 175.765 423.376 176.334L423.721 174.364C420.467 173.795 417.198 173.229 413.918 172.666L413.58 174.637ZM433.087 178.055C436.33 178.637 439.556 179.223 442.765 179.815L443.128 177.848C439.915 177.256 436.686 176.669 433.44 176.087L433.087 178.055ZM452.55 181.647C455.793 182.264 459.015 182.887 462.217 183.518L462.603 181.555C459.397 180.924 456.17 180.3 452.924 179.682L452.55 181.647ZM471.873 185.456C475.145 186.125 478.394 186.804 481.615 187.491L482.033 185.535C478.805 184.846 475.552 184.167 472.274 183.496L471.873 185.456ZM491.199 189.583C494.446 190.309 497.663 191.045 500.848 191.792L501.305 189.845C498.113 189.096 494.888 188.358 491.635 187.631L491.199 189.583ZM510.493 194.118C513.673 194.906 516.819 195.707 519.928 196.522L520.435 194.588C517.317 193.77 514.163 192.966 510.974 192.176L510.493 194.118ZM529.584 199.135C532.778 200.028 535.929 200.937 539.034 201.864L539.606 199.948C536.489 199.017 533.327 198.105 530.122 197.209L529.584 199.135ZM548.422 204.77C551.623 205.797 554.769 206.846 557.858 207.918L558.514 206.029C555.409 204.951 552.248 203.897 549.034 202.866L548.422 204.77ZM566.948 211.205C570.136 212.406 573.254 213.636 576.298 214.895L577.063 213.047C573.997 211.779 570.86 210.542 567.653 209.333L566.948 211.205ZM585.21 218.764C588.291 220.17 591.284 221.611 594.186 223.089L595.094 221.307C592.165 219.815 589.145 218.361 586.041 216.945L585.21 218.764ZM602.746 227.714C605.678 229.397 608.497 231.125 611.2 232.902L612.299 231.231C609.56 229.43 606.706 227.681 603.742 225.979L602.746 227.714ZM619.103 238.496C621.789 240.549 624.328 242.661 626.715 244.838L628.063 243.36C625.63 241.142 623.046 238.992 620.317 236.907L619.103 238.496ZM633.525 251.689C635.75 254.172 637.79 256.733 639.638 259.376L641.277 258.229C639.38 255.518 637.29 252.894 635.015 250.355L633.525 251.689ZM644.658 267.665C646.149 270.555 647.429 273.537 648.49 276.615L650.381 275.963C649.288 272.792 647.97 269.722 646.435 266.748L644.658 267.665ZM650.967 285.939C651.563 289.072 651.951 292.3 652.12 295.628L654.118 295.526C653.943 292.109 653.546 288.79 652.932 285.565L650.967 285.939ZM652.012 305.319C651.895 306.98 651.727 308.664 651.508 310.372L653.492 310.627C653.716 308.882 653.887 307.159 654.007 305.459L652.012 305.319ZM650.918 311.723C651.593 312.597 652.849 312.758 653.723 312.082L667.966 301.076C668.84 300.4 669.001 299.144 668.325 298.27C667.65 297.396 666.394 297.235 665.52 297.91L652.86 307.694L643.076 295.034C642.401 294.16 641.145 293.999 640.271 294.674C639.397 295.35 639.236 296.606 639.911 297.48L650.918 311.723ZM1.59172 5.96022C1.84875 7.03447 2.92796 7.69697 4.00221 7.43994C5.07646 7.18292 5.73895 6.1037 5.48193 5.02946L1.59172 5.96022ZM8.1629 14.3544C7.80972 13.3079 6.67499 12.7457 5.6284 13.0989C4.58182 13.4521 4.0197 14.5868 4.37288 15.6334L8.1629 14.3544ZM8.00541 24.9681C8.45254 25.9781 9.6338 26.4344 10.6438 25.9873C11.6538 25.5402 12.1102 24.3589 11.663 23.3489L8.00541 24.9681ZM15.989 32.0319C15.4524 31.0664 14.2348 30.7187 13.2693 31.2553C12.3038 31.7919 11.9561 33.0096 12.4927 33.975L15.989 32.0319ZM17.7388 42.5129C18.357 43.4282 19.6002 43.6692 20.5155 43.051C21.4309 42.4328 21.6719 41.1896 21.0537 40.2742L17.7388 42.5129ZM26.8186 48.0925C26.1277 47.2307 24.869 47.0921 24.0072 47.783C23.1453 48.4739 23.0068 49.7326 23.6977 50.5944L26.8186 48.0925ZM30.257 58.1642C31.0109 58.9715 32.2764 59.0149 33.0838 58.261C33.8911 57.5072 33.9345 56.2416 33.1806 55.4343L30.257 58.1642ZM40.0641 62.3087C39.2566 61.555 37.9911 61.5985 37.2373 62.406C36.4836 63.2134 36.5272 64.479 37.3346 65.2327L40.0641 62.3087ZM44.8756 71.8388C45.7283 72.541 46.9887 72.419 47.6909 71.5664C48.3931 70.7137 48.2711 69.4533 47.4184 68.7511L44.8756 71.8388ZM55.094 74.7176C54.2039 74.0636 52.9521 74.255 52.2981 75.1451C51.6441 76.0353 51.8355 77.2871 52.7256 77.9411L55.094 74.7176ZM60.9892 83.6943C61.9109 84.303 63.1515 84.0492 63.7602 83.1275C64.3689 82.2058 64.1152 80.9652 63.1934 80.3565L60.9892 83.6943ZM71.3947 85.5137C70.4473 84.9459 69.2189 85.2537 68.6511 86.2012C68.0833 87.1486 68.3911 88.377 69.3385 88.9448L71.3947 85.5137ZM78.0988 93.955C79.0682 94.4844 80.2833 94.1278 80.8127 93.1584C81.3422 92.189 80.9856 90.9739 80.0162 90.4444L78.0988 93.955ZM88.6042 94.939C87.6169 94.4436 86.415 94.8424 85.9196 95.8297C85.4243 96.8169 85.823 98.0188 86.8103 98.5142L88.6042 94.939ZM95.8054 102.847C96.8079 103.311 97.9966 102.874 98.4604 101.872C98.9242 100.869 98.4875 99.6808 97.485 99.217L95.8054 102.847ZM106.479 103.221C105.464 102.786 104.288 103.256 103.853 104.272C103.418 105.287 103.888 106.463 104.903 106.898L106.479 103.221ZM114.027 110.67C115.053 111.079 116.216 110.579 116.625 109.553C117.035 108.527 116.535 107.364 115.509 106.955L114.027 110.67ZM124.807 110.537C123.772 110.152 122.62 110.678 122.235 111.714C121.849 112.749 122.376 113.9 123.412 114.286L124.807 110.537ZM132.648 117.614C133.691 117.978 134.831 117.428 135.195 116.385C135.559 115.342 135.009 114.201 133.966 113.837L132.648 117.614ZM143.301 116.995C142.251 116.651 141.122 117.223 140.777 118.272C140.433 119.322 141.005 120.452 142.054 120.796L143.301 116.995ZM151.581 123.828C152.636 124.154 153.756 123.563 154.082 122.508C154.408 121.453 153.817 120.333 152.762 120.007L151.581 123.828ZM162.111 122.816C161.05 122.506 159.94 123.114 159.63 124.175C159.32 125.235 159.928 126.345 160.988 126.655L162.111 122.816ZM170.562 129.379C171.626 129.674 172.728 129.05 173.023 127.985C173.318 126.921 172.694 125.819 171.629 125.524L170.562 129.379ZM181.171 128.1C180.103 127.818 179.009 128.456 178.728 129.525C178.447 130.593 179.085 131.687 180.153 131.968L181.171 128.1ZM189.695 134.419C190.766 134.687 191.852 134.037 192.121 132.965C192.39 131.894 191.739 130.807 190.668 130.539L189.695 134.419ZM200.294 132.897C199.22 132.64 198.14 133.302 197.883 134.377C197.626 135.451 198.288 136.53 199.362 136.787L200.294 132.897ZM209.007 139.046C210.083 139.293 211.156 138.62 211.403 137.544C211.65 136.467 210.977 135.394 209.9 135.147L209.007 139.046ZM219.491 137.301C218.412 137.063 217.346 137.746 217.108 138.824C216.871 139.903 217.553 140.97 218.632 141.207L219.491 137.301ZM228.35 143.304C229.431 143.532 230.492 142.842 230.721 141.761C230.949 140.68 230.259 139.619 229.178 139.39L228.35 143.304ZM238.84 141.398C237.758 141.177 236.702 141.875 236.481 142.957C236.26 144.04 236.958 145.096 238.04 145.317L238.84 141.398ZM247.719 147.258C248.802 147.472 249.854 146.767 250.068 145.683C250.282 144.6 249.577 143.548 248.493 143.334L247.719 147.258ZM258.212 145.221C257.128 145.014 256.08 145.725 255.872 146.81C255.665 147.895 256.376 148.943 257.461 149.15L258.212 145.221ZM267.189 150.983C268.275 151.185 269.319 150.468 269.521 149.382C269.722 148.296 269.005 147.252 267.919 147.05L267.189 150.983ZM277.615 148.827C276.528 148.631 275.487 149.352 275.291 150.439C275.094 151.526 275.816 152.567 276.902 152.763L277.615 148.827ZM286.655 154.507C287.743 154.7 288.78 153.974 288.973 152.886C289.165 151.798 288.439 150.761 287.351 150.568L286.655 154.507ZM297.09 152.272C296.001 152.083 294.966 152.813 294.778 153.901C294.589 154.99 295.319 156.025 296.407 156.213L297.09 152.272ZM306.146 157.884C307.235 158.07 308.268 157.337 308.453 156.248C308.639 155.159 307.906 154.126 306.817 153.941L306.146 157.884ZM316.562 155.586C315.473 155.403 314.441 156.138 314.259 157.228C314.076 158.317 314.811 159.348 315.901 159.531L316.562 155.586ZM325.662 161.156C326.752 161.337 327.782 160.6 327.962 159.51C328.142 158.42 327.405 157.391 326.316 157.21L325.662 161.156ZM336.07 158.818C334.98 158.639 333.951 159.377 333.772 160.467C333.593 161.557 334.332 162.586 335.422 162.765L336.07 158.818ZM345.174 164.36C346.264 164.538 347.292 163.798 347.47 162.708C347.648 161.618 346.908 160.59 345.818 160.412L345.174 164.36ZM355.571 162.001C354.481 161.824 353.453 162.564 353.276 163.654C353.098 164.744 353.838 165.772 354.929 165.949L355.571 162.001ZM364.705 167.54C365.796 167.717 366.823 166.977 367.001 165.887C367.178 164.797 366.438 163.769 365.348 163.592L364.705 167.54ZM375.096 165.181C374.006 165.003 372.977 165.742 372.799 166.832C372.621 167.923 373.36 168.951 374.451 169.129L375.096 165.181ZM384.185 170.725C385.275 170.904 386.304 170.166 386.483 169.076C386.662 167.986 385.924 166.957 384.834 166.778L384.185 170.725ZM394.63 168.398C393.541 168.217 392.51 168.953 392.329 170.043C392.148 171.132 392.884 172.162 393.974 172.344L394.63 168.398ZM403.706 173.973C404.795 174.156 405.827 173.422 406.011 172.333C406.194 171.244 405.46 170.212 404.371 170.028L403.706 173.973ZM414.087 171.68C412.998 171.494 411.964 172.225 411.777 173.313C411.591 174.402 412.322 175.436 413.411 175.623L414.087 171.68ZM423.203 177.319C424.292 177.51 425.328 176.782 425.519 175.694C425.709 174.606 424.981 173.57 423.893 173.379L423.203 177.319ZM433.617 175.102C432.53 174.907 431.49 175.631 431.295 176.718C431.1 177.805 431.823 178.844 432.911 179.039L433.617 175.102ZM442.584 180.798C443.67 180.999 444.713 180.28 444.913 179.194C445.114 178.108 444.395 177.065 443.309 176.865L442.584 180.798ZM453.111 178.7C452.026 178.493 450.979 179.206 450.772 180.291C450.566 181.376 451.278 182.423 452.363 182.629L453.111 178.7ZM462.024 184.499C463.107 184.712 464.159 184.007 464.372 182.923C464.586 181.839 463.88 180.788 462.796 180.574L462.024 184.499ZM472.474 182.517C471.392 182.295 470.335 182.993 470.114 184.075C469.892 185.157 470.59 186.214 471.672 186.435L472.474 182.517ZM481.406 188.469C482.487 188.7 483.549 188.011 483.78 186.931C484.01 185.85 483.322 184.788 482.241 184.557L481.406 188.469ZM491.853 186.655C490.775 186.415 489.706 187.093 489.465 188.171C489.224 189.249 489.903 190.318 490.981 190.559L491.853 186.655ZM500.62 192.766C501.695 193.018 502.772 192.351 503.024 191.276C503.276 190.201 502.609 189.124 501.534 188.872L500.62 192.766ZM511.214 191.206C510.142 190.94 509.057 191.594 508.792 192.666C508.526 193.738 509.18 194.823 510.252 195.088L511.214 191.206ZM519.674 197.49C520.742 197.77 521.836 197.131 522.116 196.062C522.396 194.994 521.757 193.901 520.689 193.62L519.674 197.49ZM530.391 196.246C529.328 195.949 528.224 196.57 527.927 197.634C527.63 198.698 528.251 199.801 529.315 200.099L530.391 196.246ZM538.748 202.822C539.806 203.139 540.92 202.537 541.236 201.478C541.553 200.42 540.951 199.306 539.892 198.99L538.748 202.822ZM549.339 201.913C548.287 201.576 547.161 202.155 546.824 203.207C546.486 204.258 547.065 205.385 548.117 205.722L549.339 201.913ZM557.53 208.863C558.574 209.225 559.713 208.673 560.075 207.629C560.437 206.586 559.885 205.446 558.842 205.084L557.53 208.863ZM568.006 208.397C566.972 208.008 565.819 208.53 565.429 209.564C565.04 210.597 565.562 211.751 566.595 212.14L568.006 208.397ZM575.916 215.819C576.937 216.241 578.107 215.756 578.529 214.735C578.951 213.715 578.466 212.545 577.445 212.123L575.916 215.819ZM586.456 216.035C585.451 215.577 584.264 216.02 583.806 217.024C583.347 218.029 583.79 219.216 584.795 219.674L586.456 216.035ZM593.733 223.98C594.717 224.481 595.921 224.09 596.422 223.106C596.924 222.122 596.532 220.917 595.548 220.416L593.733 223.98ZM604.239 225.112C603.281 224.562 602.059 224.893 601.509 225.851C600.959 226.809 601.29 228.032 602.248 228.581L604.239 225.112ZM610.651 233.738C611.573 234.345 612.814 234.088 613.42 233.165C614.027 232.242 613.771 231.002 612.848 230.395L610.651 233.738ZM620.924 236.113C620.047 235.442 618.792 235.61 618.121 236.488C617.45 237.365 617.618 238.62 618.496 239.291L620.924 236.113ZM626.041 245.577C626.857 246.321 628.122 246.263 628.867 245.447C629.611 244.63 629.553 243.365 628.736 242.621L626.041 245.577ZM635.759 249.687C635.022 248.865 633.758 248.795 632.935 249.532C632.113 250.269 632.043 251.534 632.78 252.356L635.759 249.687ZM638.819 259.949C639.452 260.854 640.699 261.074 641.604 260.441C642.509 259.808 642.73 258.561 642.096 257.656L638.819 259.949ZM647.324 266.289C646.817 265.308 645.611 264.923 644.629 265.429C643.648 265.936 643.263 267.142 643.769 268.124L647.324 266.289ZM647.545 276.941C647.905 277.985 649.043 278.54 650.088 278.18C651.132 277.82 651.687 276.682 651.327 275.637L647.545 276.941ZM653.914 285.378C653.708 284.293 652.661 283.581 651.576 283.787C650.491 283.993 649.778 285.04 649.985 286.126L653.914 285.378ZM651.122 295.679C651.178 296.782 652.118 297.631 653.221 297.574C654.324 297.518 655.173 296.578 655.116 295.475L651.122 295.679ZM655.005 305.53C655.083 304.428 654.253 303.472 653.151 303.394C652.049 303.316 651.093 304.146 651.015 305.248L655.005 305.53ZM0.513556 0.958515C0.837665 2.64429 1.19724 4.31144 1.59172 5.96022L5.48193 5.02946C5.10144 3.43918 4.75448 1.83056 4.44162 0.203301L0.513556 0.958515ZM4.37288 15.6334C5.44763 18.8182 6.66007 21.9291 8.00541 24.9681L11.663 23.3489C10.3667 20.4206 9.19848 17.4232 8.1629 14.3544L4.37288 15.6334ZM12.4927 33.975C14.1137 36.8918 15.8642 39.737 17.7388 42.5129L21.0537 40.2742C19.2423 37.5919 17.5526 34.8453 15.989 32.0319L12.4927 33.975ZM23.6977 50.5944C25.7717 53.1816 27.9598 55.704 30.257 58.1642L33.1806 55.4343C30.9495 53.0449 28.8275 50.5984 26.8186 48.0925L23.6977 50.5944ZM37.3346 65.2327C39.7526 67.4899 42.2677 69.6912 44.8756 71.8388L47.4184 68.7511C44.8717 66.6538 42.419 64.507 40.0641 62.3087L37.3346 65.2327ZM52.7256 77.9411C55.3995 79.9057 58.1553 81.8228 60.9892 83.6943L63.1934 80.3565C60.4126 78.52 57.7117 76.641 55.094 74.7176L52.7256 77.9411ZM69.3385 88.9448C72.1912 90.6543 75.1124 92.3238 78.0988 93.955L80.0162 90.4444C77.0744 88.8377 74.1996 87.1946 71.3947 85.5137L69.3385 88.9448ZM86.8103 98.5142C89.7536 99.991 92.7529 101.435 95.8054 102.847L97.485 99.217C94.4692 97.8216 91.508 96.3961 88.6042 94.939L86.8103 98.5142ZM104.903 106.898C107.899 108.182 110.941 109.439 114.027 110.67L115.509 106.955C112.453 105.736 109.443 104.492 106.479 103.221L104.903 106.898ZM123.412 114.286C126.453 115.418 129.533 116.527 132.648 117.614L133.966 113.837C130.875 112.759 127.822 111.659 124.807 110.537L123.412 114.286ZM142.054 120.796C145.197 121.827 148.373 122.837 151.581 123.828L152.762 120.007C149.575 119.022 146.421 118.018 143.301 116.995L142.054 120.796ZM160.988 126.655C164.153 127.58 167.344 128.488 170.562 129.379L171.629 125.524C168.429 124.638 165.256 123.735 162.111 122.816L160.988 126.655ZM180.153 131.968C183.311 132.799 186.492 133.616 189.695 134.419L190.668 130.539C187.48 129.739 184.314 128.927 181.171 128.1L180.153 131.968ZM199.362 136.787C202.559 137.553 205.774 138.305 209.007 139.046L209.9 135.147C206.68 134.409 203.477 133.659 200.294 132.897L199.362 136.787ZM218.632 141.207C221.856 141.917 225.096 142.615 228.35 143.304L229.178 139.39C225.934 138.704 222.705 138.008 219.491 137.301L218.632 141.207ZM238.04 145.317C241.255 145.973 244.481 146.62 247.719 147.258L248.493 143.334C245.264 142.697 242.046 142.052 238.84 141.398L238.04 145.317ZM257.461 149.15C260.695 149.768 263.938 150.379 267.189 150.983L267.919 147.05C264.675 146.447 261.439 145.838 258.212 145.221L257.461 149.15ZM276.902 152.763C280.147 153.351 283.399 153.932 286.655 154.507L287.351 150.568C284.1 149.994 280.854 149.414 277.615 148.827L276.902 152.763ZM296.407 156.213C299.65 156.775 302.897 157.332 306.146 157.884L306.817 153.941C303.571 153.389 300.328 152.833 297.09 152.272L296.407 156.213ZM315.901 159.531C319.154 160.076 322.408 160.618 325.662 161.156L326.316 157.21C323.064 156.672 319.812 156.131 316.562 155.586L315.901 159.531ZM335.422 162.765C338.674 163.299 341.926 163.83 345.174 164.36L345.818 160.412C342.57 159.883 339.321 159.351 336.07 158.818L335.422 162.765ZM354.929 165.949C358.192 166.48 361.451 167.01 364.705 167.54L365.348 163.592C362.094 163.062 358.834 162.532 355.571 162.001L354.929 165.949ZM374.451 169.129C377.702 169.66 380.948 170.192 384.185 170.725L384.834 166.778C381.595 166.245 378.349 165.713 375.096 165.181L374.451 169.129ZM393.974 172.344C397.228 172.885 400.473 173.428 403.706 173.973L404.371 170.028C401.134 169.483 397.887 168.939 394.63 168.398L393.974 172.344ZM413.411 175.623C416.688 176.185 419.953 176.75 423.203 177.319L423.893 173.379C420.638 172.809 417.369 172.243 414.087 171.68L413.411 175.623ZM432.911 179.039C436.151 179.621 439.376 180.207 442.584 180.798L443.309 176.865C440.095 176.272 436.864 175.685 433.617 175.102L432.911 179.039ZM452.363 182.629C455.604 183.246 458.824 183.869 462.024 184.499L462.796 180.574C459.588 179.942 456.359 179.318 453.111 178.7L452.363 182.629ZM471.672 186.435C474.942 187.104 478.188 187.782 481.406 188.469L482.241 184.557C479.011 183.868 475.755 183.188 472.474 182.517L471.672 186.435ZM490.981 190.559C494.224 191.284 497.438 192.019 500.62 192.766L501.534 188.872C498.337 188.121 495.11 187.383 491.853 186.655L490.981 190.559ZM510.252 195.088C513.429 195.875 516.57 196.675 519.674 197.49L520.689 193.62C517.566 192.801 514.407 191.997 511.214 191.206L510.252 195.088ZM529.315 200.099C532.504 200.989 535.649 201.897 538.748 202.822L539.892 198.99C536.77 198.057 533.602 197.143 530.391 196.246L529.315 200.099ZM548.117 205.722C551.311 206.747 554.449 207.793 557.53 208.863L558.842 205.084C555.73 204.004 552.561 202.947 549.339 201.913L548.117 205.722ZM566.595 212.14C569.774 213.338 572.882 214.564 575.916 215.819L577.445 212.123C574.369 210.85 571.222 209.609 568.006 208.397L566.595 212.14ZM584.795 219.674C587.864 221.074 590.844 222.509 593.733 223.98L595.548 220.416C592.605 218.917 589.573 217.457 586.456 216.035L584.795 219.674ZM602.248 228.581C605.163 230.254 607.966 231.972 610.651 233.738L612.848 230.395C610.091 228.583 607.22 226.823 604.239 225.112L602.248 228.581ZM618.496 239.291C621.16 241.327 623.677 243.421 626.041 245.577L628.736 242.621C626.281 240.382 623.674 238.214 620.924 236.113L618.496 239.291ZM632.78 252.356C634.979 254.812 636.995 257.341 638.819 259.949L642.096 257.656C640.176 254.91 638.06 252.255 635.759 249.687L632.78 252.356ZM643.769 268.124C645.239 270.972 646.5 273.909 647.545 276.941L651.327 275.637C650.218 272.42 648.88 269.305 647.324 266.289L643.769 268.124ZM649.985 286.126C650.572 289.213 650.954 292.396 651.122 295.679L655.116 295.475C654.94 292.014 654.537 288.649 653.914 285.378L649.985 286.126ZM651.015 305.248C650.899 306.89 650.733 308.555 650.516 310.245L654.484 310.754C654.71 308.99 654.883 307.249 655.005 305.53L651.015 305.248Z" fill="#2E3438"/>
</svg>
