<svg width="838" height="390" viewBox="0 0 838 390" fill="none" xmlns="http://www.w3.org/2000/svg">
<path d="M14.2926 387.709C14.6831 388.099 15.3163 388.099 15.7068 387.709L22.0707 381.345C22.4613 380.954 22.4613 380.321 22.0707 379.93C21.6802 379.54 21.047 379.54 20.6565 379.93L14.9997 385.587L9.34281 379.93C8.95229 379.54 8.31912 379.54 7.9286 379.93C7.53807 380.321 7.53808 380.954 7.9286 381.345L14.2926 387.709ZM833.675 5.53113C833.508 6.05734 833.798 6.61985 834.324 6.78753C834.851 6.95521 835.413 6.66455 835.581 6.13833L833.675 5.53113ZM831.879 15.6543C832.11 15.1528 831.891 14.5587 831.39 14.3274C830.888 14.0961 830.294 14.3151 830.063 14.8166L831.879 15.6543ZM825.416 23.5439C825.13 24.0164 825.281 24.6313 825.754 24.9173C826.226 25.2033 826.841 25.0521 827.127 24.5796L825.416 23.5439ZM821.379 33.0576C821.711 32.6163 821.622 31.9893 821.181 31.6572C820.74 31.3252 820.113 31.4137 819.781 31.855L821.379 33.0576ZM813.495 39.4845C813.126 39.8957 813.161 40.5279 813.572 40.8966C813.983 41.2654 814.615 41.2309 814.984 40.8197L813.495 39.4845ZM807.862 48.1715C808.26 47.7892 808.274 47.1561 807.891 46.7576C807.509 46.3591 806.876 46.3459 806.477 46.7283L807.862 48.1715ZM799.09 53.3695C798.668 53.7259 798.615 54.3568 798.971 54.7787C799.327 55.2006 799.958 55.2537 800.38 54.8973L799.09 53.3695ZM792.443 61.229C792.884 60.8962 792.972 60.2691 792.639 59.8284C792.306 59.3876 791.679 59.3001 791.238 59.6329L792.443 61.229ZM783.05 65.5096C782.594 65.8213 782.477 66.4435 782.789 66.8995C783.101 67.3555 783.723 67.4725 784.179 67.1608L783.05 65.5096ZM775.795 72.6413C776.263 72.3482 776.405 71.7312 776.112 71.263C775.819 70.7949 775.202 70.653 774.734 70.946L775.795 72.6413ZM765.916 76.2415C765.437 76.5175 765.273 77.129 765.549 77.6074C765.825 78.0858 766.436 78.25 766.915 77.974L765.916 76.2415ZM758.277 82.7796C758.764 82.5182 758.946 81.912 758.685 81.4254C758.424 80.9389 757.817 80.7563 757.331 81.0177L758.277 82.7796ZM748.371 85.6701C747.878 85.918 747.679 86.5191 747.926 87.0126C748.174 87.5061 748.775 87.7052 749.269 87.4573L748.371 85.6701ZM740.094 91.9242C740.594 91.6884 740.808 91.0924 740.572 90.593C740.336 90.0936 739.74 89.8799 739.24 90.1157L740.094 91.9242ZM730.233 94.251C729.728 94.4762 729.502 95.0676 729.727 95.5719C729.953 96.0761 730.544 96.3024 731.048 96.0772L730.233 94.251ZM721.7 100.142C722.208 99.9262 722.446 99.3394 722.231 98.8308C722.015 98.3223 721.428 98.0846 720.92 98.3L721.7 100.142ZM711.59 102.154C711.078 102.361 710.83 102.944 711.037 103.456C711.243 103.968 711.826 104.216 712.338 104.009L711.59 102.154ZM703.049 107.671C703.564 107.472 703.821 106.894 703.622 106.378C703.423 105.863 702.845 105.606 702.329 105.805L703.049 107.671ZM692.83 109.388C692.312 109.579 692.047 110.154 692.238 110.672C692.43 111.191 693.005 111.455 693.523 111.264L692.83 109.388ZM683.989 114.714C684.51 114.529 684.782 113.958 684.597 113.437C684.413 112.917 683.841 112.644 683.321 112.829L683.989 114.714ZM673.916 116.104C673.393 116.282 673.114 116.851 673.293 117.373C673.472 117.896 674.04 118.175 674.563 117.996L673.916 116.104ZM664.95 121.225C665.474 121.052 665.759 120.486 665.586 119.962C665.413 119.437 664.847 119.152 664.323 119.326L664.95 121.225ZM654.64 122.468C654.114 122.636 653.824 123.199 653.992 123.725C654.159 124.251 654.722 124.541 655.248 124.373L654.64 122.468ZM645.744 127.361C646.272 127.198 646.567 126.638 646.403 126.11C646.24 125.583 645.68 125.288 645.152 125.451L645.744 127.361ZM635.516 128.392C634.987 128.551 634.687 129.109 634.846 129.638C635.005 130.166 635.563 130.466 636.092 130.307L635.516 128.392ZM626.3 133.212C626.83 133.057 627.134 132.502 626.978 131.972C626.823 131.442 626.268 131.138 625.738 131.293L626.3 133.212ZM616.137 134.067C615.606 134.219 615.298 134.772 615.45 135.304C615.601 135.835 616.155 136.142 616.686 135.991L616.137 134.067ZM607.017 138.717C607.549 138.569 607.86 138.018 607.712 137.486C607.564 136.954 607.012 136.642 606.48 136.791L607.017 138.717ZM596.712 139.483C596.179 139.628 595.865 140.178 596.01 140.711C596.156 141.244 596.705 141.558 597.238 141.413L596.712 139.483ZM587.454 144.052C587.988 143.909 588.305 143.361 588.162 142.827C588.02 142.294 587.472 141.977 586.938 142.119L587.454 144.052ZM577.27 144.676C576.735 144.816 576.416 145.362 576.556 145.897C576.696 146.431 577.242 146.75 577.777 146.611L577.27 144.676ZM568.012 149.145C568.547 149.008 568.869 148.462 568.732 147.928C568.594 147.393 568.049 147.071 567.514 147.208L568.012 149.145ZM557.677 149.718C557.142 149.854 556.818 150.398 556.953 150.933C557.089 151.469 557.632 151.793 558.168 151.657L557.677 149.718ZM548.415 154.107C548.951 153.974 549.277 153.431 549.144 152.895C549.01 152.359 548.467 152.033 547.931 152.167L548.415 154.107ZM538.183 154.58C537.646 154.712 537.319 155.254 537.45 155.79C537.582 156.327 538.124 156.654 538.66 156.523L538.183 154.58ZM528.845 158.921C529.382 158.791 529.711 158.25 529.581 157.714C529.45 157.177 528.91 156.848 528.373 156.978L528.845 158.921ZM518.512 159.36C517.975 159.488 517.644 160.028 517.773 160.565C517.902 161.102 518.442 161.433 518.979 161.304L518.512 159.36ZM509.222 163.636C509.76 163.508 510.092 162.969 509.964 162.432C509.836 161.894 509.297 161.562 508.76 161.69L509.222 163.636ZM498.964 164.01C498.426 164.136 498.093 164.675 498.22 165.212C498.347 165.75 498.885 166.083 499.423 165.956L498.964 164.01ZM489.586 168.267C490.123 168.141 490.457 167.603 490.332 167.065C490.206 166.527 489.668 166.193 489.13 166.319L489.586 168.267ZM479.289 168.615C478.751 168.74 478.417 169.277 478.542 169.815C478.667 170.353 479.204 170.688 479.742 170.563L479.289 168.615ZM469.943 172.835C470.481 172.711 470.816 172.174 470.691 171.636C470.567 171.098 470.03 170.762 469.492 170.887L469.943 172.835ZM459.672 173.154C459.134 173.278 458.798 173.815 458.922 174.353C459.046 174.891 459.583 175.227 460.121 175.103L459.672 173.154ZM450.283 177.367C450.821 177.243 451.157 176.707 451.034 176.168C450.91 175.63 450.373 175.294 449.835 175.418L450.283 177.367ZM440.001 177.676C439.463 177.799 439.127 178.336 439.25 178.874C439.374 179.412 439.91 179.749 440.449 179.625L440.001 177.676ZM430.624 181.879C431.163 181.755 431.499 181.219 431.376 180.68C431.252 180.142 430.716 179.806 430.177 179.929L430.624 181.879ZM420.351 182.184C419.813 182.307 419.477 182.844 419.6 183.382C419.724 183.92 420.26 184.257 420.799 184.133L420.351 182.184ZM410.976 186.39C411.515 186.266 411.851 185.729 411.727 185.191C411.603 184.653 411.066 184.317 410.528 184.44L410.976 186.39ZM400.691 186.706C400.153 186.83 399.818 187.367 399.942 187.905C400.066 188.443 400.603 188.779 401.141 188.655L400.691 186.706ZM391.309 190.927C391.847 190.803 392.182 190.266 392.057 189.728C391.933 189.189 391.395 188.854 390.857 188.979L391.309 190.927ZM381.041 191.259C380.503 191.384 380.169 191.922 380.294 192.46C380.419 192.998 380.957 193.332 381.495 193.207L381.041 191.259ZM371.704 195.494C372.242 195.368 372.576 194.83 372.45 194.292C372.324 193.755 371.785 193.421 371.248 193.547L371.704 195.494ZM361.398 195.865C360.861 195.992 360.528 196.531 360.655 197.068C360.782 197.606 361.321 197.938 361.858 197.811L361.398 195.865ZM352.035 200.143C352.572 200.014 352.904 199.475 352.776 198.938C352.648 198.401 352.108 198.069 351.571 198.197L352.035 200.143ZM341.783 200.542C341.246 200.671 340.915 201.212 341.045 201.748C341.174 202.285 341.714 202.616 342.251 202.487L341.783 200.542ZM332.492 204.85C333.029 204.719 333.358 204.178 333.227 203.642C333.096 203.105 332.555 202.776 332.019 202.907L332.492 204.85ZM322.164 205.322C321.627 205.454 321.3 205.996 321.432 206.532C321.564 207.068 322.106 207.396 322.643 207.264L322.164 205.322ZM312.85 209.696C313.386 209.562 313.711 209.019 313.577 208.483C313.443 207.947 312.9 207.621 312.365 207.755L312.85 209.696ZM302.627 210.209C302.092 210.345 301.768 210.889 301.904 211.424C302.04 211.959 302.584 212.283 303.12 212.147L302.627 210.209ZM293.36 214.645C293.895 214.507 294.217 213.962 294.079 213.427C293.941 212.892 293.395 212.571 292.861 212.709L293.36 214.645ZM283.039 215.266C282.504 215.406 282.185 215.953 282.326 216.487C282.466 217.021 283.013 217.341 283.547 217.2L283.039 215.266ZM273.816 219.781C274.349 219.638 274.666 219.09 274.523 218.557C274.38 218.023 273.832 217.706 273.298 217.849L273.816 219.781ZM263.646 220.46C263.113 220.606 262.799 221.156 262.945 221.689C263.09 222.221 263.64 222.535 264.173 222.39L263.646 220.46ZM254.385 225.094C254.917 224.945 255.228 224.394 255.079 223.862C254.931 223.33 254.379 223.019 253.847 223.168L254.385 225.094ZM244.099 225.923C243.568 226.075 243.261 226.629 243.413 227.16C243.565 227.691 244.118 227.998 244.649 227.846L244.099 225.923ZM235.026 230.633C235.556 230.478 235.86 229.922 235.705 229.392C235.549 228.862 234.994 228.558 234.464 228.714L235.026 230.633ZM224.832 231.576C224.303 231.735 224.003 232.293 224.163 232.822C224.322 233.35 224.88 233.65 225.408 233.491L224.832 231.576ZM215.672 236.465C216.2 236.301 216.495 235.741 216.331 235.214C216.168 234.686 215.608 234.391 215.08 234.554L215.672 236.465ZM205.47 237.577C204.944 237.745 204.654 238.308 204.822 238.834C204.99 239.36 205.553 239.65 206.079 239.482L205.47 237.577ZM196.635 242.545C197.16 242.373 197.445 241.807 197.272 241.283C197.099 240.758 196.534 240.473 196.009 240.646L196.635 242.545ZM186.297 243.902C185.775 244.08 185.495 244.649 185.674 245.171C185.852 245.694 186.42 245.973 186.943 245.795L186.297 243.902ZM177.405 249.108C177.926 248.924 178.199 248.352 178.015 247.832C177.83 247.311 177.259 247.038 176.738 247.222L177.405 249.108ZM167.367 250.601C166.849 250.791 166.583 251.366 166.773 251.884C166.964 252.402 167.538 252.668 168.057 252.478L167.367 250.601ZM158.543 256.046C159.058 255.848 159.316 255.27 159.119 254.754C158.921 254.239 158.343 253.981 157.828 254.178L158.543 256.046ZM148.371 257.879C147.858 258.084 147.609 258.666 147.814 259.179C148.019 259.692 148.601 259.941 149.114 259.736L148.371 257.879ZM139.924 263.498C140.434 263.285 140.673 262.699 140.46 262.189C140.247 261.68 139.661 261.44 139.151 261.654L139.924 263.498ZM129.796 265.672C129.29 265.895 129.061 266.485 129.284 266.991C129.507 267.496 130.097 267.725 130.602 267.503L129.796 265.672ZM121.379 271.676C121.88 271.443 122.097 270.848 121.864 270.348C121.632 269.847 121.037 269.63 120.536 269.863L121.379 271.676ZM111.579 274.146C111.083 274.39 110.879 274.989 111.123 275.485C111.367 275.98 111.966 276.185 112.462 275.941L111.579 274.146ZM103.363 280.56C103.852 280.304 104.041 279.7 103.784 279.21C103.528 278.721 102.924 278.533 102.434 278.789L103.363 280.56ZM93.5385 283.611C93.0569 283.881 92.8854 284.491 93.1556 284.972C93.4258 285.454 94.0353 285.625 94.5169 285.355L93.5385 283.611ZM85.9753 290.321C86.4483 290.036 86.6005 289.421 86.3152 288.948C86.03 288.475 85.4154 288.323 84.9425 288.608L85.9753 290.321ZM76.2054 294.096C75.7434 294.399 75.6142 295.019 75.9168 295.481C76.2194 295.943 76.8392 296.072 77.3012 295.769L76.2054 294.096ZM69.1235 301.364C69.5726 301.042 69.6762 300.418 69.3549 299.968C69.0335 299.519 68.4089 299.416 67.9597 299.737L69.1235 301.364ZM59.7976 305.873C59.3645 306.216 59.2912 306.845 59.6339 307.278C59.9766 307.711 60.6055 307.784 61.0386 307.441L59.7976 305.873ZM53.3552 313.866C53.7687 313.499 53.8071 312.867 53.441 312.454C53.0748 312.04 52.4428 312.002 52.0294 312.368L53.3552 313.866ZM44.6876 319.288C44.2983 319.68 44.3003 320.313 44.692 320.703C45.0837 321.092 45.7169 321.09 46.1062 320.698L44.6876 319.288ZM39.277 328.09C39.636 327.67 39.5868 327.039 39.1671 326.68C38.7475 326.321 38.1162 326.37 37.7572 326.789L39.277 328.09ZM31.534 334.705C31.2117 335.154 31.3141 335.778 31.7626 336.101C32.2112 336.423 32.836 336.32 33.1582 335.872L31.534 334.705ZM27.6998 344.293C27.9767 343.815 27.8138 343.203 27.336 342.926C26.8582 342.649 26.2463 342.812 25.9694 343.29L27.6998 344.293ZM21.3703 352.292C21.1462 352.797 21.3738 353.388 21.8786 353.612C22.3834 353.836 22.9743 353.608 23.1983 353.104L21.3703 352.292ZM19.6887 362.436C19.8522 361.908 19.5571 361.348 19.0296 361.185C18.502 361.021 17.9418 361.316 17.7783 361.844L19.6887 362.436ZM15.3656 371.69C15.2668 372.233 15.6273 372.754 16.1707 372.852C16.714 372.951 17.2346 372.591 17.3334 372.047L15.3656 371.69ZM16.1495 381.926C16.1823 381.375 15.7619 380.902 15.2106 380.869C14.6593 380.836 14.1858 381.256 14.153 381.808L16.1495 381.926ZM835.029 0.759399C834.629 2.36467 834.177 3.95514 833.675 5.53113L835.581 6.13833C836.096 4.522 836.559 2.89042 836.97 1.24337L835.029 0.759399ZM830.063 14.8166C828.697 17.7771 827.146 20.6855 825.416 23.5439L827.127 24.5796C828.894 21.6599 830.481 18.6855 831.879 15.6543L830.063 14.8166ZM819.781 31.855C817.836 34.4398 815.739 36.9825 813.495 39.4845L814.984 40.8197C817.264 38.2774 819.397 35.6906 821.379 33.0576L819.781 31.855ZM806.477 46.7283C804.135 48.9754 801.671 51.1888 799.09 53.3695L800.38 54.8973C802.992 52.691 805.487 50.4495 807.862 48.1715L806.477 46.7283ZM791.238 59.6329C788.607 61.6193 785.877 63.5779 783.05 65.5096L784.179 67.1608C787.03 65.2124 789.786 63.2354 792.443 61.229L791.238 59.6329ZM774.734 70.946C771.877 72.7344 768.936 74.4993 765.916 76.2415L766.915 77.974C769.955 76.2204 772.917 74.4431 775.795 72.6413L774.734 70.946ZM757.331 81.0177C754.409 82.5869 751.422 84.1374 748.371 85.6701L749.269 87.4573C752.335 85.9168 755.339 84.3578 758.277 82.7796L757.331 81.0177ZM739.24 90.1157C736.29 91.5089 733.287 92.8871 730.233 94.251L731.048 96.0772C734.115 94.7078 737.131 93.3237 740.094 91.9242L739.24 90.1157ZM720.92 98.3C717.856 99.5977 714.745 100.882 711.59 102.154L712.338 104.009C715.503 102.733 718.624 101.444 721.7 100.142L720.92 98.3ZM702.329 105.805C699.202 107.01 696.035 108.205 692.83 109.388L693.523 111.264C696.736 110.078 699.912 108.88 703.049 107.671L702.329 105.805ZM683.321 112.829C680.218 113.93 677.082 115.021 673.916 116.104L674.563 117.996C677.736 116.911 680.879 115.817 683.989 114.714L683.321 112.829ZM664.323 119.326C661.124 120.381 657.896 121.429 654.64 122.468L655.248 124.373C658.51 123.332 661.745 122.283 664.95 121.225L664.323 119.326ZM645.152 125.451C641.965 126.438 638.752 127.418 635.516 128.392L636.092 130.307C639.333 129.332 642.551 128.35 645.744 127.361L645.152 125.451ZM625.738 131.293C622.558 132.224 619.358 133.148 616.137 134.067L616.686 135.991C619.911 135.07 623.116 134.144 626.3 133.212L625.738 131.293ZM606.48 136.791C603.243 137.693 599.986 138.591 596.712 139.483L597.238 141.413C600.516 140.519 603.776 139.621 607.017 138.717L606.48 136.791ZM586.938 142.119C583.731 142.976 580.507 143.828 577.27 144.676L577.777 146.611C581.017 145.762 584.243 144.909 587.454 144.052L586.938 142.119ZM567.514 147.208C564.248 148.049 560.969 148.885 557.677 149.718L558.168 151.657C561.462 150.824 564.744 149.986 568.012 149.145L567.514 147.208ZM547.931 152.167C544.693 152.974 541.443 153.779 538.183 154.58L538.66 156.523C541.922 155.72 545.174 154.915 548.415 154.107L547.931 152.167ZM528.373 156.978C525.095 157.774 521.808 158.568 518.512 159.36L518.979 161.304C522.276 160.512 525.565 159.718 528.845 158.921L528.373 156.978ZM508.76 161.69C505.501 162.465 502.236 163.238 498.964 164.01L499.423 165.956C502.696 165.185 505.963 164.411 509.222 163.636L508.76 161.69ZM489.13 166.319C485.855 167.086 482.574 167.851 479.289 168.615L479.742 170.563C483.028 169.798 486.31 169.033 489.586 168.267L489.13 166.319ZM469.492 170.887C466.222 171.643 462.948 172.399 459.672 173.154L460.121 175.103C463.398 174.348 466.672 173.592 469.943 172.835L469.492 170.887ZM449.835 175.418C446.559 176.171 443.281 176.923 440.001 177.676L440.449 179.625C443.728 178.873 447.007 178.12 450.283 177.367L449.835 175.418ZM430.177 179.929C426.902 180.681 423.626 181.432 420.351 182.184L420.799 184.133C424.074 183.381 427.349 182.63 430.624 181.879L430.177 179.929ZM410.528 184.44C407.248 185.195 403.968 185.95 400.691 186.706L401.141 188.655C404.417 187.899 407.696 187.144 410.976 186.39L410.528 184.44ZM390.857 188.979C387.582 189.738 384.31 190.498 381.041 191.259L381.495 193.207C384.762 192.446 388.034 191.686 391.309 190.927L390.857 188.979ZM371.248 193.547C367.96 194.318 364.676 195.091 361.398 195.865L361.858 197.811C365.135 197.037 368.417 196.265 371.704 195.494L371.248 193.547ZM351.571 198.197C348.302 198.976 345.039 199.758 341.783 200.542L342.251 202.487C345.505 201.703 348.767 200.922 352.035 200.143L351.571 198.197ZM332.019 202.907C328.725 203.709 325.44 204.514 322.164 205.322L322.643 207.264C325.917 206.456 329.2 205.652 332.492 204.85L332.019 202.907ZM312.365 207.755C309.108 208.57 305.862 209.387 302.627 210.209L303.12 212.147C306.352 211.327 309.596 210.509 312.85 209.696L312.365 207.755ZM292.861 212.709C289.574 213.557 286.299 214.409 283.039 215.266L283.547 217.2C286.805 216.344 290.076 215.493 293.36 214.645L292.861 212.709ZM273.298 217.849C270.066 218.715 266.848 219.585 263.646 220.46L264.173 222.39C267.372 221.515 270.586 220.646 273.816 219.781L273.298 217.849ZM253.847 223.168C250.58 224.081 247.33 224.999 244.099 225.923L244.649 227.846C247.876 226.923 251.122 226.006 254.385 225.094L253.847 223.168ZM234.464 228.714C231.232 229.661 228.021 230.615 224.832 231.576L225.408 233.491C228.593 232.532 231.8 231.579 235.026 230.633L234.464 228.714ZM215.08 234.554C211.853 235.554 208.649 236.562 205.47 237.577L206.079 239.482C209.252 238.469 212.45 237.463 215.672 236.465L215.08 234.554ZM196.009 240.646C192.743 241.722 189.505 242.808 186.297 243.902L186.943 245.795C190.144 244.703 193.375 243.62 196.635 242.545L196.009 240.646ZM176.738 247.222C173.583 248.339 170.459 249.465 167.367 250.601L168.057 252.478C171.141 251.345 174.257 250.221 177.405 249.108L176.738 247.222ZM157.828 254.178C154.637 255.4 151.484 256.634 148.371 257.879L149.114 259.736C152.218 258.494 155.361 257.264 158.543 256.046L157.828 254.178ZM139.151 261.654C135.987 262.979 132.868 264.319 129.796 265.672L130.602 267.503C133.663 266.154 136.771 264.819 139.924 263.498L139.151 261.654ZM120.536 269.863C117.499 271.275 114.513 272.702 111.579 274.146L112.462 275.941C115.382 274.504 118.355 273.082 121.379 271.676L120.536 269.863ZM102.434 278.789C99.4057 280.377 96.4396 281.984 93.5385 283.611L94.5169 285.355C97.4007 283.738 100.35 282.14 103.363 280.56L102.434 278.789ZM84.9425 288.608C81.9503 290.413 79.0369 292.242 76.2054 294.096L77.3012 295.769C80.1109 293.929 83.0032 292.113 85.9753 290.321L84.9425 288.608ZM67.9597 299.737C65.1429 301.752 62.4209 303.797 59.7976 305.873L61.0386 307.441C63.6353 305.387 66.3314 303.361 69.1235 301.364L67.9597 299.737ZM52.0294 312.368C49.4656 314.638 47.0168 316.945 44.6876 319.288L46.1062 320.698C48.4038 318.386 50.8215 316.109 53.3552 313.866L52.0294 312.368ZM37.7572 326.789C35.5388 329.383 33.4625 332.021 31.534 334.705L33.1582 335.872C35.0522 333.236 37.0934 330.642 39.277 328.09L37.7572 326.789ZM25.9694 343.29C24.2617 346.236 22.7265 349.236 21.3703 352.292L23.1983 353.104C24.5243 350.116 26.0267 347.179 27.6998 344.293L25.9694 343.29ZM17.7783 361.844C16.7794 365.067 15.9729 368.348 15.3656 371.69L17.3334 372.047C17.9261 368.786 18.7134 365.583 19.6887 362.436L17.7783 361.844ZM14.153 381.808C14.051 383.524 13.9997 385.255 13.9997 387.001L15.9997 387.001C15.9997 385.294 16.0499 383.603 16.1495 381.926L14.153 381.808ZM13.5855 388.416C14.3665 389.197 15.6328 389.197 16.4139 388.416L29.1418 375.688C29.9228 374.907 29.9228 373.64 29.1418 372.859C28.3608 372.078 27.0944 372.078 26.3134 372.859L14.9997 384.173L3.68596 372.859C2.90491 372.078 1.63858 372.078 0.857528 372.859C0.0764801 373.64 0.0764806 374.907 0.857529 375.688L13.5855 388.416ZM832.722 5.22752C832.387 6.27996 832.968 7.40498 834.021 7.74033C835.073 8.07568 836.198 7.49437 836.534 6.44194L832.722 5.22752ZM832.787 16.0731C833.25 15.0701 832.811 13.8819 831.808 13.4193C830.805 12.9567 829.617 13.3948 829.155 14.3978L832.787 16.0731ZM824.561 23.0261C823.989 23.971 824.291 25.2007 825.236 25.7727C826.181 26.3447 827.41 26.0424 827.982 25.0975L824.561 23.0261ZM822.178 33.6588C822.842 32.7762 822.665 31.5223 821.782 30.8582C820.9 30.1941 819.646 30.3712 818.982 31.2538L822.178 33.6588ZM812.751 38.8169C812.013 39.6393 812.082 40.9037 812.904 41.6412C813.727 42.3786 814.991 42.3097 815.729 41.4874L812.751 38.8169ZM808.554 48.8931C809.351 48.1284 809.378 46.8624 808.613 46.0653C807.848 45.2682 806.582 45.242 805.785 46.0067L808.554 48.8931ZM798.444 52.6055C797.6 53.3183 797.494 54.5802 798.207 55.424C798.92 56.2678 800.182 56.374 801.026 55.6612L798.444 52.6055ZM793.046 62.0271C793.928 61.3615 794.103 60.1073 793.437 59.2258C792.771 58.3443 791.517 58.1692 790.636 58.8348L793.046 62.0271ZM782.486 64.684C781.574 65.3073 781.34 66.5518 781.963 67.4638C782.587 68.3757 783.831 68.6097 784.743 67.9865L782.486 64.684ZM776.326 73.4889C777.262 72.9028 777.546 71.6687 776.96 70.7324C776.373 69.7962 775.139 69.5123 774.203 70.0984L776.326 73.4889ZM765.416 75.3753C764.459 75.9271 764.131 77.1502 764.683 78.107C765.235 79.0638 766.458 79.3921 767.414 78.8403L765.416 75.3753ZM758.75 83.6605C759.724 83.1378 760.089 81.9253 759.566 80.9522C759.043 79.9791 757.831 79.614 756.858 80.1367L758.75 83.6605ZM747.922 84.7765C746.935 85.2724 746.537 86.4745 747.033 87.4615C747.529 88.4485 748.731 88.8467 749.718 88.3509L747.922 84.7765ZM740.521 92.8285C741.52 92.3568 741.948 91.1648 741.476 90.166C741.004 89.1672 739.812 88.7398 738.813 89.2115L740.521 92.8285ZM729.825 93.3379C728.816 93.7883 728.364 94.971 728.814 95.9796C729.265 96.9882 730.447 97.4407 731.456 96.9903L729.825 93.3379ZM722.09 101.062C723.107 100.632 723.582 99.458 723.152 98.4409C722.721 97.4237 721.547 96.9484 720.53 97.3791L722.09 101.062ZM711.216 101.227C710.192 101.64 709.696 102.805 710.109 103.83C710.523 104.854 711.688 105.35 712.712 104.937L711.216 101.227ZM703.408 108.604C704.439 108.207 704.952 107.049 704.555 106.019C704.158 104.988 703 104.475 701.97 104.872L703.408 108.604ZM692.484 108.45C691.447 108.832 690.918 109.983 691.3 111.019C691.683 112.055 692.833 112.585 693.869 112.202L692.484 108.45ZM684.324 115.656C685.365 115.287 685.909 114.144 685.54 113.103C685.171 112.062 684.027 111.517 682.986 111.887L684.324 115.656ZM673.592 115.158C672.547 115.515 671.989 116.652 672.347 117.697C672.704 118.742 673.841 119.3 674.886 118.942L673.592 115.158ZM665.263 122.174C666.312 121.828 666.882 120.697 666.536 119.648C666.189 118.599 665.058 118.03 664.01 118.376L665.263 122.174ZM654.336 121.516C653.284 121.851 652.703 122.977 653.039 124.029C653.375 125.081 654.5 125.662 655.552 125.326L654.336 121.516ZM646.04 128.317C647.095 127.99 647.685 126.87 647.359 125.815C647.032 124.759 645.912 124.169 644.857 124.496L646.04 128.317ZM635.228 127.434C634.17 127.752 633.571 128.868 633.889 129.926C634.207 130.983 635.322 131.583 636.38 131.265L635.228 127.434ZM626.58 134.172C627.641 133.862 628.248 132.751 627.938 131.691C627.628 130.631 626.517 130.023 625.457 130.333L626.58 134.172ZM615.862 133.106C614.8 133.409 614.185 134.516 614.488 135.578C614.791 136.64 615.898 137.255 616.96 136.952L615.862 133.106ZM607.286 139.681C608.35 139.384 608.972 138.281 608.675 137.217C608.379 136.153 607.276 135.531 606.212 135.827L607.286 139.681ZM596.449 138.518C595.384 138.809 594.755 139.908 595.046 140.974C595.336 142.039 596.436 142.668 597.501 142.377L596.449 138.518ZM587.712 145.018C588.779 144.733 589.413 143.637 589.129 142.57C588.844 141.502 587.748 140.868 586.68 141.153L587.712 145.018ZM577.016 143.708C575.948 143.988 575.309 145.081 575.588 146.15C575.868 147.218 576.961 147.858 578.03 147.578L577.016 143.708ZM568.262 150.114C569.331 149.838 569.975 148.748 569.7 147.678C569.425 146.609 568.335 145.965 567.265 146.24L568.262 150.114ZM557.432 148.749C556.361 149.02 555.713 150.108 555.984 151.179C556.255 152.249 557.342 152.898 558.413 152.627L557.432 148.749ZM548.657 155.077C549.729 154.81 550.381 153.725 550.114 152.653C549.847 151.581 548.761 150.929 547.689 151.196L548.657 155.077ZM537.944 153.609C536.871 153.873 536.216 154.957 536.479 156.029C536.743 157.102 537.827 157.757 538.899 157.494L537.944 153.609ZM529.081 159.893C530.154 159.632 530.813 158.551 530.553 157.478C530.292 156.404 529.21 155.745 528.137 156.006L529.081 159.893ZM518.279 158.387C517.205 158.645 516.543 159.725 516.801 160.799C517.059 161.873 518.139 162.535 519.213 162.277L518.279 158.387ZM509.454 164.609C510.528 164.353 511.192 163.275 510.937 162.2C510.681 161.126 509.603 160.462 508.528 160.717L509.454 164.609ZM498.734 163.036C497.659 163.29 496.993 164.367 497.247 165.442C497.5 166.517 498.577 167.183 499.652 166.93L498.734 163.036ZM489.814 169.24C490.889 168.989 491.557 167.913 491.305 166.837C491.054 165.762 489.978 165.094 488.902 165.346L489.814 169.24ZM479.063 167.641C477.987 167.891 477.318 168.966 477.568 170.042C477.818 171.117 478.893 171.787 479.969 171.537L479.063 167.641ZM470.168 173.81C471.244 173.561 471.915 172.486 471.666 171.41C471.417 170.334 470.343 169.664 469.266 169.913L470.168 173.81ZM459.447 172.18C458.371 172.428 457.7 173.501 457.948 174.578C458.196 175.654 459.269 176.326 460.346 176.078L459.447 172.18ZM450.507 178.342C451.583 178.094 452.256 177.021 452.008 175.944C451.761 174.868 450.688 174.196 449.611 174.443L450.507 178.342ZM439.778 176.701C438.701 176.948 438.029 178.021 438.276 179.098C438.523 180.174 439.596 180.847 440.672 180.6L439.778 176.701ZM430.848 182.853C431.925 182.606 432.597 181.534 432.35 180.457C432.103 179.38 431.03 178.708 429.954 178.955L430.848 182.853ZM420.128 181.209C419.051 181.456 418.379 182.529 418.626 183.606C418.873 184.682 419.946 185.355 421.022 185.108L420.128 181.209ZM411.2 187.364C412.277 187.117 412.949 186.043 412.701 184.967C412.454 183.89 411.38 183.218 410.304 183.466L411.2 187.364ZM400.467 185.731C399.39 185.98 398.719 187.054 398.967 188.13C399.216 189.206 400.289 189.877 401.366 189.629L400.467 185.731ZM391.534 191.902C392.61 191.652 393.281 190.578 393.031 189.502C392.782 188.426 391.708 187.756 390.632 188.005L391.534 191.902ZM380.814 190.285C379.738 190.536 379.07 191.611 379.32 192.687C379.571 193.762 380.646 194.431 381.722 194.181L380.814 190.285ZM371.933 196.468C373.008 196.216 373.675 195.14 373.423 194.064C373.171 192.989 372.095 192.321 371.019 192.574L371.933 196.468ZM361.169 194.892C360.094 195.146 359.428 196.223 359.682 197.298C359.936 198.373 361.013 199.039 362.088 198.785L361.169 194.892ZM352.267 201.115C353.341 200.859 354.005 199.78 353.749 198.706C353.492 197.632 352.414 196.968 351.339 197.224L352.267 201.115ZM341.549 199.57C340.475 199.829 339.814 200.909 340.073 201.983C340.331 203.056 341.411 203.717 342.485 203.459L341.549 199.57ZM332.729 205.821C333.802 205.56 334.46 204.478 334.199 203.405C333.937 202.332 332.855 201.674 331.782 201.935L332.729 205.821ZM321.924 204.351C320.852 204.615 320.197 205.699 320.461 206.772C320.726 207.844 321.81 208.499 322.882 208.235L321.924 204.351ZM313.093 210.666C314.164 210.398 314.816 209.312 314.548 208.24C314.28 207.169 313.194 206.517 312.122 206.785L313.093 210.666ZM302.381 209.24C301.311 209.511 300.663 210.6 300.935 211.67C301.207 212.741 302.295 213.388 303.366 213.117L302.381 209.24ZM293.61 215.613C294.68 215.337 295.323 214.247 295.047 213.177C294.771 212.108 293.68 211.464 292.611 211.74L293.61 215.613ZM282.784 214.299C281.716 214.58 281.078 215.673 281.358 216.741C281.639 217.81 282.733 218.448 283.801 218.168L282.784 214.299ZM274.074 220.747C275.141 220.461 275.775 219.365 275.489 218.298C275.203 217.231 274.107 216.598 273.04 216.883L274.074 220.747ZM263.382 219.496C262.317 219.787 261.689 220.887 261.98 221.952C262.271 223.018 263.371 223.645 264.437 223.354L263.382 219.496ZM254.654 226.057C255.718 225.76 256.34 224.656 256.043 223.593C255.745 222.529 254.642 221.907 253.578 222.205L254.654 226.057ZM243.824 224.962C242.762 225.266 242.148 226.373 242.452 227.435C242.755 228.497 243.862 229.111 244.924 228.808L243.824 224.962ZM235.308 231.593C236.368 231.282 236.975 230.17 236.664 229.111C236.353 228.051 235.242 227.443 234.182 227.754L235.308 231.593ZM224.543 230.618C223.486 230.937 222.887 232.052 223.205 233.11C223.524 234.168 224.639 234.767 225.697 234.448L224.543 230.618ZM215.968 237.42C217.023 237.093 217.613 235.973 217.286 234.918C216.96 233.862 215.839 233.272 214.784 233.599L215.968 237.42ZM205.166 236.624C204.114 236.96 203.533 238.086 203.869 239.138C204.205 240.19 205.331 240.771 206.383 240.435L205.166 236.624ZM196.948 243.495C197.997 243.149 198.568 242.019 198.222 240.97C197.876 239.921 196.745 239.35 195.696 239.696L196.948 243.495ZM185.974 242.956C184.929 243.312 184.371 244.449 184.727 245.494C185.084 246.54 186.22 247.098 187.266 246.741L185.974 242.956ZM177.739 250.051C178.78 249.682 179.326 248.539 178.957 247.498C178.589 246.457 177.446 245.911 176.405 246.28L177.739 250.051ZM167.022 249.662C165.985 250.043 165.454 251.192 165.835 252.229C166.215 253.266 167.365 253.797 168.402 253.416L167.022 249.662ZM158.9 256.98C159.932 256.585 160.448 255.428 160.053 254.397C159.658 253.365 158.501 252.849 157.47 253.244L158.9 256.98ZM147.999 256.951C146.974 257.361 146.475 258.525 146.886 259.551C147.296 260.576 148.46 261.075 149.485 260.665L147.999 256.951ZM140.311 264.421C141.329 263.994 141.809 262.822 141.382 261.803C140.956 260.784 139.784 260.304 138.765 260.731L140.311 264.421ZM129.393 264.757C128.382 265.203 127.923 266.383 128.369 267.394C128.814 268.405 129.995 268.863 131.005 268.418L129.393 264.757ZM121.801 272.583C122.803 272.117 123.237 270.928 122.771 269.926C122.306 268.924 121.116 268.49 120.114 268.956L121.801 272.583ZM111.137 273.249C110.146 273.737 109.738 274.935 110.226 275.926C110.713 276.918 111.912 277.326 112.903 276.838L111.137 273.249ZM103.827 281.446C104.806 280.933 105.183 279.724 104.67 278.746C104.157 277.768 102.948 277.39 101.97 277.903L103.827 281.446ZM93.0493 282.739C92.086 283.279 91.743 284.498 92.2834 285.461C92.8238 286.425 94.0428 286.768 95.0061 286.227L93.0493 282.739ZM86.4918 291.177C87.4376 290.607 87.742 289.378 87.1716 288.432C86.6012 287.486 85.372 287.181 84.4261 287.752L86.4918 291.177ZM75.6575 293.26C74.7335 293.865 74.475 295.104 75.0802 296.029C75.6854 296.953 76.9251 297.211 77.8491 296.606L75.6575 293.26ZM69.7053 302.177C70.6037 301.534 70.8109 300.285 70.1682 299.387C69.5255 298.488 68.2762 298.281 67.3779 298.924L69.7053 302.177ZM59.1771 305.089C58.3109 305.774 58.1643 307.032 58.8497 307.898C59.535 308.764 60.7929 308.911 61.6591 308.226L59.1771 305.089ZM54.0181 314.614C54.8451 313.882 54.9219 312.618 54.1896 311.791C53.4574 310.964 52.1934 310.887 51.3664 311.62L54.0181 314.614ZM43.9783 318.583C43.1997 319.367 43.2036 320.633 43.9871 321.412C44.7705 322.19 46.0369 322.187 46.8155 321.403L43.9783 318.583ZM40.0369 328.74C40.7549 327.9 40.6565 326.638 39.8172 325.92C38.9778 325.202 37.7153 325.3 36.9973 326.139L40.0369 328.74ZM30.7218 334.122C30.0773 335.019 30.2821 336.268 31.1791 336.913C32.0762 337.557 33.3259 337.352 33.9704 336.455L30.7218 334.122ZM28.565 344.794C29.1188 343.838 28.7931 342.615 27.8374 342.061C26.8818 341.507 25.658 341.833 25.1042 342.788L28.565 344.794ZM20.4563 351.887C20.0082 352.896 20.4634 354.078 21.473 354.526C22.4826 354.974 23.6643 354.519 24.1123 353.509L20.4563 351.887ZM20.6439 362.732C20.9709 361.677 20.3807 360.557 19.3256 360.23C18.2705 359.903 17.1502 360.493 16.8232 361.548L20.6439 362.732ZM14.3817 371.511C14.1842 372.598 14.9051 373.639 15.9918 373.836C17.0786 374.034 18.1197 373.313 18.3172 372.226L14.3817 371.511ZM17.1477 381.986C17.2133 380.883 16.3725 379.936 15.2699 379.871C14.1673 379.805 13.2203 380.646 13.1548 381.748L17.1477 381.986ZM834.059 0.517415C833.664 2.10179 833.218 3.67172 832.722 5.22752L836.534 6.44194C837.055 4.80543 837.524 3.1533 837.94 1.48535L834.059 0.517415ZM829.155 14.3978C827.806 17.3229 826.272 20.1983 824.561 23.0261L827.982 25.0975C829.768 22.1471 831.373 19.1397 832.787 16.0731L829.155 14.3978ZM818.982 31.2538C817.055 33.8144 814.976 36.335 812.751 38.8169L815.729 41.4874C818.026 38.9249 820.178 36.316 822.178 33.6588L818.982 31.2538ZM805.785 46.0067C803.459 48.2384 801.011 50.4376 798.444 52.6055L801.026 55.6612C803.652 53.4421 806.164 51.1865 808.554 48.8931L805.785 46.0067ZM790.636 58.8348C788.018 60.8112 785.3 62.7607 782.486 64.684L784.743 67.9865C787.606 66.0296 790.375 64.0435 793.046 62.0271L790.636 58.8348ZM774.203 70.0984C771.357 71.8801 768.427 73.6387 765.416 75.3753L767.414 78.8403C770.465 77.0809 773.436 75.2975 776.326 73.4889L774.203 70.0984ZM756.858 80.1367C753.945 81.7014 750.965 83.2478 747.922 84.7765L749.718 88.3509C752.792 86.8065 755.804 85.2433 758.75 83.6605L756.858 80.1367ZM738.813 89.2115C735.87 90.6015 732.873 91.9768 729.825 93.3379L731.456 96.9903C734.529 95.6182 737.551 94.2311 740.521 92.8285L738.813 89.2115ZM720.53 97.3791C717.471 98.6745 714.366 99.957 711.216 101.227L712.712 104.937C715.882 103.658 719.009 102.367 722.09 101.062L720.53 97.3791ZM701.97 104.872C698.847 106.075 695.684 107.268 692.484 108.45L693.869 112.202C697.087 111.014 700.267 109.815 703.408 108.604L701.97 104.872ZM682.986 111.887C679.887 112.986 676.755 114.076 673.592 115.158L674.886 118.942C678.063 117.856 681.21 116.761 684.324 115.656L682.986 111.887ZM664.01 118.376C660.814 119.431 657.589 120.477 654.336 121.516L655.552 125.326C658.817 124.284 662.055 123.233 665.263 122.174L664.01 118.376ZM644.857 124.496C641.671 125.482 638.462 126.461 635.228 127.434L636.38 131.265C639.624 130.289 642.844 129.306 646.04 128.317L644.857 124.496ZM625.457 130.333C622.279 131.263 619.081 132.187 615.862 133.106L616.96 136.952C620.187 136.031 623.394 135.105 626.58 134.172L625.457 130.333ZM606.212 135.827C602.976 136.729 599.721 137.626 596.449 138.518L597.501 142.377C600.78 141.483 604.042 140.585 607.286 139.681L606.212 135.827ZM586.68 141.153C583.474 142.009 580.253 142.861 577.016 143.708L578.03 147.578C581.272 146.729 584.5 145.875 587.712 145.018L586.68 141.153ZM567.265 146.24C564 147.08 560.722 147.916 557.432 148.749L558.413 152.627C561.709 151.793 564.992 150.955 568.262 150.114L567.265 146.24ZM547.689 151.196C544.452 152.004 541.203 152.808 537.944 153.609L538.899 157.494C542.162 156.691 545.415 155.886 548.657 155.077L547.689 151.196ZM528.137 156.006C524.86 156.802 521.573 157.596 518.279 158.387L519.213 162.277C522.511 161.484 525.8 160.69 529.081 159.893L528.137 156.006ZM508.528 160.717C505.271 161.492 502.006 162.265 498.734 163.036L499.652 166.93C502.926 166.158 506.193 165.384 509.454 164.609L508.528 160.717ZM488.902 165.346C485.628 166.112 482.348 166.877 479.063 167.641L479.969 171.537C483.255 170.772 486.537 170.007 489.814 169.24L488.902 165.346ZM469.266 169.913C465.997 170.669 462.724 171.425 459.447 172.18L460.346 176.078C463.623 175.322 466.897 174.566 470.168 173.81L469.266 169.913ZM449.611 174.443C446.335 175.196 443.057 175.949 439.778 176.701L440.672 180.6C443.952 179.847 447.23 179.095 450.507 178.342L449.611 174.443ZM429.954 178.955C426.679 179.706 423.403 180.457 420.128 181.209L421.022 185.108C424.297 184.356 427.573 183.605 430.848 182.853L429.954 178.955ZM410.304 183.466C407.023 184.22 403.744 184.975 400.467 185.731L401.366 189.629C404.642 188.873 407.92 188.118 411.2 187.364L410.304 183.466ZM390.632 188.005C387.356 188.764 384.083 189.524 380.814 190.285L381.722 194.181C384.989 193.42 388.26 192.66 391.534 191.902L390.632 188.005ZM371.019 192.574C367.731 193.345 364.447 194.117 361.169 194.892L362.088 198.785C365.364 198.011 368.646 197.238 371.933 196.468L371.019 192.574ZM351.339 197.224C348.069 198.004 344.805 198.786 341.549 199.57L342.485 203.459C345.739 202.675 348.999 201.894 352.267 201.115L351.339 197.224ZM331.782 201.935C328.487 202.737 325.201 203.543 321.924 204.351L322.882 208.235C326.155 207.427 329.438 206.623 332.729 205.821L331.782 201.935ZM312.122 206.785C308.865 207.6 305.617 208.418 302.381 209.24L303.366 213.117C306.597 212.296 309.84 211.479 313.093 210.666L312.122 206.785ZM292.611 211.74C289.322 212.589 286.047 213.442 282.784 214.299L283.801 218.168C287.057 217.312 290.327 216.461 293.61 215.613L292.611 211.74ZM273.04 216.883C269.806 217.749 266.586 218.62 263.382 219.496L264.437 223.354C267.634 222.48 270.847 221.612 274.074 220.747L273.04 216.883ZM253.578 222.205C250.309 223.118 247.057 224.037 243.824 224.962L244.924 228.808C248.149 227.885 251.393 226.968 254.654 226.057L253.578 222.205ZM234.182 227.754C230.949 228.702 227.735 229.657 224.543 230.618L225.697 234.448C228.879 233.49 232.083 232.538 235.308 231.593L234.182 227.754ZM214.784 233.599C211.554 234.6 208.348 235.608 205.166 236.624L206.383 240.435C209.553 239.422 212.749 238.418 215.968 237.42L214.784 233.599ZM195.696 239.696C192.427 240.774 189.186 241.86 185.974 242.956L187.266 246.741C190.464 245.65 193.692 244.569 196.948 243.495L195.696 239.696ZM176.405 246.28C173.246 247.397 170.118 248.524 167.022 249.662L168.402 253.416C171.481 252.285 174.594 251.163 177.739 250.051L176.405 246.28ZM157.47 253.244C154.275 254.468 151.117 255.703 147.999 256.951L149.485 260.665C152.584 259.425 155.723 258.197 158.9 256.98L157.47 253.244ZM138.765 260.731C135.596 262.059 132.471 263.401 129.393 264.757L131.005 268.418C134.061 267.072 137.163 265.739 140.311 264.421L138.765 260.731ZM120.114 268.956C117.071 270.371 114.078 271.802 111.137 273.249L112.903 276.838C115.817 275.404 118.783 273.986 121.801 272.583L120.114 268.956ZM101.97 277.903C98.9334 279.495 95.959 281.107 93.0493 282.739L95.0061 286.227C97.8813 284.615 100.822 283.021 103.827 281.446L101.97 277.903ZM84.4261 287.752C81.4238 289.562 78.4998 291.398 75.6575 293.26L77.8491 296.606C80.6479 294.773 83.5297 292.964 86.4918 291.177L84.4261 287.752ZM67.3779 298.924C64.5486 300.948 61.8138 303.003 59.1771 305.089L61.6591 308.226C64.2425 306.182 66.9257 304.166 69.7053 302.177L67.3779 298.924ZM51.3664 311.62C48.7876 313.903 46.3233 316.224 43.9783 318.583L46.8155 321.403C49.0973 319.107 51.4995 316.844 54.0181 314.614L51.3664 311.62ZM36.9973 326.139C34.7615 328.753 32.6677 331.413 30.7218 334.122L33.9704 336.455C35.847 333.843 37.8706 331.272 40.0369 328.74L36.9973 326.139ZM25.1042 342.788C23.3792 345.765 21.8275 348.797 20.4563 351.887L24.1123 353.509C25.4233 350.555 26.9092 347.651 28.565 344.794L25.1042 342.788ZM16.8232 361.548C15.8125 364.809 14.9963 368.129 14.3817 371.511L18.3172 372.226C18.9027 369.005 19.6803 365.841 20.6439 362.732L16.8232 361.548ZM13.1548 381.748C13.0516 383.485 12.9997 385.236 12.9997 387.001L16.9997 387.001C16.9997 385.314 17.0493 383.642 17.1477 381.986L13.1548 381.748Z" fill="#2E3438"/>
</svg>
