<svg width="75" height="385" viewBox="0 0 75 385" fill="none" xmlns="http://www.w3.org/2000/svg">
<path d="M15.3815 376.696C15.2137 377.222 15.5042 377.785 16.0304 377.953L24.605 380.687C25.1311 380.855 25.6937 380.564 25.8615 380.038C26.0293 379.512 25.7388 378.949 25.2126 378.782L17.5908 376.351L20.0213 368.729C20.1891 368.203 19.8986 367.641 19.3724 367.473C18.8462 367.305 18.2837 367.595 18.1159 368.122L15.3815 376.696ZM42.5726 3.80282C42.0998 4.08842 41.9482 4.70315 42.2338 5.17586C42.5194 5.64856 43.1341 5.80024 43.6068 5.51464L42.5726 3.80282ZM35.3087 11.0028C35.7557 10.6784 35.8551 10.0531 35.5307 9.60608C35.2063 9.15909 34.581 9.0597 34.134 9.38408L35.3087 11.0028ZM25.9887 15.9503C25.578 16.3196 25.5444 16.9519 25.9137 17.3626C26.2829 17.7733 26.9152 17.8069 27.3259 17.4376L25.9887 15.9503ZM20.233 24.6212C20.5957 24.2047 20.552 23.573 20.1355 23.2103C19.719 22.8476 19.0874 22.8913 18.7247 23.3078L20.233 24.6212ZM12.499 31.5259C12.1974 31.9885 12.3279 32.6081 12.7906 32.9097C13.2532 33.2114 13.8728 33.0808 14.1744 32.6182L12.499 31.5259ZM9.33553 41.402C9.56489 40.8996 9.34354 40.3064 8.84114 40.0771C8.33873 39.8477 7.74552 40.069 7.51615 40.5714L9.33553 41.402ZM3.93965 50.2844C3.78792 50.8154 4.09541 51.3689 4.62644 51.5206C5.15748 51.6724 5.71097 51.3649 5.86269 50.8338L3.93965 50.2844ZM3.78695 60.7032C3.86342 60.1562 3.48201 59.6508 2.93504 59.5743C2.38808 59.4979 1.88268 59.8793 1.80621 60.4263L3.78695 60.7032ZM1.01464 70.7316C1.00487 71.2838 1.4446 71.7393 1.99679 71.7491C2.54899 71.7589 3.00456 71.3191 3.01433 70.7669L1.01464 70.7316ZM3.36208 80.8588C3.31616 80.3084 2.83277 79.8995 2.28239 79.9454C1.73202 79.9913 1.32308 80.4747 1.369 81.0251L3.36208 80.8588ZM2.65934 91.2294C2.75028 91.7741 3.26561 92.142 3.81035 92.051C4.3551 91.9601 4.72298 91.4448 4.63204 90.9L2.65934 91.2294ZM6.64693 100.854C6.52018 100.316 5.98167 99.9833 5.44412 100.11C4.90658 100.237 4.57356 100.775 4.70031 101.313L6.64693 100.854ZM7.33845 111.269C7.49343 111.8 8.0488 112.104 8.57889 111.949C9.10898 111.794 9.41306 111.238 9.25808 110.708L7.33845 111.269ZM12.3379 120.448C12.1608 119.925 11.5932 119.644 11.07 119.821C10.5469 119.998 10.2664 120.566 10.4435 121.089L12.3379 120.448ZM13.8854 130.712C14.0795 131.229 14.656 131.491 15.1731 131.297C15.6901 131.103 15.9519 130.526 15.7577 130.009L13.8854 130.712ZM19.4699 139.509C19.2626 138.997 18.6796 138.75 18.1677 138.957C17.6557 139.164 17.4088 139.747 17.616 140.259L19.4699 139.509ZM21.5657 149.738C21.7827 150.246 22.3704 150.482 22.8782 150.265C23.386 150.048 23.6218 149.46 23.4047 148.952L21.5657 149.738ZM27.4861 158.313C27.2621 157.808 26.6713 157.58 26.1665 157.804C25.6616 158.028 25.434 158.619 25.6579 159.124L27.4861 158.313ZM29.8506 168.454C30.0789 168.957 30.6717 169.179 31.1746 168.951C31.6774 168.723 31.9 168.13 31.6716 167.627L29.8506 168.454ZM35.9256 176.934C35.6952 176.432 35.1015 176.212 34.5996 176.442C34.0977 176.673 33.8776 177.266 34.1081 177.768L35.9256 176.934ZM38.3779 187.061C38.6083 187.563 39.2019 187.783 39.7039 187.553C40.2058 187.323 40.426 186.729 40.1957 186.227L38.3779 187.061ZM44.4474 195.539C44.2193 195.036 43.6267 194.814 43.1237 195.042C42.6207 195.27 42.3978 195.862 42.6259 196.365L44.4474 195.539ZM46.8089 205.694C47.0324 206.199 47.623 206.427 48.128 206.204C48.6331 205.98 48.8613 205.39 48.6378 204.885L46.8089 205.694ZM52.7135 214.258C52.497 213.75 51.9096 213.513 51.4015 213.73C50.8935 213.946 50.6571 214.534 50.8737 215.042L52.7135 214.258ZM54.8005 224.49C55.0073 225.002 55.5902 225.249 56.1022 225.042C56.6143 224.836 56.8617 224.253 56.6548 223.741L54.8005 224.49ZM60.3863 233.301C60.1921 232.784 59.6156 232.523 59.0986 232.717C58.5815 232.911 58.3198 233.487 58.5139 234.004L60.3863 233.301ZM61.9474 243.584C62.1253 244.107 62.6933 244.387 63.2162 244.209C63.739 244.031 64.0187 243.463 63.8409 242.94L61.9474 243.584ZM66.9599 252.711C66.8027 252.182 66.246 251.88 65.7166 252.037C65.1872 252.194 64.8855 252.751 65.0427 253.28L66.9599 252.711ZM67.7181 263.13C67.8494 263.667 68.3907 263.995 68.9272 263.864C69.4636 263.732 69.7921 263.191 69.6608 262.655L67.7181 263.13ZM71.8177 272.715C71.7187 272.171 71.1979 271.811 70.6546 271.91C70.1112 272.009 69.7511 272.53 69.8502 273.073L71.8177 272.715ZM71.3173 283.1C71.3767 283.649 71.87 284.046 72.4191 283.987C72.9682 283.927 73.3651 283.434 73.3057 282.885L71.3173 283.1ZM73.9779 293.147C73.9666 292.594 73.5098 292.156 72.9577 292.167C72.4055 292.178 71.967 292.635 71.9783 293.187L73.9779 293.147ZM71.673 303.308C71.627 303.858 72.0359 304.342 72.5862 304.388C73.1366 304.434 73.6201 304.025 73.6661 303.475L71.673 303.308ZM72.2043 313.711C72.3154 313.17 71.967 312.642 71.426 312.53C70.885 312.419 70.3563 312.768 70.2452 313.309L72.2043 313.711ZM67.5887 323.019C67.4082 323.541 67.685 324.111 68.2069 324.291C68.7289 324.472 69.2983 324.195 69.4788 323.673L67.5887 323.019ZM65.4561 333.178C65.7052 332.685 65.5075 332.083 65.0146 331.834C64.5216 331.585 63.9201 331.783 63.6711 332.276L65.4561 333.178ZM58.5419 340.945C58.2303 341.401 58.3474 342.023 58.8034 342.335C59.2594 342.646 59.8816 342.529 60.1932 342.073L58.5419 340.945ZM53.8043 350.28C54.1691 349.866 54.1285 349.234 53.7138 348.869C53.2991 348.504 52.6672 348.545 52.3025 348.959L53.8043 350.28ZM45.2687 356.13C44.8621 356.504 44.8353 357.137 45.209 357.543C45.5827 357.95 46.2153 357.977 46.6219 357.603L45.2687 356.13ZM38.777 364.161C39.216 363.826 39.3004 363.198 38.9654 362.759C38.6303 362.32 38.0028 362.236 37.5638 362.571L38.777 364.161ZM29.1658 368.454C28.7016 368.754 28.568 369.373 28.8672 369.837C29.1665 370.301 29.7854 370.435 30.2496 370.135L29.1658 368.454ZM21.5121 375.361C21.9949 375.093 22.1688 374.484 21.9006 374.001C21.6323 373.519 21.0235 373.345 20.5407 373.613L21.5121 375.361ZM47.209 1.1247C45.6162 2.00469 44.071 2.89747 42.5726 3.80282L43.6068 5.51464C45.0825 4.62304 46.6053 3.74316 48.1762 2.87531L47.209 1.1247ZM34.134 9.38408C31.2 11.5133 28.4884 13.7029 25.9887 15.9503L27.3259 17.4376C29.7711 15.2392 32.4281 13.0932 35.3087 11.0028L34.134 9.38408ZM18.7247 23.3078C16.3985 25.9792 14.3285 28.7199 12.499 31.5259L14.1744 32.6182C15.9521 29.8916 17.9661 27.2246 20.233 24.6212L18.7247 23.3078ZM7.51615 40.5714C6.06843 43.7426 4.88316 46.9822 3.93965 50.2844L5.86269 50.8338C6.77946 47.6252 7.93043 44.4798 9.33553 41.402L7.51615 40.5714ZM1.80621 60.4263C1.33329 63.8089 1.07632 67.2458 1.01464 70.7316L3.01433 70.7669C3.07468 67.3562 3.326 64.0002 3.78695 60.7032L1.80621 60.4263ZM1.369 81.0251C1.64965 84.3888 2.08544 87.7917 2.65934 91.2294L4.63204 90.9C4.06633 87.5114 3.63777 84.1631 3.36208 80.8588L1.369 81.0251ZM4.70031 101.313C5.47654 104.605 6.36057 107.925 7.33845 111.269L9.25808 110.708C8.28909 107.394 7.41429 104.108 6.64693 100.854L4.70031 101.313ZM10.4435 121.089C11.5232 124.278 12.6744 127.487 13.8854 130.712L15.7577 130.009C14.5535 126.802 13.4099 123.614 12.3379 120.448L10.4435 121.089ZM17.616 140.259C18.8903 143.407 20.2103 146.567 21.5657 149.738L23.4047 148.952C22.0537 145.791 20.7387 142.643 19.4699 139.509L17.616 140.259ZM25.6579 159.124C27.0347 162.227 28.4354 165.338 29.8506 168.454L31.6716 167.627C30.2581 164.515 28.8599 161.409 27.4861 158.313L25.6579 159.124ZM34.1081 177.768C35.5301 180.865 36.955 183.961 38.3779 187.061L40.1957 186.227C38.7735 183.128 37.3457 180.026 35.9256 176.934L34.1081 177.768ZM42.6259 196.365C44.0367 199.477 45.4341 202.588 46.8089 205.694L48.6378 204.885C47.26 201.771 45.8601 198.655 44.4474 195.539L42.6259 196.365ZM50.8737 215.042C52.2192 218.199 53.5313 221.349 54.8005 224.49L56.6548 223.741C55.3804 220.586 54.0633 217.424 52.7135 214.258L50.8737 215.042ZM58.5139 234.004C59.718 237.211 60.866 240.405 61.9474 243.584L63.8409 242.94C62.752 239.739 61.5969 236.525 60.3863 233.301L58.5139 234.004ZM65.0427 253.28C66.024 256.584 66.9198 259.869 67.7181 263.13L69.6608 262.655C68.8541 259.359 67.9496 256.043 66.9599 252.711L65.0427 253.28ZM69.8502 273.073C70.4653 276.446 70.9589 279.789 71.3173 283.1L73.3057 282.885C72.9417 279.522 72.4408 276.131 71.8177 272.715L69.8502 273.073ZM71.9783 293.187C72.048 296.603 71.9516 299.978 71.673 303.308L73.6661 303.475C73.9508 300.071 74.0489 296.626 73.9779 293.147L71.9783 293.187ZM70.2452 313.309C69.5702 316.596 68.6903 319.834 67.5887 323.019L69.4788 323.673C70.6099 320.402 71.5124 317.08 72.2043 313.711L70.2452 313.309ZM63.6711 332.276C62.1852 335.216 60.4807 338.107 58.5419 340.945L60.1932 342.073C62.1811 339.164 63.9304 336.197 65.4561 333.178L63.6711 332.276ZM52.3025 348.959C50.1605 351.395 47.8196 353.786 45.2687 356.13L46.6219 357.603C49.2231 355.213 51.6137 352.771 53.8043 350.28L52.3025 348.959ZM37.5638 362.571C34.9411 364.572 32.1444 366.534 29.1658 368.454L30.2496 370.135C33.2704 368.188 36.1104 366.196 38.777 364.161L37.5638 362.571ZM20.5407 373.613C19.0253 374.455 17.4704 375.288 15.8754 376.111L16.7931 377.889C18.4057 377.056 19.9785 376.213 21.5121 375.361L20.5407 373.613ZM14.4288 376.392C14.0932 377.445 14.6742 378.57 15.7266 378.905L32.8757 384.374C33.9281 384.71 35.0532 384.129 35.3888 383.076C35.7244 382.024 35.1433 380.899 34.091 380.563L18.8473 375.702L23.7084 360.459C24.044 359.406 23.463 358.281 22.4106 357.945C21.3582 357.61 20.2331 358.191 19.8975 359.243L14.4288 376.392ZM42.0554 2.94691C41.11 3.51811 40.8067 4.74757 41.3779 5.69298C41.9491 6.63839 43.1785 6.94175 44.1239 6.37055L42.0554 2.94691ZM35.8961 11.8121C36.79 11.1633 36.9888 9.91271 36.3401 9.01874C35.6913 8.12477 34.4407 7.92598 33.5467 8.57474L35.8961 11.8121ZM25.3201 15.2067C24.4987 15.9452 24.4315 17.2097 25.17 18.0311C25.9085 18.8525 27.1731 18.9198 27.9945 18.1813L25.3201 15.2067ZM20.9871 25.2779C21.7125 24.4449 21.6252 23.1815 20.7922 22.4562C19.9592 21.7308 18.6959 21.8181 17.9705 22.6511L20.9871 25.2779ZM11.6613 30.9797C11.0581 31.905 11.3191 33.1442 12.2444 33.7474C13.1697 34.3507 14.4088 34.0896 15.0121 33.1644L11.6613 30.9797ZM10.2452 41.8173C10.7039 40.8125 10.2612 39.6261 9.25644 39.1674C8.25162 38.7086 7.06519 39.1513 6.60647 40.1561L10.2452 41.8173ZM2.97813 50.0097C2.67467 51.0717 3.28965 52.1787 4.35172 52.4822C5.41379 52.7856 6.52076 52.1706 6.82422 51.1086L2.97813 50.0097ZM4.77732 60.8416C4.93026 59.7477 4.16743 58.7369 3.0735 58.584C1.97957 58.431 0.968786 59.1939 0.815845 60.2878L4.77732 60.8416ZM0.014799 70.7139C-0.00474226 71.8183 0.874707 72.7294 1.9791 72.7489C3.0835 72.7685 3.99463 71.889 4.01417 70.7846L0.014799 70.7139ZM4.35862 80.7757C4.26677 79.6749 3.29999 78.857 2.19925 78.9489C1.0985 79.0407 0.280626 80.0075 0.372467 81.1083L4.35862 80.7757ZM1.67299 91.394C1.85487 92.4835 2.88553 93.2193 3.97502 93.0374C5.06451 92.8555 5.80027 91.8249 5.61839 90.7354L1.67299 91.394ZM7.62024 100.624C7.36674 99.5492 6.28972 98.8832 5.21463 99.1367C4.13954 99.3902 3.47351 100.467 3.727 101.542L7.62024 100.624ZM6.37863 111.55C6.68861 112.61 7.79934 113.218 8.85953 112.908C9.91971 112.598 10.5279 111.488 10.2179 110.428L6.37863 111.55ZM13.2851 120.127C12.9309 119.081 11.7956 118.52 10.7494 118.874C9.70314 119.228 9.14213 120.364 9.49632 121.41L13.2851 120.127ZM12.9492 131.064C13.3375 132.098 14.4906 132.621 15.5246 132.233C16.5587 131.845 17.0822 130.692 16.6939 129.658L12.9492 131.064ZM20.3968 139.133C19.9822 138.109 18.8162 137.616 17.7924 138.03C16.7685 138.445 16.2746 139.611 16.6891 140.634L20.3968 139.133ZM20.6461 150.131C21.0802 151.147 22.2555 151.618 23.2712 151.184C24.2869 150.75 24.7584 149.575 24.3242 148.559L20.6461 150.131ZM28.4002 157.907C27.9522 156.897 26.7706 156.442 25.7609 156.89C24.7513 157.338 24.2959 158.52 24.7439 159.529L28.4002 157.907ZM28.9401 168.867C29.3968 169.873 30.5824 170.318 31.5881 169.861C32.5938 169.405 33.0388 168.219 32.5821 167.213L28.9401 168.867ZM36.8344 176.516C36.3735 175.513 35.1861 175.072 34.1823 175.533C33.1785 175.994 32.7384 177.182 33.1993 178.185L36.8344 176.516ZM37.469 187.478C37.9297 188.482 39.117 188.923 40.1209 188.462C41.1249 188.001 41.5652 186.814 41.1045 185.81L37.469 187.478ZM45.3582 195.127C44.9021 194.121 43.7168 193.675 42.7108 194.131C41.7048 194.587 41.259 195.772 41.7151 196.778L45.3582 195.127ZM45.8944 206.099C46.3414 207.109 47.5226 207.565 48.5327 207.118C49.5428 206.671 49.9993 205.49 49.5523 204.48L45.8944 206.099ZM53.6335 213.866C53.2004 212.849 52.0255 212.377 51.0094 212.81C49.9933 213.243 49.5207 214.418 49.9538 215.434L53.6335 213.866ZM53.8733 224.864C54.287 225.889 55.4527 226.383 56.4768 225.97C57.501 225.556 57.9958 224.39 57.582 223.366L53.8733 224.864ZM61.3225 232.95C60.9342 231.916 59.7811 231.392 58.747 231.781C57.713 232.169 57.1895 233.322 57.5778 234.356L61.3225 232.95ZM61.0007 243.906C61.3564 244.952 62.4925 245.511 63.5382 245.156C64.5839 244.8 65.1433 243.664 64.7876 242.618L61.0007 243.906ZM67.9185 252.426C67.6041 251.367 66.4908 250.764 65.4319 251.078C64.373 251.393 63.7696 252.506 64.0841 253.565L67.9185 252.426ZM66.7468 263.368C67.0094 264.441 68.092 265.098 69.1649 264.835C70.2378 264.572 70.8947 263.49 70.6321 262.417L66.7468 263.368ZM72.8015 272.535C72.6033 271.449 71.5618 270.728 70.4751 270.927C69.3885 271.125 68.6682 272.166 68.8664 273.253L72.8015 272.535ZM70.3231 283.208C70.442 284.306 71.4286 285.1 72.5267 284.981C73.6249 284.862 74.4187 283.875 74.2999 282.777L70.3231 283.208ZM74.9777 293.126C74.9551 292.022 74.0416 291.145 72.9373 291.167C71.8329 291.19 70.956 292.103 70.9785 293.208L74.9777 293.126ZM70.6765 303.225C70.5845 304.325 71.4022 305.292 72.5029 305.384C73.6036 305.477 74.5705 304.659 74.6626 303.558L70.6765 303.225ZM73.1839 313.912C73.4061 312.83 72.7091 311.773 71.6271 311.551C70.5452 311.329 69.4879 312.026 69.2657 313.108L73.1839 313.912ZM66.6436 322.692C66.2826 323.736 66.8362 324.875 67.8801 325.236C68.924 325.597 70.0629 325.044 70.4239 324L66.6436 322.692ZM66.3487 333.629C66.8468 332.643 66.4514 331.44 65.4655 330.942C64.4797 330.443 63.2767 330.839 62.7785 331.825L66.3487 333.629ZM57.7162 340.381C57.0931 341.293 57.3272 342.537 58.2392 343.16C59.1513 343.783 60.3957 343.549 61.0189 342.637L57.7162 340.381ZM54.5552 350.941C55.2847 350.111 55.2037 348.847 54.3742 348.118C53.5448 347.389 52.2811 347.47 51.5516 348.299L54.5552 350.941ZM44.5921 355.394C43.7788 356.141 43.7253 357.406 44.4727 358.22C45.22 359.033 46.4852 359.087 47.2986 358.339L44.5921 355.394ZM39.3836 364.956C40.2617 364.286 40.4304 363.031 39.7604 362.153C39.0903 361.275 37.8353 361.106 36.9571 361.776L39.3836 364.956ZM28.6239 367.614C27.6956 368.212 27.4282 369.45 28.0268 370.379C28.6253 371.307 29.8631 371.574 30.7915 370.976L28.6239 367.614ZM21.9978 376.235C22.9633 375.699 23.3112 374.481 22.7747 373.516C22.2382 372.55 21.0206 372.202 20.0551 372.739L21.9978 376.235ZM46.7255 0.2494C45.1216 1.13545 43.5653 2.03469 42.0554 2.94691L44.1239 6.37055C45.5883 5.48582 47.0999 4.6124 48.6598 3.75061L46.7255 0.2494ZM33.5467 8.57474C30.5859 10.7234 27.8471 12.9348 25.3201 15.2067L27.9945 18.1813C30.4125 16.0073 33.0422 13.8832 35.8961 11.8121L33.5467 8.57474ZM17.9705 22.6511C15.6148 25.3565 13.5167 28.134 11.6613 30.9797L15.0121 33.1644C16.7639 30.4774 18.7498 27.8473 20.9871 25.2779L17.9705 22.6511ZM6.60647 40.1561C5.13742 43.374 3.93501 46.6606 2.97813 50.0097L6.82422 51.1086C7.72761 47.9467 8.86143 44.8484 10.2452 41.8173L6.60647 40.1561ZM0.815845 60.2878C0.336937 63.7133 0.0771391 67.1907 0.014799 70.7139L4.01417 70.7846C4.07386 67.4114 4.32235 64.0958 4.77732 60.8416L0.815845 60.2878ZM0.372467 81.1083C0.655596 84.5016 1.09499 87.9318 1.67299 91.394L5.61839 90.7354C5.05677 87.3713 4.63183 84.0502 4.35862 80.7757L0.372467 81.1083ZM3.727 101.542C4.50767 104.853 5.3963 108.19 6.37863 111.55L10.2179 110.428C9.25335 107.129 8.38316 103.86 7.62024 100.624L3.727 101.542ZM9.49632 121.41C10.5799 124.611 11.7348 127.83 12.9492 131.064L16.6939 129.658C15.4931 126.46 14.3532 123.282 13.2851 120.127L9.49632 121.41ZM16.6891 140.634C17.9662 143.789 19.2887 146.955 20.6461 150.131L24.3242 148.559C22.9754 145.403 21.6629 142.26 20.3968 139.133L16.6891 140.634ZM24.7439 159.529C26.1221 162.636 27.524 165.749 28.9401 168.867L32.5821 167.213C31.1695 164.103 29.7725 161 28.4002 157.907L24.7439 159.529ZM33.1993 178.185C34.6223 181.285 36.0457 184.377 37.469 187.478L41.1045 185.81C39.6828 182.712 38.2535 179.607 36.8344 176.516L33.1993 178.185ZM41.7151 196.778C43.1251 199.888 44.5212 202.996 45.8944 206.099L49.5523 204.48C48.173 201.363 46.7718 198.245 45.3582 195.127L41.7151 196.778ZM49.9538 215.434C51.2971 218.586 52.6068 221.73 53.8733 224.864L57.582 223.366C56.3049 220.205 54.9853 217.037 53.6335 213.866L49.9538 215.434ZM57.5778 234.356C58.7785 237.554 59.923 240.738 61.0007 243.906L64.7876 242.618C63.695 239.406 62.5363 236.182 61.3225 232.95L57.5778 234.356ZM64.0841 253.565C65.0612 256.855 65.9527 260.124 66.7468 263.368L70.6321 262.417C69.8212 259.104 68.9124 255.773 67.9185 252.426L64.0841 253.565ZM68.8664 273.253C69.4775 276.604 69.9675 279.923 70.3231 283.208L74.2999 282.777C73.933 279.388 73.4285 275.973 72.8015 272.535L68.8664 273.253ZM70.9785 293.208C71.0475 296.591 70.952 299.931 70.6765 303.225L74.6626 303.558C74.9504 300.117 75.0493 296.638 74.9777 293.126L70.9785 293.208ZM69.2657 313.108C68.599 316.353 67.7306 319.549 66.6436 322.692L70.4239 324C71.5697 320.687 72.4835 317.322 73.1839 313.912L69.2657 313.108ZM62.7785 331.825C61.3126 334.726 59.6304 337.579 57.7162 340.381L61.0189 342.637C63.0313 339.692 64.803 336.688 66.3487 333.629L62.7785 331.825ZM51.5516 348.299C49.4338 350.707 47.1179 353.073 44.5921 355.394L47.2986 358.339C49.9248 355.926 52.3404 353.459 54.5552 350.941L51.5516 348.299ZM36.9571 361.776C34.3565 363.76 31.5815 365.707 28.6239 367.614L30.7915 370.976C33.8333 369.014 36.695 367.007 39.3836 364.956L36.9571 361.776ZM20.0551 372.739C18.5487 373.576 17.0028 374.404 15.4165 375.223L17.2519 378.777C18.8733 377.94 20.455 377.092 21.9978 376.235L20.0551 372.739Z" fill="#2E3438"/>
</svg>
