<svg width="83" height="380" viewBox="0 0 83 380" fill="none" xmlns="http://www.w3.org/2000/svg">
<path d="M5.90815 378.241C6.04104 378.777 6.58333 379.104 7.11939 378.971L15.855 376.805C16.391 376.672 16.7178 376.13 16.5849 375.594C16.4521 375.058 15.9098 374.731 15.3737 374.864L7.60876 376.789L5.68376 369.024C5.55087 368.488 5.00857 368.161 4.47252 368.294C3.93646 368.427 3.60963 368.969 3.74252 369.505L5.90815 378.241ZM11.1168 4.69675C11.6198 4.92476 12.2124 4.70183 12.4404 4.19882C12.6685 3.6958 12.4455 3.10318 11.9425 2.87516L11.1168 4.69675ZM20.585 8.25501C20.1438 7.92287 19.5168 8.01132 19.1847 8.45257C18.8525 8.89382 18.941 9.52078 19.3822 9.85292L20.585 8.25501ZM26.853 16.1565C27.2572 16.5329 27.8899 16.5103 28.2663 16.1061C28.6427 15.702 28.6201 15.0692 28.216 14.6928L26.853 16.1565ZM35.2251 21.7789C34.8522 21.3716 34.2196 21.3437 33.8123 21.7166C33.4049 22.0896 33.377 22.7221 33.7499 23.1295L35.2251 21.7789ZM40.1231 30.6019C40.467 31.034 41.0962 31.1055 41.5283 30.7616C41.9604 30.4176 42.0319 29.7885 41.6879 29.3564L40.1231 30.6019ZM47.651 37.3622C47.3351 36.9092 46.7118 36.798 46.2587 37.1138C45.8057 37.4297 45.6945 38.053 46.0104 38.5061L47.651 37.3622ZM51.402 46.7577C51.6903 47.2287 52.3059 47.3769 52.777 47.0886C53.248 46.8003 53.3962 46.1848 53.1079 45.7137L51.402 46.7577ZM58.0625 54.3566C57.8015 53.8699 57.1953 53.6869 56.7086 53.9479C56.2219 54.2089 56.0389 54.8151 56.2999 55.3018L58.0625 54.3566ZM60.7097 64.0987C60.9436 64.5989 61.5388 64.8148 62.0391 64.5809C62.5394 64.3469 62.7553 63.7517 62.5213 63.2514L60.7097 64.0987ZM66.4922 72.3669C66.2851 71.8549 65.7021 71.6078 65.1901 71.815C64.6782 72.0222 64.4311 72.6051 64.6383 73.1171L66.4922 72.3669ZM68.0935 82.3318C68.2741 82.8537 68.8437 83.1303 69.3656 82.9497C69.8875 82.769 70.1641 82.1995 69.9834 81.6776L68.0935 82.3318ZM73.004 91.1632C72.8495 90.6329 72.2944 90.3284 71.7641 90.4829C71.2339 90.6374 70.9293 91.1925 71.0839 91.7228L73.004 91.1632ZM73.6186 101.275C73.7474 101.812 74.2872 102.143 74.8243 102.014C75.3613 101.885 75.6922 101.346 75.5634 100.809L73.6186 101.275ZM77.6629 110.559C77.5591 110.017 77.0353 109.661 76.4928 109.765C75.9504 109.869 75.5947 110.393 75.6985 110.935L77.6629 110.559ZM77.3243 120.601C77.4039 121.147 77.9115 121.526 78.458 121.446C79.0045 121.367 79.3831 120.859 79.3035 120.312L77.3243 120.601ZM80.5228 130.176C80.4667 129.626 79.9759 129.226 79.4265 129.282C78.877 129.338 78.4771 129.829 78.5331 130.379L80.5228 130.176ZM79.3344 140.275C79.3676 140.826 79.8415 141.246 80.3927 141.213C80.944 141.18 81.364 140.706 81.3308 140.155L79.3344 140.275ZM81.73 150.027C81.7185 149.474 81.2615 149.036 80.7093 149.048C80.1572 149.059 79.7189 149.516 79.7305 150.068L81.73 150.027ZM79.7494 159.92C79.7401 160.472 80.1802 160.928 80.7324 160.937C81.2846 160.946 81.7398 160.506 81.7491 159.954L79.7494 159.92ZM81.3967 169.97C81.4261 169.419 81.0029 168.948 80.4514 168.919C79.8999 168.889 79.429 169.312 79.3996 169.864L81.3967 169.97ZM78.7121 179.609C78.6639 180.159 79.0709 180.644 79.6211 180.692C80.1712 180.74 80.6563 180.333 80.7045 179.783L78.7121 179.609ZM79.6664 189.724C79.7328 189.176 79.3421 188.678 78.7938 188.612C78.2456 188.545 77.7473 188.936 77.6809 189.484L79.6664 189.724ZM76.3478 199.214C76.2644 199.76 76.6393 200.27 77.1853 200.353C77.7312 200.437 78.2414 200.062 78.3248 199.516L76.3478 199.214ZM76.674 209.326C76.7738 208.783 76.4142 208.261 75.871 208.162C75.3278 208.062 74.8066 208.422 74.7069 208.965L76.674 209.326ZM72.7862 218.644C72.6711 219.184 73.0156 219.716 73.5558 219.831C74.0959 219.946 74.6271 219.601 74.7423 219.061L72.7862 218.644ZM72.542 228.735C72.6717 228.198 72.3416 227.658 71.8048 227.528C71.268 227.398 70.7276 227.729 70.5979 228.265L72.542 228.735ZM68.1525 237.839C68.009 238.372 68.325 238.921 68.8583 239.064C69.3916 239.208 69.9403 238.892 70.0838 238.359L68.1525 237.839ZM67.3859 247.91C67.5425 247.38 67.2401 246.824 66.7104 246.667C66.1808 246.511 65.6245 246.813 65.4679 247.343L67.3859 247.91ZM62.5608 256.765C62.3918 257.291 62.6811 257.854 63.2069 258.023C63.7327 258.192 64.2959 257.902 64.4649 257.377L62.5608 256.765ZM61.308 266.833C61.4887 266.311 61.2121 265.742 60.6903 265.561C60.1684 265.38 59.5988 265.657 59.4181 266.179L61.308 266.833ZM56.1097 275.413C55.918 275.931 56.1825 276.507 56.7004 276.698C57.2183 276.89 57.7936 276.626 57.9854 276.108L56.1097 275.413ZM54.3948 285.507C54.5972 284.993 54.3447 284.412 53.8308 284.21C53.3169 284.007 52.7363 284.26 52.5339 284.774L54.3948 285.507ZM48.881 293.794C48.6688 294.304 48.9102 294.89 49.4201 295.102C49.93 295.314 50.5154 295.073 50.7275 294.563L48.881 293.794ZM46.7939 303.771C47.0156 303.265 46.7852 302.676 46.2794 302.454C45.7735 302.232 45.1837 302.463 44.9621 302.968L46.7939 303.771ZM40.9388 311.932C40.7082 312.434 40.9282 313.028 41.43 313.258C41.9319 313.489 42.5256 313.269 42.7562 312.767L40.9388 311.932ZM38.5494 321.721C38.7885 321.224 38.5786 320.626 38.0807 320.387C37.5829 320.148 36.9855 320.358 36.7465 320.856L38.5494 321.721ZM32.3308 329.861C32.0836 330.355 32.2836 330.955 32.7774 331.203C33.2713 331.45 33.8721 331.25 34.1193 330.756L32.3308 329.861ZM29.6854 339.446C29.9401 338.956 29.7494 338.352 29.2594 338.097C28.7693 337.842 28.1656 338.033 27.9108 338.523L29.6854 339.446ZM23.2589 347.308C22.9968 347.794 23.1784 348.401 23.6646 348.663C24.1507 348.925 24.7573 348.744 25.0194 348.257L23.2589 347.308ZM20.2291 356.991C20.4981 356.508 20.3252 355.899 19.8429 355.63C19.3606 355.361 18.7515 355.534 18.4825 356.016L20.2291 356.991ZM13.6615 364.521C13.3859 365 13.5505 365.611 14.0291 365.887C14.5077 366.162 15.1191 365.998 15.3947 365.519L13.6615 364.521ZM10.3434 374.156C10.6254 373.682 10.469 373.068 9.99408 372.786C9.5192 372.504 8.90565 372.66 8.62369 373.135L10.3434 374.156ZM7.50446 3.78011C7.48646 3.79454 7.68205 3.65891 8.40929 3.77939C9.0754 3.88974 9.98275 4.18269 11.1168 4.69675L11.9425 2.87516C10.7259 2.32366 9.64115 1.95621 8.73617 1.80629C7.89231 1.66649 6.93776 1.6707 6.25296 2.22005L7.50446 3.78011ZM19.3822 9.85292C21.6805 11.5829 24.1955 13.6818 26.853 16.1565L28.216 14.6928C25.5114 12.1743 22.9432 10.0301 20.585 8.25501L19.3822 9.85292ZM33.7499 23.1295C35.8415 25.414 37.9757 27.904 40.1231 30.6019L41.6879 29.3564C39.5119 26.6225 37.3477 24.0975 35.2251 21.7789L33.7499 23.1295ZM46.0104 38.5061C47.8234 41.1064 49.6265 43.8565 51.402 46.7577L53.1079 45.7137C51.3115 42.7782 49.4866 39.9949 47.651 37.3622L46.0104 38.5061ZM56.2999 55.3018C57.8084 58.1148 59.2824 61.0468 60.7097 64.0987L62.5213 63.2514C61.0785 60.1661 59.5881 57.2015 58.0625 54.3566L56.2999 55.3018ZM64.6383 73.1171C65.8409 76.0892 66.9957 79.1605 68.0935 82.3318L69.9834 81.6776C68.8744 78.4738 67.7076 75.3704 66.4922 72.3669L64.6383 73.1171ZM71.0839 91.7228C71.9869 94.8212 72.8341 98.0051 73.6186 101.275L75.5634 100.809C74.7715 97.5073 73.9159 94.2923 73.004 91.1632L71.0839 91.7228ZM75.6985 110.935C76.3008 114.084 76.8446 117.306 77.3243 120.601L79.3035 120.312C78.8194 116.988 78.2707 113.737 77.6629 110.559L75.6985 110.935ZM78.5331 130.379C78.8631 133.612 79.1317 136.911 79.3344 140.275L81.3308 140.155C81.1264 136.763 80.8555 133.437 80.5228 130.176L78.5331 130.379ZM79.7305 150.068C79.7981 153.296 79.8056 156.58 79.7494 159.92L81.7491 159.954C81.8057 156.588 81.7981 153.279 81.73 150.027L79.7305 150.068ZM79.3996 169.864C79.2291 173.063 79.0009 176.311 78.7121 179.609L80.7045 179.783C80.9953 176.463 81.2251 173.192 81.3967 169.97L79.3996 169.864ZM77.6809 189.484C77.2937 192.683 76.8501 195.926 76.3478 199.214L78.3248 199.516C78.8303 196.208 79.2767 192.944 79.6664 189.724L77.6809 189.484ZM74.7069 208.965C74.1219 212.152 73.4823 215.378 72.7862 218.644L74.7423 219.061C75.4423 215.777 76.0856 212.531 76.674 209.326L74.7069 208.965ZM70.5979 228.265C69.8355 231.421 69.0209 234.612 68.1525 237.839L70.0838 238.359C70.9566 235.115 71.7755 231.907 72.542 228.735L70.5979 228.265ZM65.4679 247.343C64.5487 250.452 63.5802 253.592 62.5608 256.765L64.4649 257.377C65.489 254.189 66.4622 251.034 67.3859 247.91L65.4679 247.343ZM59.4181 266.179C58.3621 269.228 57.2597 272.307 56.1097 275.413L57.9854 276.108C59.1402 272.988 60.2473 269.896 61.308 266.833L59.4181 266.179ZM52.5339 284.774C51.3599 287.755 50.1426 290.762 48.881 293.794L50.7275 294.563C51.994 291.519 53.2161 288.5 54.3948 285.507L52.5339 284.774ZM44.9621 302.968C43.6632 305.933 42.3224 308.92 40.9388 311.932L42.7562 312.767C44.1446 309.745 45.4902 306.746 46.7939 303.771L44.9621 302.968ZM36.7465 320.856C35.3163 323.835 33.8447 326.836 32.3308 329.861L34.1193 330.756C35.638 327.722 37.1144 324.71 38.5494 321.721L36.7465 320.856ZM27.9108 338.523C26.3991 341.431 24.8487 344.359 23.2589 347.308L25.0194 348.257C26.6138 345.3 28.1689 342.363 29.6854 339.446L27.9108 338.523ZM18.4825 356.016C16.9112 358.833 15.3045 361.668 13.6615 364.521L15.3947 365.519C17.0421 362.658 18.6534 359.815 20.2291 356.991L18.4825 356.016ZM8.62369 373.135C7.76576 374.58 6.89865 376.03 6.02229 377.484L7.73524 378.516C8.61386 377.058 9.48322 375.605 10.3434 374.156L8.62369 373.135ZM4.93753 378.481C5.20332 379.553 6.2879 380.207 7.36002 379.941L24.8311 375.61C25.9033 375.344 26.5569 374.26 26.2911 373.188C26.0253 372.115 24.9408 371.462 23.8686 371.728L8.33875 375.578L4.48875 360.048C4.22297 358.976 3.13838 358.322 2.06627 358.588C0.994151 358.853 0.340493 359.938 0.60628 361.01L4.93753 378.481ZM10.7039 5.60754C11.71 6.06358 12.8952 5.61771 13.3512 4.61168C13.8073 3.60564 13.3614 2.4204 12.3554 1.96437L10.7039 5.60754ZM21.1864 7.45606C20.3039 6.79178 19.05 6.96868 18.3857 7.85118C17.7214 8.73368 17.8983 9.98759 18.7808 10.6519L21.1864 7.45606ZM26.1715 16.8883C26.9798 17.6411 28.2454 17.596 28.9981 16.7876C29.7509 15.9793 29.7058 14.7137 28.8974 13.961L26.1715 16.8883ZM35.9627 21.1037C35.2168 20.289 33.9517 20.2332 33.137 20.979C32.3223 21.7249 32.2665 22.99 33.0124 23.8047L35.9627 21.1037ZM39.3407 31.2247C40.0286 32.0889 41.2868 32.2319 42.151 31.544C43.0153 30.8561 43.1582 29.5979 42.4703 28.7336L39.3407 31.2247ZM48.4713 36.7903C47.8395 35.8842 46.5929 35.6618 45.6868 36.2935C44.7807 36.9253 44.5583 38.1719 45.1901 39.078L48.4713 36.7903ZM50.5491 47.2797C51.1257 48.2218 52.3568 48.5181 53.299 47.9416C54.2411 47.365 54.5375 46.1338 53.9609 45.1917L50.5491 47.2797ZM58.9437 53.884C58.4217 52.9106 57.2094 52.5446 56.236 53.0666C55.2626 53.5887 54.8966 54.801 55.4186 55.7744L58.9437 53.884ZM59.8038 64.5223C60.2717 65.5229 61.4622 65.9546 62.4627 65.4867C63.4633 65.0188 63.8951 63.8284 63.4272 62.8278L59.8038 64.5223ZM67.4192 71.9918C67.0049 70.9679 65.8389 70.4737 64.815 70.888C63.7911 71.3023 63.2969 72.4683 63.7113 73.4922L67.4192 71.9918ZM67.1485 82.6589C67.5098 83.7027 68.6489 84.256 69.6927 83.8947C70.7365 83.5333 71.2898 82.3943 70.9284 81.3505L67.1485 82.6589ZM73.964 90.8834C73.655 89.8229 72.5448 89.2138 71.4843 89.5229C70.4239 89.8319 69.8148 90.9421 70.1238 92.0026L73.964 90.8834ZM72.6462 101.508C72.9038 102.582 73.9834 103.244 75.0575 102.987C76.1316 102.729 76.7935 101.649 76.5358 100.575L72.6462 101.508ZM78.6451 110.372C78.4376 109.287 77.3899 108.575 76.305 108.783C75.2201 108.99 74.5088 110.038 74.7163 111.123L78.6451 110.372ZM76.3348 120.745C76.4939 121.838 77.5091 122.595 78.6021 122.436C79.6951 122.277 80.4522 121.261 80.293 120.168L76.3348 120.745ZM81.5176 130.074C81.4055 128.975 80.4238 128.175 79.3249 128.288C78.2261 128.4 77.4262 129.381 77.5383 130.48L81.5176 130.074ZM78.3362 140.335C78.4026 141.438 79.3503 142.278 80.4529 142.211C81.5555 142.145 82.3954 141.197 82.329 140.095L78.3362 140.335ZM82.7298 150.006C82.7067 148.901 81.7927 148.025 80.6884 148.048C79.5841 148.071 78.7076 148.985 78.7307 150.089L82.7298 150.006ZM78.7495 159.903C78.731 161.008 79.6112 161.918 80.7156 161.937C81.82 161.955 82.7304 161.075 82.749 159.971L78.7495 159.903ZM82.3953 170.024C82.4541 168.921 81.6076 167.979 80.5046 167.92C79.4016 167.861 78.4598 168.708 78.401 169.811L82.3953 170.024ZM77.7159 179.521C77.6196 180.622 78.4334 181.592 79.5338 181.688C80.6342 181.785 81.6043 180.971 81.7007 179.87L77.7159 179.521ZM80.6592 189.845C80.7919 188.748 80.0106 187.752 78.914 187.619C77.8174 187.486 76.8209 188.267 76.6882 189.364L80.6592 189.845ZM75.3593 199.063C75.1924 200.155 75.9423 201.175 77.0342 201.342C78.1261 201.509 79.1465 200.759 79.3134 199.667L75.3593 199.063ZM77.6576 209.506C77.857 208.42 77.138 207.378 76.0516 207.178C74.9652 206.979 73.9228 207.698 73.7234 208.784L77.6576 209.506ZM71.8082 218.436C71.5779 219.516 72.267 220.578 73.3473 220.809C74.4276 221.039 75.49 220.35 75.7203 219.27L71.8082 218.436ZM73.514 228.97C73.7734 227.896 73.1133 226.816 72.0397 226.556C70.966 226.297 69.8853 226.957 69.6259 228.03L73.514 228.97ZM67.1869 237.579C66.8998 238.646 67.5318 239.743 68.5984 240.03C69.665 240.317 70.7624 239.685 71.0494 238.618L67.1869 237.579ZM68.3448 248.193C68.658 247.134 68.0532 246.022 66.994 245.708C65.9348 245.395 64.8222 246 64.509 247.059L68.3448 248.193ZM61.6087 256.459C61.2708 257.511 61.8494 258.637 62.901 258.975C63.9526 259.313 65.0791 258.734 65.4169 257.683L61.6087 256.459ZM62.253 267.16C62.6144 266.116 62.0612 264.977 61.0175 264.616C59.9737 264.254 58.8346 264.808 58.4731 265.851L62.253 267.16ZM55.1719 275.066C54.7885 276.102 55.3174 277.253 56.3533 277.636C57.3892 278.02 58.5397 277.491 58.9232 276.455L55.1719 275.066ZM55.3253 285.873C55.73 284.845 55.2249 283.684 54.1972 283.279C53.1694 282.875 52.0082 283.38 51.6035 284.407L55.3253 285.873ZM47.9577 293.41C47.5334 294.43 48.0162 295.601 49.036 296.025C50.0558 296.449 51.2265 295.967 51.6508 294.947L47.9577 293.41ZM47.7098 304.173C48.1532 303.161 47.6924 301.981 46.6807 301.538C45.669 301.095 44.4895 301.555 44.0462 302.567L47.7098 304.173ZM40.0301 311.515C39.569 312.518 40.0088 313.706 41.0125 314.167C42.0163 314.628 43.2037 314.188 43.6649 313.184L40.0301 311.515ZM39.4509 322.154C39.929 321.159 39.5093 319.964 38.5135 319.486C37.5178 319.008 36.323 319.427 35.845 320.423L39.4509 322.154ZM31.4366 329.413C30.9422 330.401 31.3421 331.602 32.3298 332.097C33.3176 332.591 34.5191 332.191 35.0135 331.204L31.4366 329.413ZM30.5726 339.907C31.0821 338.927 30.7007 337.719 29.7206 337.21C28.7406 336.7 27.5331 337.082 27.0236 338.062L30.5726 339.907ZM22.3787 346.834C21.8545 347.806 22.2178 349.019 23.19 349.543C24.1623 350.067 25.3754 349.704 25.8996 348.732L22.3787 346.834ZM21.1024 357.478C21.6405 356.513 21.2947 355.295 20.3301 354.757C19.3655 354.219 18.1473 354.565 17.6091 355.529L21.1024 357.478ZM12.7949 364.022C12.2437 364.979 12.5729 366.202 13.5301 366.753C14.4873 367.304 15.7101 366.975 16.2613 366.018L12.7949 364.022ZM11.2033 374.667C11.7672 373.717 11.4544 372.49 10.5046 371.926C9.55485 371.362 8.32776 371.675 7.76383 372.625L11.2033 374.667ZM8.1302 4.56013C7.92233 4.72689 7.75986 4.73734 7.79865 4.7326C7.83569 4.72808 7.97446 4.72098 8.24585 4.76595C8.79252 4.85651 9.61119 5.11221 10.7039 5.60754L12.3554 1.96437C11.0974 1.39414 9.92403 0.989446 8.89961 0.819732C7.99744 0.670273 6.66341 0.608777 5.62721 1.44003L8.1302 4.56013ZM18.7808 10.6519C21.0492 12.3594 23.5376 14.4356 26.1715 16.8883L28.8974 13.961C26.1694 11.4206 23.5745 9.25366 21.1864 7.45606L18.7808 10.6519ZM33.0124 23.8047C35.0883 26.0723 37.2076 28.5448 39.3407 31.2247L42.4703 28.7336C40.28 25.9817 38.1009 23.4392 35.9627 21.1037L33.0124 23.8047ZM45.1901 39.078C46.9918 41.6622 48.7841 44.3956 50.5491 47.2797L53.9609 45.1917C52.154 42.2391 50.3181 39.4391 48.4713 36.7903L45.1901 39.078ZM55.4186 55.7744C56.9186 58.5715 58.3844 61.4871 59.8038 64.5223L63.4272 62.8278C61.9765 59.7258 60.4779 56.7449 58.9437 53.884L55.4186 55.7744ZM63.7113 73.4922C64.9076 76.4485 66.0563 79.5039 67.1485 82.6589L70.9284 81.3505C69.8138 78.1304 68.641 75.0111 67.4192 71.9918L63.7113 73.4922ZM70.1238 92.0026C71.0223 95.0856 71.8655 98.254 72.6462 101.508L76.5358 100.575C75.7401 97.2583 74.8805 94.0279 73.964 90.8834L70.1238 92.0026ZM74.7163 111.123C75.3158 114.257 75.8571 117.464 76.3348 120.745L80.293 120.168C79.8068 116.829 79.2557 113.564 78.6451 110.372L74.7163 111.123ZM77.5383 130.48C77.8668 133.7 78.1343 136.985 78.3362 140.335L82.329 140.095C82.1237 136.689 81.8518 133.349 81.5176 130.074L77.5383 130.48ZM78.7307 150.089C78.798 153.304 78.8055 156.575 78.7495 159.903L82.749 159.971C82.8058 156.593 82.7982 153.271 82.7298 150.006L78.7307 150.089ZM78.401 169.811C78.2311 172.998 78.0038 176.235 77.7159 179.521L81.7007 179.87C81.9924 176.539 82.223 173.257 82.3953 170.024L78.401 169.811ZM76.6882 189.364C76.3022 192.553 75.8601 195.786 75.3593 199.063L79.3134 199.667C79.8204 196.349 80.2682 193.075 80.6592 189.845L76.6882 189.364ZM73.7234 208.784C73.1401 211.962 72.5023 215.179 71.8082 218.436L75.7203 219.27C76.4223 215.976 77.0674 212.721 77.6576 209.506L73.7234 208.784ZM69.6259 228.03C68.8655 231.178 68.0531 234.36 67.1869 237.579L71.0494 238.618C71.9245 235.367 72.7455 232.151 73.514 228.97L69.6259 228.03ZM64.509 247.059C63.592 250.16 62.6257 253.294 61.6087 256.459L65.4169 257.683C66.4434 254.488 67.4189 251.325 68.3448 248.193L64.509 247.059ZM58.4731 265.851C57.4195 268.894 56.3195 271.966 55.1719 275.066L58.9232 276.455C60.0804 273.328 61.19 270.23 62.253 267.16L58.4731 265.851ZM51.6035 284.407C50.4318 287.383 49.2169 290.384 47.9577 293.41L51.6508 294.947C52.9197 291.897 54.1442 288.872 55.3253 285.873L51.6035 284.407ZM44.0462 302.567C42.7496 305.526 41.4112 308.508 40.0301 311.515L43.6649 313.184C45.0557 310.157 46.4038 307.153 47.7098 304.173L44.0462 302.567ZM35.845 320.423C34.4172 323.397 32.948 326.394 31.4366 329.413L35.0135 331.204C36.5347 328.165 38.0135 325.148 39.4509 322.154L35.845 320.423ZM27.0236 338.062C25.5142 340.965 23.9661 343.889 22.3787 346.834L25.8996 348.732C27.4964 345.77 29.0539 342.828 30.5726 339.907L27.0236 338.062ZM17.6091 355.529C16.0402 358.342 14.4356 361.173 12.7949 364.022L16.2613 366.018C17.911 363.153 19.5245 360.306 21.1024 357.478L17.6091 355.529ZM7.76383 372.625C6.90703 374.068 6.04105 375.515 5.16581 376.968L8.59172 379.032C9.47147 377.573 10.342 376.118 11.2033 374.667L7.76383 372.625Z" fill="#2E3438"/>
</svg>
