<svg width="814" height="307" viewBox="0 0 814 307" fill="none" xmlns="http://www.w3.org/2000/svg">
<path d="M799.351 305.76C799.772 306.119 800.403 306.068 800.761 305.648L806.6 298.8C806.959 298.379 806.908 297.748 806.488 297.39C806.068 297.032 805.437 297.082 805.078 297.502L799.888 303.59L793.8 298.399C793.38 298.041 792.749 298.091 792.391 298.511C792.032 298.932 792.082 299.563 792.503 299.921L799.351 305.76ZM3.25811 5.82362C3.52828 6.30531 4.13779 6.47677 4.61948 6.2066C5.10117 5.93643 5.27264 5.32692 5.00246 4.84523L3.25811 5.82362ZM10.608 12.844C10.2511 12.4225 9.62008 12.3701 9.1986 12.727C8.77711 13.0839 8.72475 13.7149 9.08164 14.1364L10.608 12.844ZM16.0501 21.2277C16.4627 21.5947 17.0948 21.5578 17.4619 21.1451C17.829 20.7325 17.792 20.1004 17.3793 19.7333L16.0501 21.2277ZM24.9825 25.7802C24.5336 25.4585 23.9089 25.5615 23.5871 26.0104C23.2653 26.4593 23.3684 27.084 23.8173 27.4058L24.9825 25.7802ZM32.3345 32.9792C32.808 33.2635 33.4223 33.1101 33.7066 32.6366C33.9909 32.1631 33.8375 31.5488 33.364 31.2645L32.3345 32.9792ZM41.748 35.9486C41.2583 35.6932 40.6543 35.8832 40.3989 36.3729C40.1435 36.8625 40.3334 37.4665 40.8231 37.7219L41.748 35.9486ZM49.9877 42.2043C50.4895 42.435 51.0833 42.2153 51.314 41.7135C51.5447 41.2117 51.3249 40.6179 50.8231 40.3872L49.9877 42.2043ZM59.6309 44.2283C59.1206 44.0169 58.5356 44.2591 58.3242 44.7693C58.1128 45.2796 58.3551 45.8646 58.8653 46.076L59.6309 44.2283ZM68.2479 49.7791C68.7648 49.9737 69.3415 49.7125 69.5361 49.1956C69.7307 48.6787 69.4695 48.102 68.9526 47.9074L68.2479 49.7791ZM78.1329 51.2211C77.611 51.0403 77.0414 51.3168 76.8606 51.8386C76.6798 52.3605 76.9563 52.9301 77.4782 53.1109L78.1329 51.2211ZM86.8894 56.2486C87.4153 56.4175 87.9784 56.1281 88.1473 55.6023C88.3162 55.0764 88.0268 54.5133 87.501 54.3444L86.8894 56.2486ZM97.0564 57.3069C96.5273 57.1485 95.9699 57.4489 95.8114 57.9779C95.653 58.507 95.9534 59.0643 96.4824 59.2228L97.0564 57.3069ZM105.846 61.9419C106.378 62.0917 106.93 61.7821 107.08 61.2505C107.23 60.7189 106.92 60.1666 106.389 60.0168L105.846 61.9419ZM116.048 62.6589C115.514 62.517 114.967 62.8347 114.825 63.3685C114.683 63.9022 115.001 64.4499 115.534 64.5918L116.048 62.6589ZM125.086 67.0641C125.622 67.1992 126.165 66.8746 126.3 66.3391C126.435 65.8036 126.111 65.2599 125.575 65.1249L125.086 67.0641ZM135.105 67.4708C134.568 67.3417 134.028 67.6724 133.899 68.2094C133.77 68.7464 134.1 69.2863 134.637 69.4154L135.105 67.4708ZM144.435 71.7176C144.974 71.8413 145.51 71.5052 145.634 70.9669C145.757 70.4286 145.421 69.892 144.883 69.7684L144.435 71.7176ZM154.437 71.9191C153.898 71.8001 153.364 72.1408 153.245 72.6801C153.126 73.2195 153.467 73.7531 154.007 73.8721L154.437 71.9191ZM163.64 75.9577C164.181 76.0725 164.712 75.7276 164.826 75.1874C164.941 74.6472 164.596 74.1162 164.056 74.0014L163.64 75.9577ZM173.867 76.0495C173.326 75.9385 172.797 76.2871 172.686 76.8281C172.575 77.3691 172.924 77.8976 173.465 78.0086L173.867 76.0495ZM183.107 79.9554C183.648 80.063 184.175 79.7112 184.282 79.1695C184.39 78.6278 184.038 78.1014 183.497 77.9937L183.107 79.9554ZM193.149 79.8846C192.607 79.7799 192.083 80.1346 191.978 80.6768C191.873 81.2191 192.228 81.7436 192.77 81.8483L193.149 79.8846ZM202.583 83.7175C203.125 83.8195 203.648 83.4622 203.75 82.9195C203.852 82.3767 203.495 81.854 202.952 81.7519L202.583 83.7175ZM212.68 83.5585C212.137 83.4588 211.616 83.8184 211.516 84.3616C211.417 84.9048 211.776 85.426 212.319 85.5257L212.68 83.5585ZM221.988 87.2806C222.532 87.3782 223.052 87.0167 223.149 86.4731C223.247 85.9295 222.885 85.4097 222.342 85.3121L221.988 87.2806ZM232.12 87.0505C231.576 86.9548 231.058 87.3181 230.962 87.862C230.866 88.4059 231.229 88.9245 231.773 89.0202L232.12 87.0505ZM241.605 90.7359C242.149 90.8301 242.666 90.4653 242.761 89.9211C242.855 89.3769 242.49 88.8594 241.946 88.7652L241.605 90.7359ZM251.607 90.4239C251.063 90.3311 250.546 90.6972 250.453 91.2417C250.36 91.7861 250.727 92.3027 251.271 92.3954L251.607 90.4239ZM261.027 94.0466C261.572 94.1382 262.087 93.7709 262.179 93.2263C262.271 92.6816 261.903 92.1659 261.359 92.0743L261.027 94.0466ZM271.195 93.7185C270.65 93.6279 270.135 93.9962 270.044 94.541C269.954 95.0858 270.322 95.6008 270.867 95.6914L271.195 93.7185ZM280.596 97.3009C281.141 97.3907 281.656 97.0217 281.746 96.4767C281.835 95.9318 281.466 95.4173 280.921 95.3275L280.596 97.3009ZM290.652 96.9236C290.107 96.8345 289.593 97.2042 289.504 97.7492C289.415 98.2943 289.785 98.8083 290.33 98.8974L290.652 96.9236ZM300.125 100.493C300.671 100.582 301.184 100.212 301.273 99.6666C301.361 99.1214 300.991 98.6077 300.446 98.5191L300.125 100.493ZM310.26 100.11C309.715 100.022 309.201 100.392 309.113 100.937C309.025 101.483 309.395 101.996 309.94 102.084L310.26 100.11ZM319.662 103.655C320.207 103.743 320.721 103.372 320.809 102.827C320.897 102.282 320.526 101.769 319.981 101.681L319.662 103.655ZM329.746 103.256C329.2 103.168 328.687 103.539 328.599 104.084C328.511 104.629 328.882 105.143 329.427 105.231L329.746 103.256ZM339.23 106.812C339.776 106.9 340.289 106.53 340.377 105.984C340.465 105.439 340.094 104.926 339.549 104.838L339.23 106.812ZM349.318 106.416C348.773 106.328 348.259 106.699 348.171 107.244C348.083 107.789 348.453 108.303 348.999 108.391L349.318 106.416ZM358.749 109.972C359.294 110.06 359.807 109.69 359.896 109.145C359.985 108.6 359.614 108.086 359.069 107.997L358.749 109.972ZM368.842 109.59C368.297 109.501 367.783 109.87 367.694 110.415C367.605 110.96 367.975 111.474 368.52 111.563L368.842 109.59ZM378.308 113.168C378.853 113.258 379.367 112.889 379.457 112.344C379.546 111.799 379.177 111.284 378.632 111.195L378.308 113.168ZM388.388 112.806C387.844 112.716 387.329 113.084 387.238 113.629C387.148 114.174 387.516 114.689 388.061 114.779L388.388 112.806ZM397.818 116.406C398.363 116.498 398.878 116.13 398.969 115.585C399.061 115.041 398.693 114.525 398.148 114.434L397.818 116.406ZM407.91 116.079C407.365 115.986 406.849 116.353 406.757 116.898C406.664 117.442 407.031 117.958 407.575 118.051L407.91 116.079ZM417.333 119.715C417.877 119.808 418.394 119.443 418.488 118.898C418.581 118.354 418.216 117.837 417.671 117.744L417.333 119.715ZM427.435 119.431C426.891 119.336 426.373 119.701 426.279 120.245C426.184 120.789 426.548 121.307 427.092 121.401L427.435 119.431ZM436.837 123.111C437.38 123.207 437.899 122.844 437.995 122.3C438.092 121.756 437.729 121.237 437.185 121.141L436.837 123.111ZM446.915 122.875C446.371 122.777 445.851 123.139 445.754 123.683C445.656 124.226 446.017 124.746 446.561 124.844L446.915 122.875ZM456.31 126.611C456.853 126.711 457.374 126.351 457.473 125.808C457.573 125.265 457.213 124.744 456.67 124.644L456.31 126.611ZM466.423 126.446C465.88 126.345 465.358 126.703 465.257 127.246C465.155 127.789 465.513 128.311 466.056 128.412L466.423 126.446ZM475.767 130.242C476.309 130.345 476.833 129.989 476.936 129.447C477.039 128.904 476.683 128.381 476.141 128.277L475.767 130.242ZM485.818 130.14C485.276 130.034 484.751 130.388 484.646 130.931C484.54 131.473 484.894 131.998 485.436 132.103L485.818 130.14ZM495.199 134.025C495.741 134.133 496.267 133.781 496.375 133.239C496.483 132.698 496.131 132.171 495.59 132.063L495.199 134.025ZM505.308 134.022C504.767 133.912 504.239 134.261 504.128 134.802C504.018 135.343 504.367 135.871 504.908 135.982L505.308 134.022ZM514.558 137.976C515.098 138.089 515.628 137.742 515.741 137.202C515.854 136.661 515.508 136.131 514.967 136.018L514.558 137.976ZM524.651 138.072C524.111 137.956 523.579 138.299 523.463 138.839C523.347 139.379 523.69 139.911 524.23 140.027L524.651 138.072ZM533.946 142.146C534.486 142.265 535.02 141.925 535.139 141.385C535.258 140.846 534.918 140.312 534.378 140.193L533.946 142.146ZM544.027 142.358C543.489 142.236 542.953 142.573 542.83 143.111C542.708 143.65 543.045 144.186 543.583 144.308L544.027 142.358ZM553.134 146.517C553.672 146.643 554.21 146.31 554.337 145.772C554.463 145.234 554.129 144.696 553.592 144.57L553.134 146.517ZM563.314 146.89C562.777 146.76 562.236 147.089 562.106 147.626C561.976 148.163 562.305 148.703 562.842 148.833L563.314 146.89ZM572.466 151.207C573.002 151.341 573.545 151.016 573.679 150.48C573.814 149.945 573.488 149.401 572.953 149.267L572.466 151.207ZM582.483 151.699C581.948 151.56 581.402 151.881 581.264 152.416C581.125 152.95 581.446 153.496 581.98 153.635L582.483 151.699ZM591.553 156.166C592.086 156.31 592.635 155.994 592.779 155.461C592.922 154.928 592.606 154.379 592.073 154.235L591.553 156.166ZM601.693 156.876C601.161 156.727 600.609 157.038 600.46 157.569C600.311 158.101 600.622 158.653 601.154 158.802L601.693 156.876ZM610.616 161.503C611.146 161.657 611.702 161.352 611.856 160.822C612.01 160.292 611.706 159.737 611.175 159.582L610.616 161.503ZM620.608 162.385C620.08 162.225 619.521 162.523 619.361 163.052C619.201 163.58 619.499 164.139 620.028 164.299L620.608 162.385ZM629.58 167.261C630.107 167.427 630.669 167.136 630.836 166.609C631.003 166.083 630.711 165.521 630.185 165.354L629.58 167.261ZM639.588 168.402C639.064 168.228 638.498 168.512 638.324 169.036C638.151 169.56 638.435 170.126 638.959 170.3L639.588 168.402ZM648.194 173.434C648.716 173.615 649.286 173.339 649.467 172.817C649.648 172.296 649.372 171.726 648.851 171.545L648.194 173.434ZM658.336 174.923C657.817 174.734 657.243 175 657.054 175.519C656.864 176.038 657.131 176.612 657.65 176.802L658.336 174.923ZM666.885 180.264C667.401 180.462 667.979 180.205 668.178 179.69C668.376 179.174 668.119 178.596 667.604 178.397L666.885 180.264ZM676.688 181.988C676.177 181.78 675.593 182.027 675.386 182.539C675.178 183.05 675.424 183.633 675.936 183.841L676.688 181.988ZM685.205 187.718C685.713 187.936 686.301 187.702 686.519 187.195C686.738 186.688 686.504 186.1 685.997 185.881L685.205 187.718ZM695.029 189.892C694.527 189.662 693.933 189.882 693.703 190.384C693.474 190.887 693.694 191.48 694.196 191.71L695.029 189.892ZM703.037 195.889C703.534 196.131 704.132 195.925 704.375 195.429C704.617 194.933 704.411 194.334 703.915 194.092L703.037 195.889ZM712.898 198.633C712.409 198.377 711.805 198.566 711.548 199.055C711.292 199.544 711.481 200.149 711.97 200.405L712.898 198.633ZM720.548 205.064C721.03 205.335 721.639 205.164 721.911 204.683C722.182 204.202 722.011 203.592 721.53 203.321L720.548 205.064ZM730.133 208.365C729.662 208.077 729.046 208.226 728.759 208.697C728.471 209.169 728.62 209.784 729.091 210.072L730.133 208.365ZM737.44 215.39C737.9 215.696 738.521 215.572 738.827 215.112C739.133 214.652 739.008 214.031 738.548 213.725L737.44 215.39ZM746.57 219.312C746.124 218.987 745.498 219.084 745.172 219.531C744.847 219.977 744.945 220.602 745.391 220.928L746.57 219.312ZM753.33 227.027C753.759 227.375 754.389 227.308 754.736 226.879C755.084 226.45 755.018 225.82 754.589 225.473L753.33 227.027ZM762.049 231.859C761.64 231.488 761.008 231.519 760.637 231.928C760.266 232.338 760.297 232.97 760.706 233.341L762.049 231.859ZM767.846 240.231C768.231 240.627 768.864 240.637 769.26 240.252C769.657 239.867 769.666 239.234 769.281 238.838L767.846 240.231ZM775.932 246.186C775.577 245.763 774.946 245.709 774.523 246.064C774.101 246.42 774.046 247.051 774.402 247.473L775.932 246.186ZM780.424 255.23C780.744 255.68 781.369 255.784 781.818 255.464C782.268 255.143 782.373 254.519 782.052 254.069L780.424 255.23ZM787.481 262.426C787.201 261.95 786.588 261.791 786.112 262.071C785.636 262.351 785.477 262.964 785.757 263.44L787.481 262.426ZM790.302 272.08C790.536 272.58 791.131 272.797 791.631 272.563C792.132 272.33 792.348 271.735 792.115 271.235L790.302 272.08ZM795.878 280.491C795.697 279.97 795.127 279.694 794.605 279.876C794.084 280.058 793.808 280.628 793.99 281.15L795.878 280.491ZM796.718 290.493C796.846 291.03 797.384 291.363 797.922 291.235C798.459 291.108 798.792 290.569 798.664 290.032L796.718 290.493ZM800.466 299.867C800.394 299.319 799.892 298.933 799.345 299.005C798.797 299.076 798.411 299.578 798.483 300.126L800.466 299.867ZM1.07926 1.38929C1.71554 2.89193 2.44269 4.36982 3.25811 5.82362L5.00246 4.84523C4.22183 3.45345 3.52745 2.04174 2.92095 0.609439L1.07926 1.38929ZM9.08164 14.1364C11.1433 16.5712 13.4709 18.9334 16.0501 21.2277L17.3793 19.7333C14.8628 17.4948 12.6024 15.1993 10.608 12.844L9.08164 14.1364ZM23.8173 27.4058C26.4744 29.3104 29.3164 31.1673 32.3345 32.9792L33.364 31.2645C30.3875 29.4776 27.5912 27.6503 24.9825 25.7802L23.8173 27.4058ZM40.8231 37.7219C43.7487 39.2477 46.8055 40.7412 49.9877 42.2043L50.8231 40.3872C47.6685 38.9368 44.6417 37.4578 41.748 35.9486L40.8231 37.7219ZM58.8653 46.076C61.8982 47.3326 65.0271 48.5666 68.2479 49.7791L68.9526 47.9074C65.7507 46.7019 62.6422 45.476 59.6309 44.2283L58.8653 46.076ZM77.4782 53.1109C80.5438 54.1729 83.6819 55.2185 86.8894 56.2486L87.501 54.3444C84.3069 53.3187 81.1833 52.2779 78.1329 51.2211L77.4782 53.1109ZM96.4824 59.2228C99.5483 60.1412 102.67 61.0474 105.846 61.9419L106.389 60.0168C103.223 59.1251 100.111 58.222 97.0564 57.3069L96.4824 59.2228ZM115.534 64.5918C118.672 65.4256 121.856 66.2495 125.086 67.0641L125.575 65.1249C122.353 64.3122 119.177 63.4904 116.048 62.6589L115.534 64.5918ZM134.637 69.4154C137.863 70.1908 141.129 70.958 144.435 71.7176L144.883 69.7684C141.583 69.0102 138.323 68.2445 135.105 67.4708L134.637 69.4154ZM154.007 73.8721C157.185 74.5734 160.397 75.2684 163.64 75.9577L164.056 74.0014C160.817 73.3131 157.611 72.6192 154.437 71.9191L154.007 73.8721ZM173.465 78.0086C176.651 78.6623 179.866 79.3111 183.107 79.9554L183.497 77.9937C180.259 77.3502 177.049 76.7023 173.867 76.0495L173.465 78.0086ZM192.77 81.8483C196.017 82.4752 199.288 83.0981 202.583 83.7175L202.952 81.7519C199.66 81.1331 196.392 80.5108 193.149 79.8846L192.77 81.8483ZM212.319 85.5257C215.522 86.1134 218.746 86.6983 221.988 87.2806L222.342 85.3121C219.102 84.7302 215.881 84.1458 212.68 83.5585L212.319 85.5257ZM231.773 89.0202C235.033 89.5942 238.31 90.166 241.605 90.7359L241.946 88.7652C238.653 88.1956 235.378 87.6241 232.12 87.0505L231.773 89.0202ZM251.271 92.3954C254.508 92.9471 257.761 93.4974 261.027 94.0466L261.359 92.0743C258.094 91.5253 254.843 90.9753 251.607 90.4239L251.271 92.3954ZM270.867 95.6914C274.098 96.2285 277.341 96.7649 280.596 97.3009L280.921 95.3275C277.667 94.7917 274.425 94.2554 271.195 93.7185L270.867 95.6914ZM290.33 98.8974C293.585 99.4294 296.851 99.9612 300.125 100.493L300.446 98.5191C297.172 97.9872 293.907 97.4554 290.652 96.9236L290.33 98.8974ZM309.94 102.084C313.173 102.607 316.414 103.131 319.662 103.655L319.981 101.681C316.733 101.156 313.492 100.633 310.26 100.11L309.94 102.084ZM329.427 105.231C332.689 105.757 335.957 106.284 339.23 106.812L339.549 104.838C336.275 104.309 333.007 103.782 329.746 103.256L329.427 105.231ZM348.999 108.391C352.244 108.916 355.495 109.443 358.749 109.972L359.069 107.997C355.815 107.469 352.564 106.942 349.318 106.416L348.999 108.391ZM368.52 111.563C371.78 112.096 375.043 112.631 378.308 113.168L378.632 111.195C375.367 110.657 372.103 110.122 368.842 109.59L368.52 111.563ZM388.061 114.779C391.313 115.319 394.565 115.861 397.818 116.406L398.148 114.434C394.895 113.889 391.641 113.346 388.388 112.806L388.061 114.779ZM407.575 118.051C410.829 118.602 414.082 119.157 417.333 119.715L417.671 117.744C414.419 117.185 411.165 116.63 407.91 116.079L407.575 118.051ZM427.092 121.401C430.343 121.967 433.592 122.537 436.837 123.111L437.185 121.141C433.938 120.567 430.688 119.997 427.435 119.431L427.092 121.401ZM446.561 124.844C449.815 125.429 453.065 126.018 456.31 126.611L456.67 124.644C453.423 124.05 450.171 123.46 446.915 122.875L446.561 124.844ZM466.056 128.412C469.299 129.017 472.537 129.627 475.767 130.242L476.141 128.277C472.908 127.662 469.669 127.051 466.423 126.446L466.056 128.412ZM485.436 132.103C488.699 132.738 491.954 133.378 495.199 134.025L495.59 132.063C492.341 131.416 489.084 130.775 485.818 130.14L485.436 132.103ZM504.908 135.982C508.135 136.64 511.352 137.305 514.558 137.976L514.967 136.018C511.758 135.346 508.538 134.681 505.308 134.022L504.908 135.982ZM524.23 140.027C527.482 140.726 530.721 141.432 533.946 142.146L534.378 140.193C531.149 139.479 527.906 138.772 524.651 138.072L524.23 140.027ZM543.583 144.308C546.781 145.037 549.966 145.773 553.134 146.517L553.592 144.57C550.418 143.825 547.23 143.088 544.027 142.358L543.583 144.308ZM562.842 148.833C566.068 149.616 569.276 150.407 572.466 151.207L572.953 149.267C569.757 148.466 566.544 147.673 563.314 146.89L562.842 148.833ZM581.98 153.635C585.192 154.469 588.383 155.312 591.553 156.166L592.073 154.235C588.897 153.38 585.7 152.534 582.483 151.699L581.98 153.635ZM601.154 158.802C604.331 159.691 607.486 160.591 610.616 161.503L611.175 159.582C608.038 158.669 604.877 157.767 601.693 156.876L601.154 158.802ZM620.028 164.299C623.24 165.273 626.425 166.26 629.58 167.261L630.185 165.354C627.021 164.351 623.828 163.362 620.608 162.385L620.028 164.299ZM638.959 170.3C642.069 171.331 645.147 172.375 648.194 173.434L648.851 171.545C645.794 170.483 642.707 169.435 639.588 168.402L638.959 170.3ZM657.65 176.802C660.765 177.94 663.845 179.094 666.885 180.264L667.604 178.397C664.552 177.223 661.462 176.065 658.336 174.923L657.65 176.802ZM675.936 183.841C679.071 185.115 682.161 186.407 685.205 187.718L685.997 185.881C682.939 184.564 679.836 183.267 676.688 181.988L675.936 183.841ZM694.196 191.71C697.194 193.082 700.142 194.475 703.037 195.889L703.915 194.092C701.004 192.67 698.041 191.27 695.029 189.892L694.196 191.71ZM711.97 200.405C714.89 201.934 717.75 203.486 720.548 205.064L721.53 203.321C718.713 201.734 715.835 200.171 712.898 198.633L711.97 200.405ZM729.091 210.072C731.948 211.816 734.732 213.588 737.44 215.39L738.548 213.725C735.817 211.908 733.011 210.121 730.133 208.365L729.091 210.072ZM745.391 220.928C748.129 222.926 750.776 224.958 753.33 227.027L754.589 225.473C752.008 223.382 749.334 221.329 746.57 219.312L745.391 220.928ZM760.706 233.341C763.195 235.596 765.577 237.893 767.846 240.231L769.281 238.838C766.981 236.468 764.569 234.142 762.049 231.859L760.706 233.341ZM774.402 247.473C776.537 250.011 778.546 252.596 780.424 255.23L782.052 254.069C780.142 251.39 778.1 248.763 775.932 246.186L774.402 247.473ZM785.757 263.44C787.417 266.266 788.934 269.145 790.302 272.08L792.115 271.235C790.719 268.241 789.173 265.305 787.481 262.426L785.757 263.44ZM793.99 281.15C795.055 284.206 795.966 287.32 796.718 290.493L798.664 290.032C797.896 286.791 796.966 283.612 795.878 280.491L793.99 281.15ZM798.483 300.126C798.697 301.762 798.871 303.412 799.003 305.079L800.997 304.92C800.862 303.22 800.685 301.536 800.466 299.867L798.483 300.126ZM798.702 306.521C799.543 307.238 800.805 307.138 801.522 306.297L813.201 292.6C813.917 291.759 813.817 290.497 812.976 289.78C812.136 289.064 810.873 289.164 810.157 290.005L799.776 302.18L787.601 291.799C786.76 291.082 785.498 291.183 784.781 292.023C784.064 292.864 784.165 294.126 785.005 294.843L798.702 306.521ZM2.38593 6.31281C2.92628 7.27619 4.14529 7.61912 5.10867 7.07878C6.07205 6.53843 6.41498 5.31942 5.87464 4.35604L2.38593 6.31281ZM11.3711 12.1978C10.6573 11.3548 9.39535 11.2501 8.55239 11.9638C7.70942 12.6776 7.6047 13.9396 8.31848 14.7826L11.3711 12.1978ZM15.3855 21.9748C16.2108 22.709 17.4749 22.6351 18.2091 21.8098C18.9432 20.9845 18.8693 19.7203 18.044 18.9862L15.3855 21.9748ZM25.5651 24.9675C24.6673 24.324 23.4179 24.5301 22.7743 25.4278C22.1308 26.3256 22.3369 27.575 23.2347 28.2185L25.5651 24.9675ZM31.8198 33.8366C32.7668 34.4051 33.9954 34.0983 34.5639 33.1513C35.1325 32.2043 34.8257 30.9757 33.8787 30.4072L31.8198 33.8366ZM42.2104 35.0619C41.231 34.5512 40.023 34.9311 39.5122 35.9104C39.0014 36.8898 39.3813 38.0978 40.3607 38.6086L42.2104 35.0619ZM49.5699 43.1129C50.5735 43.5743 51.7611 43.1348 52.2225 42.1312C52.684 41.1276 52.2445 39.94 51.2409 39.4786L49.5699 43.1129ZM60.0136 43.3044C58.9932 42.8816 57.8232 43.3661 57.4004 44.3866C56.9776 45.407 57.4621 46.577 58.4825 46.9998L60.0136 43.3044ZM67.8956 50.715C68.9293 51.1042 70.0828 50.5817 70.472 49.548C70.8612 48.5142 70.3387 47.3607 69.3049 46.9715L67.8956 50.715ZM78.4602 50.2762C77.4165 49.9146 76.2773 50.4676 75.9157 51.5113C75.5541 52.555 76.1071 53.6942 77.1508 54.0558L78.4602 50.2762ZM86.5837 57.2007C87.6353 57.5384 88.7617 56.9597 89.0994 55.908C89.4371 54.8564 88.8584 53.73 87.8067 53.3923L86.5837 57.2007ZM97.3433 56.349C96.2852 56.032 95.1705 56.6329 94.8535 57.691C94.5365 58.7491 95.1374 59.8638 96.1955 60.1808L97.3433 56.349ZM105.575 62.9045C106.638 63.2039 107.743 62.5848 108.043 61.5216C108.342 60.4584 107.723 59.3538 106.66 59.0543L105.575 62.9045ZM116.305 61.6924C115.237 61.4087 114.142 62.0441 113.858 63.1116C113.575 64.1791 114.21 65.2745 115.277 65.5582L116.305 61.6924ZM124.842 68.0338C125.913 68.3039 127 67.6547 127.27 66.5836C127.54 65.5126 126.891 64.4254 125.82 64.1552L124.842 68.0338ZM135.338 66.4985C134.265 66.2403 133.185 66.9017 132.926 67.9756C132.668 69.0496 133.33 70.1295 134.404 70.3877L135.338 66.4985ZM144.211 72.6922C145.288 72.9395 146.361 72.2674 146.608 71.1908C146.856 70.1143 146.184 69.0411 145.107 68.7938L144.211 72.6922ZM154.653 70.9426C153.574 70.7046 152.507 71.3861 152.269 72.4647C152.031 73.5433 152.712 74.6106 153.791 74.8486L154.653 70.9426ZM163.433 76.9358C164.513 77.1654 165.575 76.4757 165.805 75.3952C166.034 74.3148 165.344 73.2528 164.264 73.0232L163.433 76.9358ZM174.068 75.0699C172.986 74.8479 171.929 75.5451 171.707 76.6271C171.485 77.7091 172.182 78.7662 173.264 78.9882L174.068 75.0699ZM182.912 80.9362C183.995 81.1515 185.048 80.4479 185.263 79.3645C185.479 78.2811 184.775 77.2283 183.692 77.0129L182.912 80.9362ZM193.339 78.9027C192.255 78.6933 191.206 79.4027 190.996 80.4872C190.787 81.5718 191.496 82.6207 192.581 82.8302L193.339 78.9027ZM202.398 84.7003C203.483 84.9044 204.529 84.1898 204.733 83.1042C204.937 82.0187 204.222 80.9732 203.137 80.7691L202.398 84.7003ZM212.861 82.575C211.775 82.3756 210.732 83.0947 210.533 84.1811C210.333 85.2675 211.053 86.3099 212.139 86.5093L212.861 82.575ZM221.812 88.2648C222.899 88.4601 223.938 87.737 224.134 86.6498C224.329 85.5627 223.606 84.5231 222.519 84.3278L221.812 88.2648ZM232.294 86.0657C231.206 85.8742 230.169 86.6007 229.977 87.6886C229.785 88.7764 230.512 89.8135 231.6 90.0051L232.294 86.0657ZM241.434 91.7213C242.523 91.9096 243.558 91.1799 243.746 90.0915C243.934 89.0031 243.205 87.9682 242.116 87.7799L241.434 91.7213ZM251.775 89.4381C250.686 89.2525 249.653 89.9848 249.467 91.0737C249.282 92.1626 250.014 93.1957 251.103 93.3812L251.775 89.4381ZM260.861 95.0328C261.951 95.2159 262.982 94.4814 263.165 93.3921C263.348 92.3028 262.614 91.2713 261.525 91.0881L260.861 95.0328ZM271.359 92.732C270.269 92.5509 269.239 93.2874 269.058 94.377C268.877 95.4666 269.613 96.4967 270.703 96.6779L271.359 92.732ZM280.434 98.2877C281.524 98.4671 282.553 97.7291 282.732 96.6392C282.912 95.5493 282.174 94.5203 281.084 94.3408L280.434 98.2877ZM290.814 95.9367C289.724 95.7585 288.696 96.4978 288.517 97.5879C288.339 98.6781 289.079 99.7062 290.169 99.8843L290.814 95.9367ZM299.965 101.48C301.055 101.657 302.083 100.917 302.26 99.8269C302.437 98.7366 301.697 97.7092 300.607 97.5321L299.965 101.48ZM310.42 99.1228C309.329 98.9464 308.302 99.6873 308.126 100.778C307.949 101.868 308.69 102.895 309.781 103.071L310.42 99.1228ZM319.503 104.642C320.593 104.818 321.62 104.077 321.796 102.987C321.972 101.896 321.231 100.869 320.14 100.693L319.503 104.642ZM329.905 102.269C328.814 102.093 327.788 102.834 327.612 103.925C327.436 105.015 328.178 106.042 329.268 106.218L329.905 102.269ZM339.071 107.799C340.161 107.975 341.188 107.234 341.364 106.144C341.54 105.053 340.799 104.027 339.708 103.85L339.071 107.799ZM349.478 105.429C348.387 105.253 347.36 105.994 347.184 107.084C347.008 108.174 347.748 109.201 348.839 109.378L349.478 105.429ZM358.588 110.959C359.678 111.136 360.706 110.396 360.883 109.305C361.06 108.215 360.32 107.188 359.23 107.01L358.588 110.959ZM369.004 108.603C367.914 108.425 366.886 109.164 366.707 110.254C366.529 111.344 367.269 112.372 368.359 112.55L369.004 108.603ZM378.145 114.155C379.235 114.334 380.264 113.596 380.444 112.506C380.623 111.416 379.885 110.387 378.795 110.208L378.145 114.155ZM388.552 111.82C387.462 111.639 386.433 112.376 386.252 113.466C386.071 114.555 386.808 115.585 387.897 115.766L388.552 111.82ZM397.653 117.393C398.742 117.575 399.773 116.84 399.956 115.751C400.138 114.661 399.403 113.63 398.314 113.448L397.653 117.393ZM408.077 115.093C406.988 114.908 405.955 115.641 405.771 116.73C405.586 117.819 406.319 118.852 407.408 119.037L408.077 115.093ZM417.164 120.7C418.253 120.887 419.287 120.156 419.473 119.067C419.66 117.979 418.929 116.945 417.841 116.758L417.164 120.7ZM427.607 118.446C426.519 118.256 425.483 118.985 425.293 120.073C425.104 121.161 425.833 122.197 426.921 122.387L427.607 118.446ZM436.663 124.095C437.75 124.288 438.788 123.562 438.98 122.474C439.172 121.386 438.447 120.349 437.359 120.156L436.663 124.095ZM447.092 121.891C446.004 121.696 444.965 122.418 444.769 123.506C444.574 124.593 445.297 125.632 446.384 125.828L447.092 121.891ZM456.13 127.595C457.216 127.794 458.258 127.074 458.457 125.988C458.656 124.901 457.936 123.859 456.85 123.66L456.13 127.595ZM466.606 125.463C465.521 125.26 464.476 125.976 464.274 127.062C464.071 128.148 464.787 129.193 465.873 129.395L466.606 125.463ZM475.58 131.224C476.665 131.431 477.712 130.719 477.918 129.634C478.125 128.549 477.413 127.502 476.328 127.295L475.58 131.224ZM486.009 129.158C484.925 128.947 483.875 129.655 483.664 130.74C483.453 131.824 484.161 132.874 485.245 133.085L486.009 129.158ZM495.004 135.005C496.087 135.221 497.14 134.518 497.356 133.435C497.572 132.351 496.868 131.298 495.785 131.082L495.004 135.005ZM505.508 133.042C504.426 132.821 503.369 133.52 503.148 134.602C502.928 135.684 503.626 136.741 504.708 136.961L505.508 133.042ZM514.353 138.954C515.434 139.181 516.494 138.488 516.72 137.407C516.946 136.325 516.253 135.266 515.172 135.039L514.353 138.954ZM524.861 137.094C523.781 136.862 522.717 137.549 522.485 138.629C522.253 139.709 522.94 140.773 524.02 141.005L524.861 137.094ZM533.73 143.122C534.809 143.361 535.877 142.68 536.115 141.601C536.354 140.523 535.673 139.455 534.594 139.217L533.73 143.122ZM544.249 141.383C543.172 141.138 542.1 141.812 541.855 142.889C541.61 143.966 542.284 145.038 543.361 145.283L544.249 141.383ZM552.906 147.491C553.981 147.743 555.058 147.076 555.31 146.001C555.563 144.925 554.896 143.849 553.82 143.596L552.906 147.491ZM563.549 145.918C562.476 145.658 561.395 146.317 561.134 147.39C560.874 148.464 561.533 149.545 562.607 149.805L563.549 145.918ZM572.223 152.177C573.294 152.446 574.38 151.795 574.649 150.724C574.918 149.652 574.267 148.566 573.196 148.297L572.223 152.177ZM582.734 150.731C581.665 150.454 580.573 151.095 580.296 152.164C580.018 153.233 580.66 154.325 581.729 154.603L582.734 150.731ZM591.293 157.132C592.359 157.419 593.457 156.787 593.744 155.721C594.031 154.654 593.4 153.557 592.333 153.27L591.293 157.132ZM601.962 155.913C600.899 155.615 599.795 156.236 599.497 157.3C599.2 158.364 599.821 159.467 600.884 159.765L601.962 155.913ZM610.337 162.463C611.397 162.771 612.507 162.162 612.816 161.101C613.125 160.041 612.515 158.931 611.455 158.622L610.337 162.463ZM620.898 161.428C619.841 161.108 618.725 161.705 618.404 162.762C618.083 163.819 618.68 164.935 619.737 165.256L620.898 161.428ZM629.278 168.214C630.331 168.547 631.455 167.964 631.789 166.911C632.123 165.858 631.54 164.734 630.487 164.401L629.278 168.214ZM639.903 167.452C638.855 167.105 637.723 167.673 637.375 168.722C637.028 169.77 637.596 170.902 638.644 171.249L639.903 167.452ZM647.866 174.378C648.91 174.741 650.049 174.189 650.412 173.145C650.774 172.102 650.222 170.962 649.179 170.6L647.866 174.378ZM658.679 173.984C657.642 173.605 656.493 174.139 656.114 175.176C655.735 176.214 656.269 177.362 657.307 177.741L658.679 173.984ZM666.526 181.197C667.557 181.594 668.714 181.08 669.111 180.049C669.508 179.018 668.994 177.861 667.963 177.464L666.526 181.197ZM677.065 181.062C676.041 180.646 674.875 181.139 674.459 182.162C674.043 183.186 674.536 184.352 675.559 184.768L677.065 181.062ZM684.81 188.636C685.824 189.073 687.001 188.605 687.438 187.591C687.875 186.576 687.407 185.4 686.392 184.963L684.81 188.636ZM695.445 188.982C694.441 188.522 693.254 188.964 692.794 189.968C692.334 190.973 692.776 192.159 693.78 192.619L695.445 188.982ZM702.599 196.788C703.591 197.272 704.789 196.86 705.273 195.868C705.758 194.875 705.346 193.678 704.354 193.193L702.599 196.788ZM713.362 197.747C712.384 197.235 711.175 197.613 710.663 198.591C710.15 199.57 710.528 200.778 711.506 201.291L713.362 197.747ZM720.057 205.935C721.02 206.477 722.239 206.136 722.782 205.174C723.324 204.212 722.983 202.992 722.021 202.45L720.057 205.935ZM730.654 207.511C729.711 206.936 728.48 207.233 727.905 208.176C727.33 209.119 727.627 210.35 728.57 210.925L730.654 207.511ZM736.886 216.223C737.806 216.835 739.047 216.585 739.659 215.666C740.271 214.746 740.022 213.505 739.102 212.893L736.886 216.223ZM747.159 218.504C746.267 217.853 745.016 218.049 744.365 218.941C743.714 219.833 743.909 221.085 744.801 221.736L747.159 218.504ZM752.701 227.804C753.559 228.499 754.818 228.367 755.513 227.509C756.209 226.65 756.077 225.391 755.218 224.696L752.701 227.804ZM762.721 231.118C761.902 230.376 760.638 230.438 759.896 231.257C759.154 232.075 759.216 233.34 760.035 234.082L762.721 231.118ZM767.129 240.927C767.898 241.72 769.164 241.739 769.957 240.97C770.749 240.2 770.768 238.934 769.999 238.141L767.129 240.927ZM776.698 245.542C775.986 244.697 774.725 244.588 773.88 245.299C773.034 246.01 772.926 247.272 773.637 248.117L776.698 245.542ZM779.609 255.811C780.251 256.71 781.5 256.919 782.399 256.278C783.298 255.637 783.508 254.388 782.866 253.488L779.609 255.811ZM788.343 261.92C787.783 260.967 786.557 260.649 785.605 261.209C784.653 261.768 784.335 262.994 784.894 263.946L788.343 261.92ZM789.396 272.502C789.863 273.503 791.053 273.936 792.054 273.47C793.055 273.003 793.488 271.813 793.021 270.812L789.396 272.502ZM796.823 280.162C796.459 279.119 795.319 278.568 794.276 278.932C793.233 279.295 792.682 280.436 793.046 281.479L796.823 280.162ZM795.745 290.723C796 291.798 797.078 292.463 798.152 292.208C799.227 291.954 799.892 290.876 799.637 289.801L795.745 290.723ZM801.458 299.737C801.314 298.642 800.31 297.87 799.215 298.013C798.12 298.157 797.348 299.161 797.492 300.256L801.458 299.737ZM0.158411 1.77922C0.809582 3.31702 1.55313 4.82801 2.38593 6.31281L5.87464 4.35604C5.11139 2.99526 4.43341 1.61665 3.84179 0.219512L0.158411 1.77922ZM8.31848 14.7826C10.4138 17.2571 12.775 19.6528 15.3855 21.9748L18.044 18.9862C15.5587 16.7754 13.3319 14.5134 11.3711 12.1978L8.31848 14.7826ZM23.2347 28.2185C25.916 30.1405 28.7809 32.0121 31.8198 33.8366L33.8787 30.4072C30.9231 28.6327 28.1497 26.8202 25.5651 24.9675L23.2347 28.2185ZM40.3607 38.6086C43.3022 40.1427 46.374 41.6435 49.5699 43.1129L51.2409 39.4786C48.1 38.0345 45.0882 36.5628 42.2104 35.0619L40.3607 38.6086ZM58.4825 46.9998C61.5262 48.2609 64.6653 49.4989 67.8956 50.715L69.3049 46.9715C66.1125 45.7696 63.0142 44.5477 60.0136 43.3044L58.4825 46.9998ZM77.1508 54.0558C80.2241 55.1205 83.3694 56.1685 86.5837 57.2007L87.8067 53.3923C84.6195 52.3687 81.503 51.3303 78.4602 50.2762L77.1508 54.0558ZM96.1955 60.1808C99.2669 61.1008 102.394 62.0085 105.575 62.9045L106.66 59.0543C103.499 58.1639 100.392 57.2624 97.3433 56.349L96.1955 60.1808ZM115.277 65.5582C118.419 66.3932 121.608 67.2181 124.842 68.0338L125.82 64.1552C122.601 63.3435 119.429 62.5228 116.305 61.6924L115.277 65.5582ZM134.404 70.3877C137.632 71.1639 140.902 71.9319 144.211 72.6922L145.107 68.7938C141.81 68.0363 138.554 67.2714 135.338 66.4985L134.404 70.3877ZM153.791 74.8486C156.972 75.5505 160.187 76.2461 163.433 76.9358L164.264 73.0232C161.028 72.3355 157.823 71.6421 154.653 70.9426L153.791 74.8486ZM173.264 78.9882C176.452 79.6423 179.669 80.2915 182.912 80.9362L183.692 77.0129C180.456 76.3698 177.248 75.7222 174.068 75.0699L173.264 78.9882ZM192.581 82.8302C195.829 83.4574 199.102 84.0806 202.398 84.7003L203.137 80.7691C199.847 80.1506 196.58 79.5286 193.339 78.9027L192.581 82.8302ZM212.139 86.5093C215.343 87.0973 218.568 87.6823 221.812 88.2648L222.519 84.3278C219.279 83.7461 216.06 83.162 212.861 82.575L212.139 86.5093ZM231.6 90.0051C234.86 90.5792 238.139 91.1512 241.434 91.7213L242.116 87.7799C238.824 87.2104 235.55 86.6391 232.294 86.0657L231.6 90.0051ZM251.103 93.3812C254.341 93.933 257.594 94.4834 260.861 95.0328L261.525 91.0881C258.26 90.5393 255.01 89.9893 251.775 89.4381L251.103 93.3812ZM270.703 96.6779C273.934 97.2151 277.178 97.7516 280.434 98.2877L281.084 94.3408C277.83 93.805 274.588 93.2689 271.359 92.732L270.703 96.6779ZM290.169 99.8843C293.424 100.416 296.69 100.948 299.965 101.48L300.607 97.5321C297.332 97.0002 294.068 96.4685 290.814 95.9367L290.169 99.8843ZM309.781 103.071C313.014 103.595 316.255 104.118 319.503 104.642L320.14 100.693C316.892 100.169 313.652 99.6458 310.42 99.1228L309.781 103.071ZM329.268 106.218C332.53 106.744 335.798 107.271 339.071 107.799L339.708 103.85C336.435 103.322 333.167 102.795 329.905 102.269L329.268 106.218ZM348.839 109.378C352.084 109.903 355.335 110.43 358.588 110.959L359.23 107.01C355.975 106.482 352.724 105.955 349.478 105.429L348.839 109.378ZM368.359 112.55C371.619 113.083 374.881 113.618 378.145 114.155L378.795 110.208C375.529 109.67 372.265 109.136 369.004 108.603L368.359 112.55ZM387.897 115.766C391.148 116.305 394.401 116.848 397.653 117.393L398.314 113.448C395.059 112.902 391.805 112.36 388.552 111.82L387.897 115.766ZM407.408 119.037C410.661 119.588 413.913 120.142 417.164 120.7L417.841 116.758C414.587 116.199 411.332 115.645 408.077 115.093L407.408 119.037ZM426.921 122.387C430.171 122.952 433.418 123.522 436.663 124.095L437.359 120.156C434.111 119.582 430.86 119.012 427.607 118.446L426.921 122.387ZM446.384 125.828C449.637 126.413 452.886 127.002 456.13 127.595L456.85 123.66C453.602 123.066 450.349 122.476 447.092 121.891L446.384 125.828ZM465.873 129.395C469.115 130 472.351 130.61 475.58 131.224L476.328 127.295C473.094 126.679 469.853 126.069 466.606 125.463L465.873 129.395ZM485.245 133.085C488.507 133.719 491.76 134.359 495.004 135.005L495.785 131.082C492.535 130.435 489.276 129.794 486.009 129.158L485.245 133.085ZM504.708 136.961C507.933 137.619 511.148 138.284 514.353 138.954L515.172 135.039C511.961 134.367 508.739 133.702 505.508 133.042L504.708 136.961ZM524.02 141.005C527.27 141.704 530.507 142.409 533.73 143.122L534.594 139.217C531.363 138.502 528.118 137.795 524.861 137.094L524.02 141.005ZM543.361 145.283C546.557 146.011 549.739 146.747 552.906 147.491L553.82 143.596C550.645 142.851 547.454 142.113 544.249 141.383L543.361 145.283ZM562.607 149.805C565.829 150.587 569.035 151.377 572.223 152.177L573.196 148.297C569.998 147.495 566.782 146.702 563.549 145.918L562.607 149.805ZM581.729 154.603C584.937 155.436 588.126 156.279 591.293 157.132L592.333 153.27C589.154 152.413 585.954 151.567 582.734 150.731L581.729 154.603ZM600.884 159.765C604.059 160.653 607.21 161.552 610.337 162.463L611.455 158.622C608.314 157.708 605.15 156.805 601.962 155.913L600.884 159.765ZM619.737 165.256C622.946 166.229 626.127 167.215 629.278 168.214L630.487 164.401C627.319 163.397 624.122 162.406 620.898 161.428L619.737 165.256ZM638.644 171.249C641.75 172.279 644.824 173.322 647.866 174.378L649.179 170.6C646.118 169.537 643.026 168.488 639.903 167.452L638.644 171.249ZM657.307 177.741C660.417 178.877 663.491 180.029 666.526 181.197L667.963 177.464C664.905 176.287 661.81 175.128 658.679 173.984L657.307 177.741ZM675.559 184.768C678.688 186.039 681.772 187.328 684.81 188.636L686.392 184.963C683.328 183.643 680.218 182.343 677.065 181.062L675.559 184.768ZM693.78 192.619C696.77 193.988 699.711 195.378 702.599 196.788L704.354 193.193C701.435 191.768 698.464 190.365 695.445 188.982L693.78 192.619ZM711.506 201.291C714.417 202.815 717.268 204.363 720.057 205.935L722.021 202.45C719.195 200.857 716.308 199.29 713.362 197.747L711.506 201.291ZM728.57 210.925C731.416 212.663 734.189 214.428 736.886 216.223L739.102 212.893C736.36 211.068 733.543 209.274 730.654 207.511L728.57 210.925ZM744.801 221.736C747.526 223.724 750.16 225.746 752.701 227.804L755.218 224.696C752.623 222.594 749.936 220.531 747.159 218.504L744.801 221.736ZM760.035 234.082C762.509 236.324 764.875 238.605 767.129 240.927L769.999 238.141C767.683 235.755 765.255 233.414 762.721 231.118L760.035 234.082ZM773.637 248.117C775.755 250.635 777.748 253.2 779.609 255.811L782.866 253.488C780.94 250.787 778.882 248.139 776.698 245.542L773.637 248.117ZM784.894 263.946C786.54 266.746 788.042 269.597 789.396 272.502L793.021 270.812C791.612 267.789 790.051 264.825 788.343 261.92L784.894 263.946ZM793.046 281.479C794.1 284.503 795.001 287.584 795.745 290.723L799.637 289.801C798.862 286.527 797.922 283.314 796.823 280.162L793.046 281.479ZM797.492 300.256C797.703 301.874 797.875 303.508 798.006 305.158L801.994 304.841C801.857 303.124 801.678 301.423 801.458 299.737L797.492 300.256Z" fill="#2E3438"/>
</svg>
