<svg width="436" height="117" viewBox="0 0 436 117" fill="none" xmlns="http://www.w3.org/2000/svg">
<path d="M26.6821 102.641C27.4559 101.91 27.9477 101.257 28.1575 100.683C28.3673 100.109 28.3727 99.4318 28.1739 98.6524C28.0997 98.3464 27.9589 97.9555 27.7513 97.4798C27.4594 96.8152 27.427 96.3757 27.6542 96.1611C27.8175 96.0068 28.036 95.9751 28.3097 96.0658C28.5768 96.1494 28.8612 96.3509 29.1629 96.6704C29.9744 97.5294 30.5765 98.4584 30.9695 99.4575C31.3557 100.449 31.3962 101.09 31.0909 101.378C31.0554 101.411 30.9465 101.474 30.7643 101.566C30.1542 101.887 29.6042 102.279 29.1143 102.741L22.6611 108.837C22.008 109.454 21.4996 109.84 21.136 109.995C20.7656 110.144 20.4664 110.097 20.2384 109.856C20.044 109.65 20.0889 109.285 20.3732 108.761C20.6647 108.231 20.8019 107.9 20.7849 107.768C20.7644 107.519 20.353 106.927 19.5506 105.992C18.7554 105.05 17.2345 103.391 14.9881 101.012C12.7617 98.6554 11.2046 97.0567 10.3167 96.2163C9.43583 95.3691 8.87156 94.9282 8.62386 94.8935C8.4933 94.869 8.15489 94.9872 7.60862 95.248C7.06946 95.502 6.70599 95.5297 6.51823 95.3309C6.2567 95.054 6.26771 94.6675 6.55127 94.1713C6.83522 93.6612 7.42089 92.9871 8.30829 92.1489C9.1886 91.3173 9.88788 90.7777 10.4061 90.53C10.9248 90.2684 11.3149 90.2761 11.5764 90.553C11.7642 90.7517 11.7159 91.113 11.4315 91.6369C11.1472 92.1607 11.0133 92.4954 11.0299 92.6409C11.0571 92.8973 11.5254 93.5565 12.4346 94.6187C13.3439 95.6808 14.7842 97.2554 16.7558 99.3426C18.7072 101.408 20.1132 102.854 20.974 103.68C21.828 104.499 22.4187 104.982 22.746 105.13C23.0667 105.27 23.4586 105.216 23.9216 104.966C24.3847 104.717 25.0279 104.203 25.8515 103.425L26.6821 102.641Z" fill="white"/>
<path d="M39.4024 82.2718C39.3364 82.1745 39.2635 82.0764 39.1838 81.9776C39.1116 81.8727 38.9958 81.7215 38.8364 81.5239C37.8979 80.3612 37.0439 79.6764 36.2743 79.4692C35.4986 79.2545 34.7004 79.4784 33.8797 80.1408C33.4617 80.4782 33.15 80.8616 32.9445 81.2911C32.7389 81.7205 32.6267 82.219 32.6078 82.7864C32.6084 82.9115 32.6122 83.1029 32.6195 83.3606C32.675 84.2068 32.509 84.7863 32.1215 85.0991C31.8859 85.2893 31.6376 85.3704 31.3767 85.3426C31.1158 85.3147 30.8872 85.1792 30.6909 84.9361C30.237 84.3737 30.2439 83.496 30.7115 82.3028C31.1867 81.1035 31.9866 80.05 33.1112 79.1422C34.5171 78.0074 35.8365 77.5197 37.0695 77.6791C38.3101 77.8323 39.5254 78.646 40.7153 80.1202C41.0588 80.5457 41.5082 81.118 42.0634 81.837C42.6186 82.5559 43.0097 83.056 43.2367 83.3372C44.353 84.7202 45.0987 85.5741 45.4738 85.8988C45.8503 86.2098 46.1298 86.2917 46.3122 86.1445C46.3882 86.0832 46.474 85.9951 46.5695 85.8803C46.6666 85.7518 46.7303 85.6753 46.7607 85.6507C46.8671 85.5648 46.9745 85.5346 47.0829 85.5601C47.1927 85.5718 47.2906 85.6309 47.3765 85.7373C47.5912 86.0032 47.6341 86.4141 47.5054 86.9698C47.3767 87.5255 47.1223 87.9567 46.7424 88.2634C46.294 88.6253 45.4113 88.5346 44.0943 87.9912C43.9812 87.9445 43.888 87.9067 43.8147 87.8781L43.6551 88.0069C43.554 88.9544 43.3121 89.7898 42.9294 90.5128C42.5467 91.2359 42.002 91.8826 41.2953 92.4531C40.1706 93.3609 39.0248 93.7837 37.8578 93.7217C36.6983 93.6536 35.7046 93.1066 34.8766 92.0807C33.8952 90.8649 33.573 89.5562 33.91 88.1546C34.2547 86.7469 35.2287 85.396 36.8321 84.1017C37.2349 83.7767 37.6499 83.4668 38.0772 83.1721C38.5059 82.8636 38.9476 82.5636 39.4024 82.2718ZM40.212 83.2749C39.7541 83.5316 39.3419 83.7827 38.9754 84.0283C38.6165 84.2678 38.2927 84.5041 38.0039 84.7372C36.8489 85.6695 36.1613 86.6135 35.9413 87.5692C35.7288 88.5188 35.9845 89.4419 36.7083 90.3386C37.3094 91.0833 37.9907 91.4998 38.7521 91.588C39.515 91.6624 40.2688 91.3991 41.0135 90.798C41.9634 90.0313 42.4947 89.1192 42.6076 88.0618C42.7219 86.9906 42.3864 85.9687 41.6013 84.996L40.212 83.2749Z" fill="white"/>
<path d="M62.729 75.4449L62.0164 74.4061C61.9225 74.2692 61.8469 74.1849 61.7896 74.1531C61.7322 74.1214 61.6794 74.1221 61.6311 74.1552C61.5184 74.2326 61.4555 74.4948 61.4425 74.9419C61.4366 75.3131 61.4174 75.6046 61.385 75.8163C61.2993 76.5027 61.0746 77.1246 60.711 77.6821C60.3553 78.2339 59.8554 78.7309 59.2112 79.1728C57.7133 80.2004 56.295 80.4806 54.9561 80.0135C53.6172 79.5465 52.2461 78.2902 50.8429 76.2448L49.4176 74.1672C48.611 72.9915 48.047 72.2297 47.7254 71.8818C47.4039 71.5339 47.1415 71.3586 46.9383 71.3559C46.8679 71.3569 46.6148 71.4713 46.179 71.6992C45.7377 71.919 45.4136 71.8868 45.2066 71.6024C45.1017 71.4494 45.0775 71.2588 45.134 71.0305C45.1987 70.7967 45.341 70.5036 45.5612 70.1512C45.8694 69.7029 46.1998 69.2868 46.5522 68.9029C46.8992 68.5109 47.1612 68.2542 47.3384 68.1326C47.588 67.9614 47.8013 67.9098 47.9783 67.9779C48.1578 68.0324 48.3663 68.2327 48.6039 68.579C48.8911 68.9978 49.3478 69.7325 49.974 70.7833C50.6082 71.8286 51.1269 72.6452 51.5302 73.233L52.0025 73.9215C52.8036 75.0892 53.4106 75.9222 53.8235 76.4205C54.2445 76.9134 54.6382 77.2887 55.0046 77.5466C55.5187 77.9163 56.0899 78.0929 56.7181 78.0764C57.3544 78.0544 57.9704 77.839 58.5664 77.4302C59.1703 77.0159 59.6507 76.4731 60.0074 75.8021C60.3587 75.1229 60.5546 74.3727 60.5951 73.5514C60.6197 73.1556 60.5479 72.7489 60.3798 72.3313C60.2118 71.9137 59.8598 71.3143 59.3239 70.5332L58.3461 69.1078L57.8489 68.3831C57.0478 67.2154 56.4866 66.4576 56.165 66.1098C55.8435 65.7619 55.5783 65.5826 55.3696 65.5718C55.2992 65.5728 55.0474 65.6804 54.6141 65.8947C54.1808 66.1091 53.8675 66.0753 53.6742 65.7934C53.5692 65.6404 53.541 65.4526 53.5895 65.2298C53.6405 64.9935 53.7789 64.7031 54.0046 64.3588C54.3048 63.916 54.6351 63.4999 54.9956 63.1105C55.3506 62.713 55.6207 62.4507 55.8059 62.3237C56.0394 62.1635 56.2419 62.1134 56.4134 62.1734C56.5848 62.2334 56.7921 62.4406 57.0352 62.7949C57.3887 63.3103 57.9047 64.1228 58.5831 65.2325C59.2615 66.3422 59.7913 67.1749 60.1724 67.7305C61.4154 69.5424 62.314 70.809 62.868 71.5303C63.4246 72.238 63.8104 72.6365 64.0256 72.7257C64.1754 72.7888 64.4899 72.7033 64.9689 72.4694C65.4424 72.2275 65.7759 72.2474 65.9692 72.5293C66.1626 72.8111 66.0247 73.3439 65.5557 74.1275C65.0947 74.9056 64.5542 75.5074 63.9341 75.9327C63.7167 76.0819 63.5195 76.1224 63.3425 76.0544C63.1711 75.9943 62.9666 75.7912 62.729 75.4449Z" fill="white"/>
<path d="M69.9352 57.0254C69.99 55.8836 70.1879 54.9183 70.529 54.1295C70.8736 53.3273 71.3323 52.7582 71.9051 52.4222C72.3767 52.1454 72.8423 52.0705 73.3016 52.1973C73.7694 52.3191 74.1441 52.6201 74.4257 53.1002C74.6728 53.5214 74.7431 53.95 74.6366 54.3861C74.5336 54.8088 74.28 55.1388 73.8757 55.376C73.5135 55.5885 73.1478 55.6502 72.7785 55.5611C72.4092 55.472 72.0765 55.2427 71.7804 54.8729C71.0555 55.6831 70.699 56.5036 70.7109 57.3345C70.7263 58.152 71.3393 59.5926 72.55 61.6562C73.4592 63.2061 74.1375 64.314 74.5848 64.98C75.0272 65.6376 75.3318 66.0024 75.4985 66.0743C75.7385 66.194 76.1099 66.1516 76.6127 65.9472C76.7742 65.8751 76.9063 65.8203 77.0088 65.7828C77.2139 65.7077 77.3959 65.6802 77.5548 65.7002C77.7137 65.7202 77.8302 65.7934 77.9043 65.9197C78.0625 66.1893 77.9385 66.528 77.5325 66.9361C77.1216 67.3356 76.4065 67.8344 75.3873 68.4323C74.4776 68.966 73.786 69.2925 73.3125 69.4117C72.8425 69.5176 72.5285 69.4358 72.3703 69.1663C72.2418 68.9473 72.3224 68.6792 72.6119 68.3622C72.9014 68.0452 73.0636 67.8198 73.0984 67.6862C73.164 67.4892 73.0961 67.1611 72.8946 66.7018C72.7016 66.2377 72.2912 65.4707 71.6637 64.401C70.8138 62.9522 70.0885 61.7642 69.488 60.8371C68.891 59.8967 68.4145 59.2195 68.0585 58.8056C67.8004 58.4815 67.5753 58.2909 67.3833 58.2337C67.1863 58.1681 66.8899 58.2514 66.494 58.4837L66.2539 58.6245C66.1192 58.7036 65.9674 58.7247 65.7986 58.6879C65.6382 58.6461 65.516 58.5536 65.432 58.4104C65.3381 58.2504 65.3173 58.0701 65.3695 57.8696C65.4168 57.6607 65.562 57.3774 65.805 57.0197C66.1012 56.5403 66.4077 56.1171 66.7245 55.7501C67.0364 55.3746 67.2723 55.14 67.4324 55.0461C67.6598 54.9126 67.9454 54.9942 68.2892 55.2907C68.628 55.5788 69.1113 56.1614 69.7391 57.0385L69.9352 57.0254Z" fill="white"/>
<path d="M85.8908 51.7209L92.5214 48.4082C92.7223 48.3078 92.8403 48.2052 92.8752 48.1004C92.9058 47.9868 92.8688 47.8252 92.764 47.6156C92.2533 46.5935 91.4849 45.9185 90.4587 45.5906C89.4281 45.254 88.3843 45.3498 87.3272 45.8779C86.7681 46.1572 86.2963 46.5458 85.9119 47.0435C85.5361 47.5369 85.2695 48.1068 85.1121 48.7531C84.9897 49.2728 84.9393 49.7947 84.961 50.3188C84.9914 50.8385 85.0852 51.2556 85.2423 51.5701C85.3121 51.7098 85.3929 51.795 85.4846 51.8256C85.5807 51.8431 85.7161 51.8082 85.8908 51.7209ZM94.67 48.7429L86.4014 52.8741C86.2267 52.9614 86.1218 53.0574 86.0869 53.1622C86.0606 53.2627 86.0977 53.4133 86.1981 53.6143C87.0143 55.2479 88.1167 56.3728 89.5053 56.989C90.8896 57.5965 92.2544 57.5642 93.5997 56.892C94.1239 56.6301 94.5869 56.2896 94.9888 55.8705C95.3995 55.447 95.7228 54.9688 95.9588 54.4361C96.0855 54.1654 96.2276 53.7287 96.385 53.126C96.5512 52.519 96.7609 52.1522 97.0143 52.0257C97.1628 51.9515 97.3091 51.9384 97.4532 51.9865C97.5929 52.0258 97.6977 52.1154 97.7675 52.2552C97.8636 52.4474 97.9094 52.692 97.9049 52.9889C97.9048 53.2728 97.8567 53.5916 97.7605 53.9453C97.4676 54.9978 96.9847 55.9322 96.3119 56.7487C95.6434 57.5521 94.8156 58.2004 93.8285 58.6936C91.959 59.6276 90.0853 59.7559 88.2076 59.0784C86.3342 58.3878 84.9043 57.0553 83.9179 55.081C82.8704 52.9844 82.6461 50.9295 83.245 48.9163C83.8396 46.8944 85.1066 45.399 87.046 44.4301C88.7233 43.592 90.2912 43.3982 91.7497 43.8484C93.2083 44.2987 94.3391 45.3276 95.1422 46.935C95.4041 47.4591 95.5175 47.8282 95.4825 48.0422C95.4475 48.2562 95.1767 48.4898 94.67 48.7429Z" fill="white"/>
<path d="M104.331 39.0398C104.397 39.2026 104.455 39.3057 104.504 39.349C104.549 39.3832 104.599 39.3893 104.654 39.3673C104.78 39.3159 104.898 39.0732 105.006 38.6392C105.092 38.2779 105.173 37.9973 105.25 37.7975C105.477 37.1362 105.823 36.5741 106.288 36.1112C106.75 35.6392 107.339 35.2581 108.054 34.968C109.347 34.4428 110.515 34.359 111.556 34.7165C112.602 35.0612 113.558 35.8588 114.424 37.1094C114.578 37.3317 114.743 37.6228 114.921 37.9828C115.095 38.3337 115.307 38.8169 115.556 39.4322C115.637 39.6313 115.763 39.9543 115.934 40.4014C116.105 40.8485 116.242 41.1987 116.345 41.452C116.536 41.9226 116.742 42.4184 116.964 42.9396C117.195 43.4571 117.44 43.9953 117.698 44.5544C117.886 44.9633 118.05 45.239 118.192 45.3816C118.331 45.5151 118.513 45.5994 118.738 45.6345C118.828 45.6504 118.989 45.6433 119.219 45.6131C119.701 45.5544 119.992 45.6473 120.091 45.8916C120.208 46.1812 120.082 46.4801 119.712 46.7884C119.338 47.0877 118.667 47.4338 117.699 47.8268C116.739 48.2161 116.021 48.4337 115.545 48.4796C115.064 48.5164 114.765 48.3901 114.648 48.1005C114.552 47.8653 114.687 47.5998 115.052 47.3042C115.413 46.9995 115.613 46.7392 115.652 46.5232C115.684 46.3417 115.584 45.9133 115.352 45.2381C115.12 44.5628 114.501 42.9855 113.495 40.5061C112.797 38.7869 112.055 37.6599 111.269 37.1253C110.492 36.5869 109.551 36.5418 108.447 36.9898C107.732 37.2799 107.132 37.7082 106.645 38.2746C106.158 38.8411 105.801 39.5338 105.575 40.3528C105.465 40.7033 105.43 41.0599 105.472 41.4223C105.523 41.7812 105.678 42.2818 105.939 42.9243L106.347 43.9287C107.173 45.9647 107.753 47.3418 108.087 48.06C108.417 48.7693 108.658 49.1824 108.811 49.2995C108.989 49.4274 109.314 49.4747 109.786 49.4415C110.262 49.3956 110.548 49.4903 110.644 49.7256C110.761 50.0151 110.63 50.3159 110.251 50.6279C109.877 50.9272 109.211 51.2715 108.252 51.6607C107.283 52.0537 106.556 52.275 106.071 52.3245C105.581 52.3651 105.278 52.2406 105.16 51.951C105.065 51.7157 105.199 51.4503 105.564 51.1547C105.934 50.8464 106.139 50.5842 106.178 50.3682C106.204 50.1468 106.072 49.6261 105.781 48.8061C105.496 47.9733 104.978 46.634 104.229 44.788C103.66 43.3854 103.188 42.3124 102.812 41.569C102.446 40.8219 102.169 40.3862 101.981 40.262C101.849 40.1684 101.53 40.1872 101.024 40.3185C100.515 40.4408 100.197 40.3435 100.068 40.0268C99.9358 39.7011 100.178 39.2075 100.795 38.5461C101.417 37.872 102.077 37.3936 102.774 37.1108C103.018 37.0117 103.219 37.0143 103.377 37.1187C103.536 37.223 103.696 37.4743 103.857 37.8725L104.331 39.0398Z" fill="white"/>
<path d="M156.249 31.6728C156.42 31.6343 156.748 30.2644 157.232 27.5633L157.331 27.0006C157.933 23.5323 158.347 20.9219 158.574 19.1694C158.8 17.4168 158.862 16.3119 158.76 15.8546C158.702 15.5973 158.588 15.4027 158.418 15.2707C158.258 15.1366 158.024 15.054 157.717 15.0229C157.603 15.0084 157.45 14.9928 157.256 14.9764C156.594 14.925 156.231 14.7564 156.166 14.4705C156.091 14.1371 156.295 13.841 156.778 13.5825C157.269 13.3218 158.12 13.0555 159.331 12.7835C160.541 12.5116 161.425 12.393 161.983 12.4277C162.539 12.4528 162.854 12.6274 162.926 12.9513C162.965 13.1228 162.926 13.2818 162.808 13.4282C162.701 13.5726 162.496 13.7288 162.193 13.8968C161.739 14.149 161.418 14.4114 161.229 14.684C161.038 14.9472 160.858 15.4629 160.691 16.2313C160.592 16.6838 160.261 18.8401 159.697 22.7003C159.143 26.5583 158.556 30.2236 157.935 33.6962C157.91 33.8519 157.871 34.0808 157.819 34.3828C157.589 35.6756 157.293 36.3627 156.931 36.4441C156.378 36.5683 154.239 33.776 150.514 28.0671C148.389 24.8013 146.635 22.1426 145.253 20.091C145.237 20.0645 145.2 20.008 145.14 19.9212C144.53 18.9874 143.995 18.4569 143.536 18.3299C143.409 18.2984 143.202 18.2698 142.916 18.244C142.304 18.1914 141.966 18.0222 141.902 17.7364C141.827 17.4029 142.071 17.0877 142.635 16.7908C143.208 16.4918 144.138 16.1978 145.424 15.9087C146.701 15.6218 147.658 15.4919 148.295 15.5189C148.931 15.546 149.287 15.7263 149.362 16.0598C149.428 16.3551 149.115 16.6959 148.421 17.0821C148.296 17.1502 148.207 17.2002 148.154 17.2321C147.897 17.3799 147.721 17.5546 147.626 17.756C147.539 17.9459 147.527 18.1837 147.591 18.4695C147.763 19.2318 148.805 21.0395 150.717 23.8927C151.241 24.6658 151.646 25.2654 151.932 25.6916C153.434 27.9664 154.498 29.5389 155.124 30.4092C155.76 31.2773 156.134 31.6985 156.249 31.6728Z" fill="white"/>
<path d="M174.235 24.2676C174.512 26.3192 175.23 27.9516 176.39 29.1646C177.548 30.3679 178.853 30.8714 180.304 30.6751C181.785 30.4749 182.874 29.7856 183.572 28.6072C184.28 27.4275 184.506 25.8941 184.251 24.007C183.985 22.0425 183.256 20.4757 182.063 19.3066C180.87 18.1375 179.514 17.6557 177.995 17.8612C176.659 18.0418 175.638 18.7219 174.93 19.9016C174.232 21.08 174 22.5353 174.235 24.2676ZM171.737 25.4774C171.426 23.1741 171.912 21.1572 173.196 19.4266C174.488 17.6851 176.251 16.6631 178.487 16.3608C180.616 16.0729 182.463 16.5426 184.028 17.7697C185.592 18.9871 186.521 20.6845 186.816 22.862C187.131 25.1943 186.654 27.2395 185.384 28.9979C184.113 30.7465 182.383 31.7687 180.196 32.0644C178.087 32.3497 176.222 31.8627 174.603 30.6034C172.983 29.3345 172.028 27.6258 171.737 25.4774Z" fill="white"/>
<path d="M198.477 29.3994C198.201 29.7085 197.991 30.053 197.846 30.4328C197.711 30.8122 197.655 31.2017 197.677 31.6015C197.731 32.5375 198.187 33.2599 199.047 33.7687C199.918 34.2867 201.06 34.5056 202.474 34.4255C204.092 34.3338 205.404 33.9172 206.408 33.1756C207.423 32.4432 207.902 31.5749 207.845 30.5706C207.811 29.9564 207.589 29.4994 207.181 29.1997C206.773 28.9001 206.198 28.7713 205.457 28.8132C205.204 28.8276 204.54 28.9337 203.465 29.1315C202.39 29.3196 201.433 29.4373 200.595 29.4848C200.185 29.508 199.809 29.5147 199.466 29.5048C199.123 29.4851 198.793 29.45 198.477 29.3994ZM197.892 23.7398C197.175 23.3403 196.623 22.8238 196.235 22.1905C195.847 21.5571 195.629 20.8163 195.581 19.9681C195.491 18.3788 196.001 17.0343 197.113 15.9345C198.224 14.8347 199.677 14.234 201.471 14.1324C202.046 14.0998 202.763 14.1472 203.621 14.2747C204.479 14.3924 205.049 14.4432 205.332 14.4272C205.77 14.4023 206.199 14.2802 206.617 14.0609C207.034 13.8319 207.412 13.517 207.752 13.1163C207.95 13.1735 208.103 13.2774 208.209 13.4278C208.325 13.568 208.389 13.7551 208.403 13.9891C208.425 14.3791 208.29 14.7584 207.998 15.1271C207.705 15.4958 207.269 15.8286 206.69 16.1256C206.967 16.5304 207.176 16.9441 207.317 17.3664C207.468 17.7785 207.556 18.2088 207.581 18.6573C207.671 20.2465 207.137 21.6022 205.978 22.7242C204.828 23.8457 203.332 24.4587 201.49 24.5631C201.051 24.5879 200.614 24.5686 200.181 24.5052C199.747 24.4417 199.325 24.3385 198.916 24.1954C198.496 24.3854 198.169 24.6534 197.934 24.9992C197.7 25.3451 197.593 25.713 197.615 26.103C197.64 26.532 197.85 26.8771 198.246 27.1383C198.652 27.399 199.148 27.5127 199.733 27.4796C200.376 27.4431 201.41 27.2966 202.833 27.0399C204.256 26.7832 205.358 26.6327 206.138 26.5885C207.318 26.5217 208.256 26.7669 208.953 27.3241C209.659 27.871 210.041 28.6612 210.099 29.6947C210.189 31.2742 209.474 32.64 207.955 33.7922C206.436 34.9542 204.463 35.604 202.035 35.7415C200.153 35.8481 198.615 35.5489 197.421 34.8438C196.237 34.148 195.61 33.1858 195.541 31.9573C195.507 31.3625 195.629 30.8323 195.906 30.3667C196.182 29.9011 196.646 29.4493 197.296 29.0115C196.726 28.7992 196.295 28.5253 196.002 28.1898C195.709 27.8542 195.549 27.4379 195.521 26.9406C195.485 26.3069 195.667 25.7195 196.067 25.1784C196.466 24.6373 197.075 24.1578 197.892 23.7398ZM197.904 19.543C197.973 20.752 198.355 21.7134 199.05 22.4271C199.746 23.1408 200.616 23.4682 201.659 23.4091C202.751 23.3472 203.627 22.921 204.286 22.1305C204.946 21.34 205.242 20.3597 205.176 19.1897C205.107 17.971 204.71 17.0055 203.985 16.2935C203.26 15.5814 202.346 15.2565 201.245 15.319C200.231 15.3764 199.404 15.8047 198.765 16.6039C198.125 17.403 197.838 18.3827 197.904 19.543Z" fill="white"/>
<path d="M219.469 19.6847L226.88 19.8158C227.105 19.8198 227.257 19.7834 227.336 19.7067C227.416 19.6202 227.458 19.4598 227.462 19.2254C227.482 18.083 227.113 17.1291 226.355 16.3636C225.597 15.5884 224.628 15.1903 223.446 15.1694C222.821 15.1583 222.223 15.2845 221.652 15.5479C221.091 15.8114 220.591 16.1933 220.152 16.6934C219.803 17.0975 219.517 17.5368 219.294 18.0115C219.08 18.4863 218.97 18.8994 218.964 19.2509C218.961 19.4072 218.994 19.5201 219.061 19.5896C219.138 19.6496 219.274 19.6813 219.469 19.6847ZM228.63 21.1067L219.388 20.9433C219.193 20.9398 219.056 20.9765 218.976 21.0532C218.907 21.1301 218.87 21.2808 218.866 21.5054C218.833 23.3313 219.29 24.8386 220.236 26.0274C221.182 27.2064 222.407 27.8093 223.911 27.8358C224.497 27.8462 225.065 27.7586 225.615 27.573C226.175 27.3875 226.683 27.1133 227.139 26.7502C227.376 26.5688 227.704 26.2474 228.123 25.786C228.551 25.3247 228.906 25.0966 229.189 25.1016C229.355 25.1046 229.491 25.1607 229.597 25.27C229.702 25.3695 229.754 25.4974 229.751 25.6536C229.747 25.8684 229.675 26.1065 229.533 26.3677C229.402 26.6193 229.212 26.8796 228.963 27.1487C228.216 27.9462 227.356 28.5512 226.381 28.9637C225.417 29.3666 224.383 29.5583 223.28 29.5388C221.19 29.5019 219.47 28.7487 218.119 27.2792C216.778 25.8002 216.127 23.9574 216.166 21.7507C216.207 19.4073 216.959 17.4818 218.421 15.9742C219.884 14.4569 221.699 13.7174 223.867 13.7557C225.742 13.7889 227.221 14.3425 228.306 15.4165C229.391 16.4905 229.917 17.9259 229.885 19.7225C229.875 20.3083 229.805 20.688 229.675 20.8615C229.545 21.035 229.196 21.1167 228.63 21.1067Z" fill="white"/>
<path d="M241.38 18.3896C241.083 22.2062 240.909 24.7443 240.86 26.0041C240.811 27.2541 240.838 27.9761 240.941 28.1702C241.043 28.3643 241.313 28.5519 241.749 28.7328C242.196 28.9048 242.41 29.1174 242.39 29.3705C242.366 29.6821 242.114 29.8926 241.635 30.0022C241.167 30.1029 240.417 30.1129 239.385 30.0325C238.343 29.9513 237.594 29.8243 237.137 29.6515C236.681 29.469 236.466 29.222 236.49 28.9105C236.51 28.6573 236.749 28.4801 237.207 28.3787C237.676 28.2683 237.976 28.1252 238.108 27.9493C238.219 27.7817 238.327 27.2758 238.432 26.4318C238.537 25.5781 238.683 23.9586 238.869 21.5732L239.065 19.0613C239.367 15.1864 239.518 12.7542 239.516 11.7648C239.516 10.7656 239.42 10.1802 239.227 10.0085C239.172 9.96495 238.904 9.89015 238.422 9.78404C237.941 9.67793 237.713 9.4545 237.74 9.11373C237.754 8.92875 237.855 8.7652 238.042 8.62309C238.23 8.48097 238.52 8.34196 238.912 8.20606C239.444 8.05157 239.962 7.93527 240.468 7.85715C240.984 7.77005 241.354 7.73524 241.578 7.7527C241.87 7.77547 242.063 7.86892 242.158 8.03305C242.264 8.1882 242.3 8.4751 242.268 8.89375C242.26 8.99111 242.227 9.29217 242.168 9.79693C241.868 12.6338 241.606 15.498 241.38 18.3896Z" fill="white"/>
<path d="M258.208 16.7631C258.417 16.6724 258.587 16.6112 258.72 16.5793C258.863 16.5391 258.983 16.5253 259.08 16.5381C259.438 16.5852 259.752 16.9664 260.023 17.6816C260.294 18.3871 260.379 19.1272 260.277 19.9018C260.234 20.231 260.132 20.4786 259.972 20.6447C259.813 20.8109 259.617 20.8786 259.384 20.848C259.045 20.8034 258.783 20.4735 258.598 19.8581C258.557 19.7246 258.525 19.6269 258.504 19.565C258.259 18.8039 257.96 18.272 257.606 17.9693C257.252 17.6666 256.746 17.4719 256.087 17.3852C255.4 17.2948 254.785 17.4355 254.244 17.8075C253.713 18.1711 253.407 18.6675 253.324 19.2969C253.176 20.42 254.258 21.6656 256.57 23.0337C257.026 23.3104 257.377 23.5241 257.623 23.6746C258.416 24.1631 258.998 24.7913 259.37 25.5593C259.753 26.3189 259.887 27.1343 259.772 28.0057C259.596 29.3419 258.973 30.368 257.904 31.0842C256.835 31.8004 255.535 32.0578 254.005 31.8564C253.521 31.7927 252.98 31.6378 252.382 31.3916C251.792 31.1564 251.435 31.0306 251.309 31.014C251.173 30.9961 250.982 31.0252 250.736 31.1011C250.499 31.1783 250.337 31.2112 250.25 31.1997C249.979 31.164 249.74 30.773 249.533 30.0267C249.326 29.2804 249.273 28.5248 249.373 27.7599C249.411 27.4695 249.519 27.2473 249.697 27.0934C249.886 26.9311 250.106 26.8665 250.358 26.8997C250.639 26.9366 250.909 27.2775 251.169 27.9224C251.264 28.1714 251.338 28.3584 251.391 28.4835C251.63 29.0568 251.988 29.5224 252.463 29.8805C252.947 30.2397 253.509 30.4614 254.148 30.5455C255.029 30.6615 255.777 30.5186 256.391 30.1168C257.006 29.715 257.362 29.1414 257.46 28.3958C257.538 27.8052 257.444 27.2856 257.178 26.8369C256.913 26.3785 256.44 25.9272 255.76 25.4831C255.515 25.3228 255.126 25.0992 254.593 24.8123C253.188 24.0364 252.197 23.2905 251.622 22.5745C251.291 22.1665 251.055 21.7168 250.913 21.2253C250.78 20.7351 250.749 20.2237 250.819 19.6912C250.979 18.4809 251.56 17.5429 252.564 16.8772C253.567 16.2114 254.766 15.9703 256.161 16.1538C256.451 16.1921 256.767 16.2632 257.108 16.3671C257.449 16.4711 257.815 16.6031 258.208 16.7631Z" fill="white"/>
<path d="M269.891 20.5352L268.653 20.3026C268.509 20.2756 268.403 20.2308 268.336 20.1684C268.27 20.0964 268.246 20.0124 268.264 19.9165L268.339 19.5133C268.394 19.2254 268.855 18.7508 269.725 18.0894C269.977 17.9083 270.168 17.7653 270.297 17.6603C270.436 17.5572 270.622 17.4133 270.855 17.2286C271.73 16.5384 272.297 16.2177 272.556 16.2663C272.71 16.2952 272.818 16.3552 272.88 16.4464C272.952 16.5394 272.975 16.6579 272.948 16.8019L272.455 19.4221L275.421 19.9792C275.613 20.0153 275.738 20.0885 275.797 20.1989C275.867 20.3015 275.883 20.4584 275.843 20.6695L275.77 21.0582C275.734 21.2502 275.664 21.386 275.559 21.4658C275.457 21.5359 275.314 21.5539 275.132 21.5196L272.483 21.022C272.387 21.004 272.302 21.0327 272.228 21.1083C272.156 21.1743 272.106 21.284 272.077 21.4376L270.576 29.4277C270.349 30.637 270.31 31.4793 270.459 31.9545C270.619 32.4218 270.992 32.7105 271.578 32.8205C271.856 32.8728 272.197 32.8573 272.6 32.774C273.005 32.6812 273.256 32.6438 273.352 32.6618C273.505 32.6907 273.617 32.7564 273.687 32.859C273.767 32.9634 273.793 33.0876 273.766 33.2316C273.687 33.6539 273.288 34.0062 272.569 34.2885C271.852 34.5612 271.095 34.6227 270.299 34.4731C269.253 34.2765 268.564 33.8144 268.234 33.0866C267.904 32.3588 267.882 31.2319 268.169 29.7058L269.891 20.5352Z" fill="white"/>
<path d="M285.137 27.6084L292.323 29.4248C292.541 29.4799 292.698 29.4791 292.792 29.4225C292.89 29.3564 292.967 29.2098 293.025 28.9826C293.305 27.8748 293.163 26.8619 292.599 25.9438C292.038 25.0163 291.184 24.4077 290.039 24.1181C289.433 23.9649 288.822 23.9515 288.206 24.0778C287.599 24.2065 287.025 24.4643 286.484 24.8514C286.052 25.1653 285.673 25.5278 285.348 25.9391C285.032 26.3528 284.831 26.73 284.744 27.0709C284.706 27.2224 284.712 27.3396 284.761 27.4226C284.823 27.4986 284.948 27.5605 285.137 27.6084ZM293.733 31.0805L284.772 28.8154C284.582 28.7675 284.44 28.7719 284.345 28.8285C284.26 28.8874 284.19 29.0258 284.135 29.2436C283.687 31.0141 283.789 32.5858 284.439 33.9589C285.091 35.3225 286.146 36.1886 287.605 36.5572C288.173 36.7007 288.746 36.7449 289.324 36.6895C289.911 36.6366 290.468 36.4853 290.995 36.2356C291.267 36.1131 291.66 35.8749 292.173 35.521C292.695 35.1695 293.093 35.0284 293.367 35.0978C293.528 35.1385 293.648 35.2241 293.726 35.3545C293.806 35.4755 293.827 35.6118 293.788 35.7633C293.736 35.9715 293.611 36.1868 293.414 36.4089C293.228 36.6239 292.984 36.8341 292.68 37.0394C291.771 37.6457 290.796 38.0387 289.753 38.2184C288.722 38.3909 287.672 38.342 286.602 38.0716C284.576 37.5594 283.073 36.434 282.092 34.6953C281.123 32.9496 280.909 31.0068 281.45 28.8671C282.024 26.5948 283.195 24.8913 284.963 23.7567C286.733 22.6126 288.668 22.3062 290.77 22.8375C292.588 23.297 293.903 24.1732 294.714 25.4662C295.526 26.7591 295.711 28.2766 295.271 30.0187C295.127 30.5868 294.972 30.9405 294.806 31.0798C294.64 31.2191 294.282 31.2194 293.733 31.0805Z" fill="white"/>
<path d="M306.798 22.297C306.94 21.8503 307.207 21.5253 307.599 21.3221C307.995 21.1097 308.411 21.0729 308.848 21.212C309.286 21.351 309.598 21.5937 309.785 21.94C309.982 22.2894 310.015 22.6688 309.885 23.0783C309.752 23.4971 309.489 23.8081 309.096 24.0113C308.704 24.2144 308.293 24.248 307.865 24.1119C307.447 23.9788 307.133 23.7408 306.924 23.3978C306.718 23.0455 306.676 22.6786 306.798 22.297ZM302.927 36.3606C303.64 34.1176 304.133 32.4707 304.405 31.4199C304.681 30.3598 304.784 29.7113 304.716 29.4745C304.674 29.3175 304.416 29.1281 303.944 28.9062C303.474 28.675 303.291 28.3965 303.395 28.0708C303.454 27.8846 303.58 27.7454 303.773 27.6531C303.979 27.5545 304.298 27.4867 304.73 27.4498C305.254 27.4115 305.762 27.409 306.254 27.4423C306.757 27.4692 307.144 27.5255 307.414 27.6113C307.665 27.6912 307.819 27.8218 307.874 28.0033C307.932 28.1754 307.897 28.4616 307.77 28.8618C307.74 28.9549 307.65 29.2233 307.499 29.667C306.614 32.2244 305.752 34.8246 304.912 37.4678C304.51 38.7335 304.267 39.594 304.184 40.0491C304.1 40.5043 304.105 40.8131 304.197 40.9755C304.269 41.1011 304.482 41.2865 304.835 41.5317C305.187 41.7769 305.325 42.0205 305.248 42.2625C305.156 42.551 304.869 42.6956 304.388 42.6962C303.906 42.6968 303.195 42.5477 302.255 42.2489C301.268 41.9354 300.572 41.6425 300.167 41.3702C299.774 41.0916 299.625 40.8034 299.72 40.5056C299.796 40.2636 300.05 40.1442 300.479 40.1474C300.908 40.1507 301.189 40.122 301.321 40.0615C301.502 39.9756 301.705 39.6762 301.929 39.1635C302.166 38.6444 302.499 37.7101 302.927 36.3606Z" fill="white"/>
<path d="M320.069 34.435C320.005 34.5988 319.976 34.7133 319.982 34.7785C319.992 34.8346 320.024 34.8733 320.078 34.8946C320.206 34.9442 320.458 34.8485 320.835 34.6075C321.145 34.4034 321.396 34.2551 321.59 34.1627C322.209 33.8378 322.846 33.667 323.503 33.6501C324.163 33.6242 324.852 33.7512 325.571 34.0311C326.872 34.5379 327.778 35.2786 328.29 36.2533C328.813 37.2223 328.961 38.4587 328.731 39.9624C328.69 40.2293 328.611 40.5547 328.493 40.9384C328.378 41.313 328.201 41.8098 327.96 42.4285C327.882 42.6287 327.751 42.95 327.569 43.3924C327.386 43.8347 327.245 44.1833 327.146 44.4381C326.961 44.9113 326.771 45.4135 326.574 45.9449C326.387 46.4798 326.195 47.0392 325.999 47.6231C325.855 48.0488 325.785 48.3622 325.79 48.5635C325.799 48.7556 325.874 48.9417 326.013 49.1218C326.068 49.1957 326.19 49.3007 326.378 49.4368C326.769 49.7252 326.916 49.9922 326.82 50.2379C326.707 50.5291 326.41 50.6597 325.929 50.6296C325.452 50.5904 324.726 50.3813 323.752 50.002C322.788 49.6264 322.117 49.2916 321.738 48.9976C321.364 48.6945 321.233 48.3974 321.347 48.1062C321.439 47.8696 321.719 47.7691 322.187 47.8048C322.659 47.8313 322.983 47.7794 323.16 47.649C323.307 47.5388 323.529 47.1587 323.824 46.5086C324.119 45.8585 324.752 44.2867 325.723 41.7934C326.397 40.0644 326.631 38.7357 326.427 37.8072C326.232 36.8823 325.579 36.2036 324.469 35.7713C323.75 35.4913 323.019 35.3901 322.276 35.4676C321.533 35.5451 320.798 35.8039 320.072 36.2439C319.75 36.4228 319.481 36.6583 319.262 36.9504C319.052 37.2461 318.822 37.717 318.57 38.3631L318.177 39.3732C317.38 41.4207 316.855 42.82 316.605 43.5713C316.358 44.3134 316.25 44.7796 316.28 44.9697C316.322 45.1852 316.526 45.4426 316.891 45.7422C317.269 46.0361 317.412 46.3014 317.32 46.538C317.207 46.8292 316.905 46.958 316.415 46.9244C315.938 46.8852 315.217 46.6778 314.252 46.3021C313.279 45.9229 312.598 45.5846 312.211 45.2871C311.827 44.9804 311.692 44.6815 311.806 44.3903C311.898 44.1537 312.178 44.0533 312.646 44.0889C313.127 44.119 313.456 44.0688 313.632 43.9384C313.803 43.7954 314.065 43.3261 314.416 42.5303C314.781 41.7291 315.325 40.4003 316.048 38.5439C316.597 37.1334 316.99 36.029 317.228 35.2307C317.474 34.436 317.572 33.9291 317.521 33.7101C317.489 33.5508 317.244 33.3454 316.787 33.0939C316.333 32.8333 316.168 32.5437 316.292 32.2252C316.419 31.8976 316.935 31.7052 317.837 31.648C318.752 31.5853 319.56 31.6903 320.261 31.9632C320.507 32.0589 320.651 32.199 320.695 32.3836C320.738 32.5682 320.682 32.8607 320.526 33.2611L320.069 34.435Z" fill="white"/>
<path d="M334.49 53.1274C334.701 52.6761 335.007 52.3665 335.409 52.1984C335.82 52.0345 336.242 52.0537 336.675 52.2562C337.135 52.471 337.423 52.8477 337.538 53.3864C337.662 53.9292 337.579 54.5103 337.29 55.1297C337.079 55.581 336.772 56.0086 336.367 56.4127C335.959 56.8256 335.364 57.2915 334.583 57.8106C334.119 58.1113 333.786 58.306 333.583 58.3944C333.38 58.4829 333.225 58.5023 333.119 58.4527C332.933 58.366 332.788 58.2497 332.684 58.104C332.575 57.9671 332.542 57.8544 332.583 57.7659C332.616 57.6951 332.983 57.4406 333.683 57.0024C334.384 56.5642 334.823 56.1549 335 55.7744C335.058 55.6505 335.079 55.5473 335.064 55.4647C335.049 55.3821 334.965 55.262 334.812 55.1044C334.533 54.8017 334.365 54.4917 334.309 54.1743C334.256 53.848 334.317 53.4991 334.49 53.1274Z" fill="white"/>
<path d="M374.309 63.3046C374.536 63.5461 374.766 63.766 374.998 63.9642C375.236 64.1542 375.469 64.3239 375.698 64.4734C377.44 65.6104 378.954 66.132 380.239 66.0382C381.533 65.9498 382.61 65.2473 383.469 63.9307C384.302 62.655 384.561 61.4715 384.247 60.3803C383.942 59.2944 383.057 58.2737 381.593 57.3182C380.62 56.683 380.001 56.3261 379.738 56.2474C379.483 56.174 379.265 56.2127 379.085 56.3634C378.902 56.5358 378.386 57.2369 377.537 58.4668C376.693 59.6884 375.617 61.301 374.309 63.3046ZM386.136 65.3391C385.015 67.0564 383.503 67.9527 381.599 68.0281C379.696 68.1034 377.538 67.3538 375.126 65.7791C374.987 65.6883 374.824 65.5707 374.639 65.4263C374.453 65.2818 374.336 65.1936 374.287 65.1615C373.902 64.9107 373.622 64.8213 373.447 64.8934C373.285 64.9627 372.991 65.3244 372.564 65.9787L372.42 66.1995C371.357 67.8268 370.603 69.0368 370.155 69.8293C369.716 70.6272 369.502 71.1345 369.512 71.3511C369.521 71.4972 369.709 71.8001 370.073 72.2598C370.446 72.7247 370.555 73.0758 370.4 73.313C370.203 73.6155 369.83 73.6869 369.281 73.527C368.741 73.3724 367.951 72.9562 366.912 72.2783C365.882 71.6057 365.185 71.0572 364.82 70.6328C364.461 70.2002 364.383 69.8285 364.586 69.5177C364.741 69.2806 365.102 69.2364 365.67 69.3853C366.245 69.5395 366.595 69.593 366.719 69.5458C366.957 69.4676 367.437 68.9294 368.158 67.931C368.888 66.938 370.147 65.0717 371.935 62.3322C373.707 59.6172 374.898 57.7299 375.508 56.6703C376.127 55.6161 376.424 54.9645 376.4 54.7155C376.393 54.5829 376.203 54.2841 375.83 53.8191C375.465 53.3595 375.358 53.0152 375.507 52.7862C375.635 52.5899 375.817 52.4812 376.053 52.4599C376.302 52.4358 376.587 52.4994 376.908 52.6507C376.908 52.6507 376.945 52.6747 377.018 52.7228C378.816 53.7563 380.909 55.0523 383.297 56.611C385.194 57.8494 386.391 59.2313 386.888 60.7569C387.385 62.2824 387.134 63.8098 386.136 65.3391Z" fill="white"/>
<path d="M393.221 74.4328C393.114 74.5719 393.054 74.6736 393.041 74.7379C393.034 74.7944 393.054 74.8406 393.1 74.8764C393.209 74.96 393.477 74.9395 393.907 74.8148C394.262 74.7066 394.545 74.6355 394.757 74.6014C395.443 74.4648 396.102 74.4811 396.737 74.6504C397.377 74.8119 398.003 75.1286 398.613 75.6003C399.718 76.4542 400.378 77.4208 400.593 78.5002C400.822 79.5778 400.614 80.8054 399.969 82.183C399.854 82.4274 399.686 82.717 399.464 83.0518C399.248 83.3788 398.937 83.805 398.531 84.3305C398.4 84.5005 398.184 84.7718 397.884 85.1445C397.584 85.5172 397.35 85.8117 397.183 86.0281C396.801 86.5226 396.18 87.3576 395.321 88.5328C395.25 88.6256 395.196 88.6951 395.16 88.7415C394.904 89.1363 394.754 89.4271 394.708 89.614C394.668 89.7931 394.69 89.9887 394.773 90.2009C394.805 90.2873 394.892 90.4224 395.034 90.6061C395.327 90.9931 395.393 91.291 395.232 91.4996C395.041 91.7469 394.719 91.7882 394.266 91.6234C393.819 91.451 393.182 91.0453 392.356 90.4064C391.536 89.7735 390.987 89.2626 390.708 88.8738C390.434 88.4772 390.393 88.1553 390.584 87.908C390.739 87.7071 391.036 87.6899 391.475 87.8564C391.92 88.0151 392.246 88.0569 392.452 87.9818C392.625 87.9178 392.945 87.6158 393.411 87.0755C393.878 86.5353 394.93 85.2065 396.566 83.0892C397.7 81.621 398.301 80.4127 398.367 79.4643C398.441 78.522 398.007 77.6865 397.064 76.9581C396.454 76.4863 395.781 76.1827 395.047 76.0471C394.312 75.9115 393.534 75.9521 392.713 76.1689C392.354 76.2496 392.029 76.3993 391.736 76.6178C391.452 76.8422 391.098 77.2288 390.674 77.7774L390.011 78.6351C388.667 80.3738 387.769 81.5681 387.317 82.2179C386.87 82.86 386.634 83.2765 386.61 83.4676C386.589 83.6861 386.712 83.9906 386.978 84.3812C387.257 84.77 387.32 85.0649 387.164 85.2658C386.973 85.5131 386.647 85.5514 386.187 85.3807C385.74 85.2082 385.107 84.8055 384.288 84.1726C383.461 83.5337 382.904 83.0168 382.617 82.622C382.336 82.2195 382.29 81.8946 382.481 81.6473C382.637 81.4464 382.934 81.4292 383.373 81.5957C383.826 81.7604 384.155 81.8052 384.361 81.73C384.554 81.6566 384.961 81.2493 385.583 80.5082C386.213 79.773 387.394 78.285 389.125 76.044C391.466 73.0149 393.048 70.9114 393.872 69.7337C394.709 68.5542 395.138 67.8239 395.157 67.5429C395.173 67.3947 394.993 67.1323 394.618 66.7558C394.248 66.3716 394.168 66.0442 394.377 65.7737C394.49 65.6269 394.664 65.5454 394.899 65.5293C395.134 65.5131 395.452 65.5558 395.855 65.6573C396.384 65.8192 396.882 66.0061 397.347 66.2179C397.827 66.4279 398.155 66.6016 398.333 66.7389C398.565 66.918 398.676 67.1023 398.665 67.2916C398.668 67.4792 398.541 67.7391 398.285 68.0714C398.207 68.1718 397.993 68.4324 397.644 68.8532C396.337 70.4479 395.12 71.9755 393.991 73.436L393.221 74.4328Z" fill="white"/>
<path d="M407.768 101.429C409.894 103.402 411.991 104.322 414.059 104.189C416.134 104.063 418.208 102.884 420.28 100.65C422.473 98.2882 423.566 96.0188 423.561 93.8423C423.569 91.6653 422.482 89.5637 420.299 87.5377C419.533 86.8269 418.894 86.2876 418.383 85.9197C417.879 85.5585 417.516 85.382 417.295 85.3902C417.027 85.4072 416.405 85.883 415.431 86.8177C414.457 87.7524 412.967 89.3006 410.961 91.4624C408.955 93.6242 407.558 95.1724 406.771 96.107C405.983 97.0417 405.53 97.6805 405.412 98.0235C405.292 98.3251 405.429 98.7588 405.823 99.3245C406.218 99.8903 406.866 100.592 407.768 101.429ZM403.029 99.1697C402.943 99.09 402.751 98.9314 402.452 98.6938C402.16 98.4628 401.921 98.261 401.735 98.0883C401.098 97.4971 400.685 97.008 400.498 96.6211C400.318 96.2409 400.344 95.9255 400.577 95.675C400.77 95.4674 401.133 95.4849 401.667 95.7275C402.209 95.9768 402.544 96.0886 402.675 96.063C402.922 96.0262 403.486 95.5767 404.366 94.7146C405.253 93.8592 406.809 92.2324 409.035 89.8344C411.24 87.4579 412.733 85.799 413.513 84.8577C414.3 83.9231 414.703 83.331 414.722 83.0816C414.737 82.9497 414.601 82.6231 414.312 82.1018C414.03 81.5872 413.982 81.2296 414.168 81.0292C414.328 80.8574 414.525 80.7809 414.761 80.7998C415.01 80.8181 415.28 80.9289 415.571 81.1323C415.571 81.1323 415.618 81.1686 415.71 81.2411C417.414 82.6494 419.333 84.3432 421.466 86.3228C424.258 88.9135 425.741 91.6291 425.916 94.4695C426.099 97.3166 424.961 100.064 422.503 102.713C420.112 105.29 417.533 106.54 414.766 106.464C412.005 106.38 409.151 104.97 406.201 102.233C405.922 101.974 405.431 101.499 404.728 100.806C404.032 100.12 403.466 99.575 403.029 99.1697Z" fill="white"/>
</svg>
