<svg width="682" height="299" viewBox="0 0 682 299" fill="none" xmlns="http://www.w3.org/2000/svg">
  <path
    d="M138.258 261.011C138.98 260.228 139.434 259.536 139.619 258.933C139.804 258.33 139.791 257.626 139.579 256.822C139.5 256.507 139.354 256.105 139.142 255.617C138.844 254.935 138.801 254.479 139.013 254.249C139.165 254.084 139.374 254.045 139.639 254.131C139.897 254.21 140.175 254.411 140.473 254.734C141.275 255.602 141.877 256.55 142.281 257.576C142.678 258.595 142.735 259.259 142.45 259.568C142.417 259.604 142.314 259.672 142.142 259.772C141.566 260.124 141.049 260.548 140.592 261.043L134.573 267.567C133.964 268.228 133.487 268.644 133.143 268.816C132.792 268.981 132.504 268.942 132.279 268.698C132.087 268.49 132.12 268.109 132.378 267.557C132.643 266.997 132.765 266.649 132.746 266.512C132.719 266.254 132.309 265.651 131.514 264.704C130.726 263.749 129.223 262.069 127.004 259.665C124.806 257.282 123.27 255.667 122.396 254.82C121.528 253.966 120.975 253.524 120.737 253.496C120.611 253.474 120.29 253.607 119.773 253.894C119.264 254.174 118.916 254.213 118.731 254.012C118.472 253.732 118.472 253.33 118.731 252.807C118.989 252.268 119.532 251.55 120.36 250.653C121.181 249.763 121.836 249.182 122.326 248.909C122.816 248.622 123.19 248.618 123.449 248.898C123.634 249.099 123.598 249.476 123.339 250.029C123.081 250.581 122.962 250.933 122.982 251.084C123.015 251.349 123.482 252.021 124.382 253.097C125.283 254.174 126.707 255.767 128.653 257.878C130.58 259.966 131.968 261.427 132.815 262.26C133.656 263.085 134.236 263.569 134.553 263.713C134.865 263.849 135.239 263.781 135.676 263.508C136.113 263.236 136.715 262.683 137.484 261.85L138.258 261.011Z"
    fill="white"></path>
  <path
    d="M150.075 239.602C150.009 239.504 149.936 239.406 149.857 239.306C149.785 239.201 149.67 239.048 149.511 238.85C148.578 237.683 147.74 237.008 146.996 236.826C146.245 236.636 145.486 236.902 144.717 237.624C144.326 237.991 144.037 238.402 143.852 238.857C143.667 239.311 143.573 239.833 143.571 240.423C143.575 240.553 143.584 240.751 143.598 241.018C143.675 241.894 143.532 242.502 143.169 242.843C142.949 243.051 142.713 243.145 142.462 243.127C142.211 243.11 141.988 242.979 141.792 242.734C141.341 242.17 141.323 241.259 141.738 240.001C142.16 238.736 142.898 237.609 143.952 236.62C145.269 235.383 146.521 234.821 147.708 234.934C148.903 235.041 150.091 235.834 151.274 237.314C151.616 237.741 152.063 238.316 152.616 239.039C153.169 239.762 153.558 240.264 153.784 240.547C154.893 241.935 155.633 242.79 156.002 243.111C156.372 243.418 156.642 243.491 156.813 243.331C156.884 243.264 156.964 243.169 157.052 243.046C157.142 242.908 157.201 242.826 157.229 242.799C157.329 242.706 157.431 242.67 157.536 242.692C157.642 242.699 157.737 242.756 157.823 242.863C158.036 243.13 158.089 243.555 157.981 244.137C157.873 244.719 157.641 245.177 157.285 245.511C156.865 245.906 156.016 245.849 154.737 245.341C154.627 245.297 154.537 245.262 154.466 245.235L154.316 245.375C154.246 246.363 154.037 247.24 153.69 248.006C153.343 248.773 152.839 249.467 152.177 250.089C151.123 251.078 150.036 251.566 148.915 251.55C147.8 251.528 146.832 251.003 146.008 249.973C145.033 248.752 144.687 247.408 144.971 245.939C145.262 244.464 146.159 243.021 147.661 241.61C148.038 241.256 148.427 240.916 148.829 240.593C149.232 240.254 149.647 239.924 150.075 239.602ZM150.88 240.609C150.448 240.895 150.06 241.173 149.715 241.443C149.377 241.707 149.073 241.966 148.803 242.22C147.721 243.236 147.088 244.245 146.903 245.246C146.726 246.24 146.997 247.188 147.717 248.088C148.314 248.835 148.98 249.239 149.713 249.298C150.447 249.343 151.163 249.038 151.86 248.383C152.75 247.547 153.234 246.578 153.313 245.476C153.392 244.36 153.042 243.313 152.261 242.337L150.88 240.609Z"
    fill="white"></path>
  <path
    d="M170.953 232.836L170.237 231.799C170.143 231.663 170.068 231.58 170.012 231.55C169.955 231.52 169.905 231.524 169.859 231.561C169.753 231.647 169.7 231.922 169.701 232.385C169.706 232.77 169.696 233.072 169.671 233.293C169.609 234.008 169.411 234.664 169.078 235.261C168.752 235.851 168.285 236.392 167.679 236.885C166.268 238.029 164.912 238.396 163.611 237.985C162.309 237.574 160.954 236.348 159.544 234.307L158.113 232.234C157.302 231.06 156.738 230.303 156.418 229.96C156.099 229.617 155.841 229.45 155.646 229.458C155.578 229.463 155.338 229.595 154.925 229.855C154.507 230.106 154.195 230.09 153.987 229.807C153.882 229.654 153.853 229.458 153.901 229.219C153.956 228.974 154.084 228.662 154.286 228.286C154.569 227.805 154.875 227.357 155.202 226.94C155.525 226.516 155.769 226.236 155.936 226.101C156.171 225.91 156.375 225.845 156.547 225.906C156.721 225.952 156.927 226.149 157.166 226.494C157.455 226.912 157.915 227.648 158.549 228.701C159.189 229.749 159.712 230.566 160.117 231.153L160.592 231.84C161.396 233.005 162.004 233.834 162.416 234.328C162.836 234.815 163.225 235.182 163.585 235.429C164.091 235.784 164.645 235.936 165.249 235.885C165.86 235.828 166.446 235.571 167.008 235.116C167.576 234.654 168.022 234.067 168.346 233.353C168.664 232.631 168.83 231.844 168.845 230.992C168.857 230.581 168.776 230.164 168.602 229.741C168.428 229.317 168.072 228.716 167.534 227.937L166.552 226.514L166.052 225.791C165.248 224.626 164.685 223.872 164.366 223.53C164.047 223.187 163.786 223.016 163.585 223.016C163.518 223.021 163.278 223.146 162.868 223.391C162.458 223.636 162.155 223.618 161.961 223.337C161.856 223.184 161.823 222.991 161.863 222.758C161.905 222.511 162.03 222.203 162.237 221.834C162.513 221.36 162.818 220.911 163.153 220.489C163.483 220.058 163.735 219.772 163.91 219.63C164.13 219.452 164.323 219.389 164.489 219.442C164.656 219.495 164.862 219.698 165.106 220.052C165.461 220.566 165.981 221.379 166.666 222.491C167.351 223.603 167.885 224.436 168.268 224.99C169.517 226.798 170.418 228.06 170.972 228.777C171.528 229.479 171.911 229.871 172.12 229.952C172.266 230.009 172.566 229.903 173.02 229.635C173.468 229.359 173.79 229.362 173.984 229.643C174.178 229.924 174.061 230.483 173.633 231.32C173.212 232.15 172.71 232.802 172.126 233.276C171.922 233.442 171.733 233.494 171.561 233.434C171.394 233.381 171.192 233.182 170.953 232.836Z"
    fill="white"></path>
  <path
    d="M179.194 212.298C179.219 211.118 179.386 210.111 179.696 209.278C180.009 208.431 180.438 207.817 180.983 207.438C181.432 207.125 181.879 207.021 182.326 207.125C182.781 207.224 183.15 207.512 183.434 207.991C183.683 208.411 183.762 208.849 183.67 209.305C183.58 209.747 183.344 210.102 182.959 210.37C182.614 210.61 182.263 210.694 181.904 210.624C181.545 210.553 181.218 210.336 180.923 209.972C180.243 210.849 179.919 211.716 179.951 212.572C179.986 213.414 180.614 214.864 181.834 216.922C182.75 218.468 183.433 219.571 183.881 220.232C184.324 220.885 184.628 221.243 184.79 221.308C185.025 221.417 185.383 221.352 185.863 221.112C186.018 221.029 186.144 220.964 186.242 220.92C186.438 220.831 186.613 220.792 186.767 220.803C186.921 220.815 187.035 220.883 187.11 221.009C187.27 221.278 187.158 221.635 186.776 222.079C186.389 222.515 185.711 223.07 184.741 223.746C183.876 224.348 183.216 224.725 182.762 224.875C182.31 225.012 182.005 224.945 181.846 224.677C181.716 224.458 181.787 224.177 182.059 223.834C182.331 223.49 182.482 223.248 182.512 223.108C182.571 222.901 182.497 222.567 182.291 222.105C182.093 221.638 181.678 220.87 181.045 219.804C180.189 218.359 179.459 217.176 178.856 216.254C178.256 215.319 177.78 214.648 177.425 214.242C177.168 213.923 176.946 213.739 176.759 213.691C176.567 213.635 176.283 213.738 175.907 214.001L175.678 214.16C175.55 214.249 175.404 214.28 175.24 214.251C175.084 214.217 174.964 214.129 174.879 213.986C174.784 213.827 174.76 213.642 174.805 213.432C174.846 213.214 174.979 212.914 175.205 212.531C175.479 212.019 175.765 211.565 176.062 211.168C176.354 210.763 176.576 210.508 176.728 210.402C176.944 210.251 177.222 210.319 177.561 210.604C177.896 210.882 178.377 211.455 179.005 212.323L179.194 212.298Z"
    fill="white"></path>
  <path
    d="M196.858 204.72L203.237 200.944C203.43 200.83 203.543 200.718 203.575 200.608C203.603 200.49 203.564 200.326 203.458 200.117C202.944 199.097 202.186 198.447 201.184 198.168C200.177 197.881 199.166 198.038 198.149 198.64C197.611 198.959 197.16 199.384 196.795 199.917C196.439 200.445 196.191 201.045 196.049 201.717C195.94 202.257 195.9 202.796 195.931 203.333C195.969 203.865 196.068 204.287 196.226 204.601C196.296 204.741 196.376 204.824 196.466 204.85C196.559 204.863 196.69 204.819 196.858 204.72ZM205.329 201.167L197.375 205.875C197.207 205.974 197.106 206.079 197.074 206.188C197.051 206.293 197.089 206.445 197.19 206.646C198.012 208.277 199.102 209.369 200.462 209.924C201.816 210.469 203.141 210.359 204.435 209.593C204.939 209.294 205.383 208.919 205.766 208.466C206.157 208.008 206.462 207.498 206.682 206.938C206.8 206.653 206.93 206.197 207.072 205.569C207.223 204.937 207.42 204.548 207.664 204.404C207.806 204.32 207.948 204.298 208.089 204.339C208.225 204.372 208.329 204.458 208.399 204.597C208.496 204.789 208.545 205.038 208.545 205.343C208.55 205.634 208.509 205.964 208.422 206.333C208.157 207.43 207.705 208.416 207.066 209.292C206.431 210.155 205.639 210.867 204.689 211.429C202.891 212.494 201.074 212.731 199.239 212.142C197.408 211.539 195.996 210.252 195.003 208.28C193.948 206.187 193.694 204.09 194.24 201.99C194.781 199.881 195.984 198.274 197.85 197.17C199.463 196.215 200.982 195.927 202.406 196.307C203.831 196.687 204.947 197.679 205.755 199.284C206.019 199.807 206.136 200.18 206.105 200.401C206.075 200.623 205.816 200.878 205.329 201.167Z"
    fill="white"></path>
  <path
    d="M214.705 190.923C214.773 191.085 214.832 191.187 214.881 191.228C214.926 191.26 214.975 191.263 215.028 191.237C215.15 191.176 215.259 190.921 215.355 190.471C215.43 190.097 215.503 189.805 215.574 189.596C215.78 188.906 216.106 188.31 216.55 187.808C216.99 187.296 217.556 186.869 218.247 186.527C219.499 185.907 220.637 185.746 221.661 186.044C222.691 186.329 223.642 187.081 224.516 188.302C224.671 188.519 224.839 188.805 225.021 189.161C225.199 189.508 225.417 189.988 225.675 190.6C225.758 190.798 225.888 191.119 226.066 191.564C226.243 192.01 226.384 192.358 226.49 192.61C226.687 193.078 226.9 193.571 227.129 194.089C227.367 194.602 227.618 195.136 227.883 195.69C228.075 196.095 228.242 196.366 228.384 196.502C228.522 196.63 228.702 196.704 228.922 196.725C229.011 196.736 229.168 196.718 229.392 196.672C229.861 196.581 230.147 196.657 230.249 196.9C230.371 197.188 230.254 197.502 229.9 197.84C229.541 198.17 228.894 198.566 227.957 199.03C227.03 199.489 226.334 199.758 225.869 199.835C225.401 199.904 225.106 199.794 224.985 199.506C224.886 199.272 225.012 198.993 225.361 198.667C225.707 198.333 225.896 198.054 225.929 197.831C225.956 197.644 225.849 197.213 225.607 196.539C225.365 195.865 224.725 194.295 223.686 191.829C222.966 190.119 222.215 189.016 221.436 188.521C220.665 188.022 219.745 188.037 218.678 188.565C217.986 188.908 217.409 189.383 216.947 189.993C216.484 190.603 216.152 191.333 215.95 192.183C215.85 192.548 215.824 192.914 215.873 193.282C215.931 193.645 216.094 194.146 216.364 194.785L216.784 195.784C217.638 197.808 218.235 199.177 218.577 199.888C218.916 200.591 219.161 200.997 219.313 201.107C219.49 201.226 219.808 201.253 220.268 201.189C220.732 201.111 221.014 201.189 221.112 201.423C221.233 201.711 221.113 202.027 220.749 202.37C220.391 202.699 219.748 203.094 218.82 203.553C217.884 204.017 217.179 204.289 216.706 204.371C216.229 204.444 215.93 204.337 215.808 204.049C215.71 203.815 215.835 203.535 216.185 203.21C216.539 202.871 216.733 202.59 216.766 202.368C216.786 202.14 216.645 201.617 216.343 200.799C216.046 199.967 215.51 198.633 214.737 196.797C214.149 195.402 213.663 194.338 213.28 193.603C212.905 192.864 212.625 192.437 212.439 192.323C212.307 192.236 211.996 192.275 211.505 192.442C211.011 192.6 210.698 192.521 210.565 192.206C210.428 191.882 210.654 191.363 211.241 190.648C211.833 189.919 212.467 189.388 213.14 189.055C213.377 188.938 213.573 188.928 213.73 189.024C213.887 189.12 214.049 189.366 214.216 189.762L214.705 190.923Z"
    fill="white"></path>
  <path
    d="M264.317 180.115C264.484 180.062 264.744 178.653 265.097 175.889L265.169 175.314C265.603 171.766 265.891 169.099 266.034 167.313C266.177 165.527 266.187 164.408 266.064 163.955C265.995 163.701 265.874 163.514 265.7 163.396C265.536 163.274 265.302 163.21 264.997 163.205C264.884 163.2 264.732 163.197 264.54 163.197C263.884 163.201 263.518 163.061 263.441 162.779C263.352 162.449 263.539 162.133 264.003 161.832C264.477 161.527 265.304 161.187 266.486 160.811C267.668 160.435 268.535 160.241 269.088 160.229C269.638 160.207 269.957 160.357 270.043 160.677C270.089 160.847 270.058 161.01 269.949 161.168C269.849 161.323 269.654 161.497 269.363 161.692C268.927 161.985 268.622 162.276 268.448 162.567C268.271 162.849 268.118 163.384 267.988 164.172C267.912 164.637 267.685 166.839 267.306 170.778C266.937 174.715 266.526 178.46 266.074 182.013C266.056 182.172 266.029 182.406 265.991 182.715C265.824 184.038 265.563 184.756 265.21 184.868C264.67 185.04 262.43 182.405 258.49 176.963C256.241 173.85 254.388 171.317 252.929 169.365C252.912 169.339 252.872 169.286 252.809 169.203C252.164 168.313 251.612 167.823 251.153 167.734C251.026 167.713 250.821 167.701 250.537 167.7C249.93 167.698 249.588 167.556 249.512 167.273C249.422 166.943 249.649 166.605 250.192 166.258C250.744 165.908 251.648 165.534 252.905 165.134C254.152 164.737 255.09 164.525 255.72 164.499C256.349 164.473 256.709 164.624 256.798 164.954C256.877 165.246 256.583 165.616 255.916 166.064C255.796 166.143 255.711 166.201 255.66 166.238C255.413 166.409 255.248 166.6 255.163 166.811C255.086 167.009 255.085 167.25 255.162 167.533C255.366 168.287 256.478 170.022 258.497 172.737C259.05 173.473 259.478 174.043 259.779 174.449C261.367 176.616 262.49 178.111 263.148 178.936C263.815 179.758 264.205 180.151 264.317 180.115Z"
    fill="white"></path>
  <path
    d="M276.782 172.105C277.189 174.135 278.006 175.702 279.233 176.807C280.458 177.902 281.784 178.281 283.21 177.945C284.664 177.602 285.699 176.806 286.314 175.558C286.939 174.308 287.065 172.749 286.69 170.882C286.3 168.938 285.476 167.438 284.219 166.38C282.961 165.323 281.586 164.97 280.094 165.322C278.782 165.632 277.814 166.412 277.189 167.662C276.573 168.91 276.438 170.391 276.782 172.105ZM274.385 173.558C273.928 171.279 274.279 169.21 275.44 167.352C276.607 165.483 278.289 164.289 280.485 163.771C282.576 163.278 284.436 163.571 286.067 164.651C287.695 165.721 288.725 167.333 289.158 169.488C289.621 171.795 289.28 173.891 288.135 175.776C286.988 177.65 285.341 178.841 283.193 179.348C281.121 179.836 279.242 179.527 277.556 178.42C275.869 177.304 274.812 175.683 274.385 173.558Z"
    fill="white"></path>
  <path
    d="M302.864 175.378C302.613 175.714 302.43 176.078 302.315 176.472C302.209 176.864 302.183 177.258 302.235 177.655C302.359 178.584 302.867 179.261 303.76 179.685C304.665 180.117 305.816 180.224 307.215 180.006C308.817 179.757 310.089 179.212 311.032 178.374C311.985 177.544 312.396 176.63 312.264 175.633C312.183 175.023 311.928 174.588 311.5 174.329C311.072 174.07 310.491 173.997 309.757 174.111C309.506 174.15 308.855 174.321 307.801 174.624C306.747 174.916 305.805 175.127 304.975 175.257C304.57 175.32 304.196 175.363 303.855 175.387C303.512 175.401 303.182 175.398 302.864 175.378ZM301.856 169.785C301.113 169.456 300.525 168.994 300.092 168.4C299.658 167.805 299.386 167.087 299.274 166.245C299.065 164.667 299.471 163.274 300.493 162.068C301.514 160.861 302.913 160.119 304.689 159.843C305.258 159.754 305.974 159.731 306.836 159.775C307.698 159.808 308.268 159.804 308.548 159.76C308.982 159.692 309.399 159.529 309.798 159.269C310.195 158.999 310.548 158.648 310.855 158.215C311.056 158.252 311.216 158.341 311.333 158.481C311.458 158.61 311.537 158.79 311.567 159.023C311.619 159.41 311.513 159.802 311.251 160.198C310.988 160.595 310.58 160.97 310.026 161.323C310.332 161.7 310.571 162.093 310.743 162.501C310.924 162.897 311.044 163.318 311.103 163.764C311.312 165.342 310.883 166.747 309.816 167.981C308.758 169.213 307.317 169.971 305.494 170.255C305.059 170.323 304.624 170.346 304.188 170.325C303.752 170.304 303.325 170.242 302.908 170.14C302.505 170.37 302.2 170.67 301.993 171.038C301.786 171.406 301.708 171.784 301.759 172.171C301.816 172.597 302.051 172.921 302.464 173.143C302.887 173.364 303.388 173.429 303.967 173.339C304.604 173.24 305.62 172.992 307.016 172.597C308.411 172.202 309.494 171.944 310.266 171.824C311.434 171.642 312.385 171.795 313.119 172.283C313.862 172.76 314.302 173.512 314.438 174.538C314.646 176.106 314.038 177.54 312.615 178.839C311.193 180.147 309.281 180.989 306.878 181.363C305.016 181.653 303.465 181.505 302.225 180.917C300.996 180.338 300.3 179.439 300.138 178.219C300.06 177.628 300.141 177.087 300.381 176.595C300.621 176.103 301.048 175.607 301.661 175.106C301.079 174.95 300.629 174.719 300.313 174.412C299.997 174.106 299.806 173.706 299.74 173.212C299.657 172.583 299.793 171.979 300.15 171.399C300.506 170.82 301.075 170.282 301.856 169.785ZM301.551 165.593C301.71 166.794 302.163 167.716 302.908 168.361C303.654 169.006 304.542 169.247 305.575 169.087C306.656 168.918 307.494 168.407 308.09 167.553C308.686 166.7 308.907 165.692 308.752 164.53C308.592 163.32 308.124 162.395 307.35 161.755C306.576 161.115 305.644 160.88 304.553 161.05C303.55 161.206 302.76 161.714 302.185 162.575C301.61 163.435 301.398 164.441 301.551 165.593Z"
    fill="white"></path>
  <path
    d="M321.08 163.784L328.47 163.211C328.694 163.194 328.842 163.143 328.915 163.059C328.987 162.965 329.016 162.801 329 162.568C328.925 161.427 328.478 160.512 327.659 159.821C326.84 159.121 325.841 158.816 324.663 158.908C324.04 158.956 323.455 159.138 322.908 159.455C322.371 159.771 321.905 160.199 321.51 160.739C321.197 161.174 320.948 161.639 320.766 162.133C320.593 162.627 320.518 163.049 320.541 163.4C320.551 163.556 320.593 163.665 320.665 163.728C320.747 163.78 320.885 163.799 321.08 163.784ZM330.32 164.331L321.105 165.045C320.91 165.061 320.776 165.11 320.703 165.194C320.64 165.277 320.616 165.431 320.631 165.655C320.751 167.477 321.332 168.936 322.373 170.03C323.413 171.115 324.683 171.6 326.183 171.483C326.767 171.438 327.325 171.297 327.858 171.06C328.4 170.822 328.883 170.5 329.306 170.095C329.527 169.892 329.827 169.541 330.205 169.041C330.593 168.541 330.928 168.28 331.211 168.258C331.376 168.245 331.516 168.288 331.63 168.387C331.744 168.476 331.805 168.599 331.816 168.755C331.83 168.969 331.778 169.213 331.659 169.487C331.549 169.75 331.381 170.027 331.156 170.319C330.479 171.185 329.673 171.869 328.737 172.372C327.81 172.865 326.797 173.155 325.697 173.24C323.613 173.401 321.837 172.814 320.369 171.479C318.911 170.132 318.108 168.358 317.963 166.156C317.809 163.817 318.397 161.827 319.727 160.187C321.057 158.536 322.802 157.627 324.964 157.459C326.833 157.314 328.353 157.725 329.522 158.693C330.692 159.66 331.336 161.04 331.454 162.833C331.493 163.417 331.455 163.802 331.34 163.988C331.225 164.173 330.885 164.287 330.32 164.331Z"
    fill="white"></path>
  <path
    d="M346.643 159.354C346.643 163.183 346.667 165.727 346.716 166.986C346.765 168.236 346.848 168.954 346.965 169.14C347.082 169.325 347.365 169.491 347.814 169.638C348.273 169.774 348.503 169.97 348.503 170.224C348.503 170.536 348.269 170.766 347.8 170.912C347.341 171.049 346.594 171.117 345.559 171.117C344.514 171.117 343.757 171.049 343.288 170.912C342.819 170.766 342.585 170.536 342.585 170.224C342.585 169.97 342.81 169.774 343.259 169.638C343.718 169.491 344.006 169.325 344.123 169.14C344.221 168.964 344.289 168.451 344.328 167.602C344.367 166.742 344.387 165.116 344.387 162.724V160.204C344.387 156.317 344.348 153.881 344.27 152.895C344.191 151.898 344.05 151.322 343.845 151.166C343.786 151.127 343.513 151.073 343.024 151.005C342.536 150.937 342.292 150.731 342.292 150.39C342.292 150.204 342.38 150.033 342.556 149.877C342.731 149.721 343.01 149.56 343.391 149.394C343.908 149.198 344.416 149.042 344.914 148.925C345.422 148.798 345.788 148.734 346.013 148.734C346.306 148.734 346.506 148.812 346.613 148.969C346.73 149.115 346.789 149.398 346.789 149.818C346.789 149.916 346.779 150.219 346.76 150.727C346.682 153.578 346.643 156.454 346.643 159.354Z"
    fill="white"></path>
  <path
    d="M370.799 157.993C371.002 157.891 371.168 157.82 371.298 157.782C371.438 157.734 371.557 157.714 371.654 157.721C372.014 157.749 372.352 158.113 372.668 158.813C372.985 159.504 373.117 160.239 373.066 161.019C373.044 161.35 372.959 161.603 372.81 161.777C372.662 161.952 372.471 162.03 372.237 162.012C371.896 161.986 371.614 161.67 371.389 161.065C371.339 160.934 371.302 160.838 371.276 160.777C370.983 160.029 370.65 159.514 370.277 159.23C369.905 158.947 369.387 158.779 368.725 158.728C368.034 158.674 367.43 158.848 366.914 159.249C366.409 159.641 366.136 160.153 366.094 160.787C366.019 161.917 367.179 163.104 369.573 164.347C370.045 164.599 370.409 164.794 370.664 164.931C371.486 165.377 372.108 165.974 372.528 166.721C372.959 167.46 373.145 168.268 373.087 169.145C372.999 170.489 372.444 171.548 371.425 172.321C370.405 173.094 369.126 173.421 367.587 173.302C367.1 173.264 366.551 173.138 365.939 172.924C365.336 172.721 364.971 172.614 364.844 172.604C364.708 172.594 364.519 172.633 364.279 172.722C364.048 172.812 363.888 172.854 363.801 172.847C363.528 172.826 363.264 172.448 363.009 171.713C362.755 170.978 362.652 170.226 362.703 169.456C362.723 169.164 362.816 168.936 362.983 168.773C363.161 168.6 363.376 168.524 363.63 168.544C363.912 168.565 364.204 168.892 364.504 169.522C364.616 169.766 364.701 169.949 364.762 170.071C365.038 170.631 365.425 171.077 365.921 171.41C366.428 171.743 367.002 171.934 367.645 171.984C368.531 172.053 369.267 171.87 369.854 171.435C370.44 171.001 370.758 170.409 370.808 169.658C370.847 169.064 370.719 168.55 370.425 168.115C370.131 167.672 369.631 167.246 368.924 166.838C368.669 166.691 368.267 166.489 367.716 166.231C366.265 165.53 365.229 164.838 364.609 164.153C364.253 163.763 363.988 163.327 363.815 162.843C363.651 162.36 363.587 161.851 363.622 161.315C363.702 160.097 364.221 159.128 365.179 158.409C366.137 157.69 367.316 157.385 368.718 157.493C369.011 157.516 369.33 157.57 369.677 157.656C370.023 157.742 370.397 157.854 370.799 157.993Z"
    fill="white"></path>
  <path
    d="M390.591 162.472L389.346 162.278C389.202 162.256 389.094 162.214 389.023 162.154C388.954 162.084 388.925 162 388.938 161.903L388.992 161.497C389.031 161.206 389.465 160.716 390.295 160.025C390.537 159.835 390.719 159.686 390.842 159.577C390.975 159.469 391.152 159.319 391.375 159.126C392.209 158.406 392.756 158.067 393.017 158.107C393.171 158.131 393.282 158.188 393.349 158.278C393.425 158.369 393.454 158.487 393.435 158.632L393.084 161.275L396.066 161.74C396.259 161.77 396.387 161.839 396.452 161.948C396.527 162.049 396.55 162.205 396.522 162.418L396.47 162.81C396.445 163.004 396.382 163.142 396.282 163.226C396.184 163.299 396.043 163.322 395.86 163.293L393.196 162.878C393.1 162.863 393.017 162.895 392.947 162.973C392.879 163.041 392.835 163.153 392.814 163.308L391.745 171.367C391.584 172.587 391.59 173.433 391.763 173.904C391.948 174.368 392.335 174.646 392.923 174.737C393.203 174.781 393.542 174.755 393.938 174.658C394.337 174.552 394.584 174.507 394.68 174.522C394.835 174.546 394.95 174.608 395.025 174.709C395.11 174.811 395.143 174.935 395.123 175.08C395.067 175.506 394.688 175.872 393.988 176.178C393.289 176.474 392.539 176.56 391.738 176.435C390.686 176.271 389.977 175.829 389.609 175.11C389.242 174.391 389.16 173.261 389.364 171.722L390.591 162.472Z"
    fill="white"></path>
  <path
    d="M407.974 168.9L415.188 170.601C415.407 170.653 415.562 170.649 415.653 170.59C415.747 170.522 415.816 170.373 415.862 170.143C416.087 169.023 415.898 168.006 415.295 167.092C414.694 166.168 413.819 165.57 412.669 165.299C412.06 165.155 411.454 165.153 410.848 165.291C410.253 165.431 409.696 165.701 409.178 166.1C408.764 166.424 408.406 166.796 408.103 167.216C407.809 167.638 407.628 168.021 407.558 168.366C407.528 168.519 407.539 168.637 407.592 168.72C407.657 168.795 407.784 168.855 407.974 168.9ZM416.665 172.243L407.669 170.122C407.479 170.077 407.338 170.084 407.247 170.142C407.165 170.203 407.102 170.344 407.058 170.564C406.698 172.355 406.874 173.935 407.584 175.306C408.297 176.667 409.385 177.521 410.848 177.866C411.419 178 411.989 178.034 412.56 177.968C413.14 177.905 413.685 177.742 414.196 177.482C414.46 177.354 414.838 177.107 415.33 176.741C415.831 176.378 416.219 176.229 416.495 176.294C416.656 176.332 416.779 176.416 416.862 176.546C416.947 176.667 416.975 176.803 416.944 176.957C416.902 177.167 416.788 177.386 416.603 177.613C416.43 177.833 416.197 178.049 415.906 178.261C415.033 178.888 414.084 179.301 413.059 179.5C412.045 179.692 411.001 179.662 409.927 179.408C407.892 178.929 406.348 177.822 405.292 176.089C404.247 174.349 403.942 172.397 404.377 170.233C404.838 167.935 405.918 166.199 407.617 165.025C409.318 163.842 411.223 163.499 413.333 163.997C415.158 164.427 416.504 165.286 417.37 166.573C418.237 167.86 418.493 169.385 418.14 171.147C418.024 171.721 417.888 172.08 417.73 172.223C417.571 172.366 417.217 172.373 416.665 172.243Z"
    fill="white"></path>
  <path
    d="M433.786 164.966C433.908 164.514 434.159 164.184 434.539 163.977C434.921 163.761 435.33 163.722 435.768 163.862C436.205 164.001 436.523 164.245 436.721 164.595C436.929 164.948 436.977 165.332 436.864 165.746C436.749 166.171 436.502 166.486 436.123 166.693C435.743 166.9 435.34 166.935 434.911 166.799C434.493 166.666 434.174 166.426 433.954 166.08C433.737 165.724 433.681 165.353 433.786 164.966ZM430.519 179.208C431.134 176.936 431.556 175.268 431.783 174.204C432.014 173.131 432.09 172.474 432.014 172.235C431.966 172.076 431.704 171.885 431.229 171.662C430.756 171.43 430.564 171.149 430.654 170.819C430.705 170.63 430.824 170.489 431.011 170.395C431.21 170.295 431.522 170.225 431.947 170.186C432.463 170.146 432.965 170.142 433.451 170.174C433.95 170.199 434.334 170.255 434.604 170.341C434.855 170.421 435.012 170.553 435.073 170.736C435.137 170.91 435.114 171.2 435.004 171.605C434.979 171.699 434.9 171.971 434.768 172.42C433.996 175.011 433.247 177.644 432.522 180.321C432.175 181.603 431.969 182.475 431.905 182.935C431.841 183.396 431.857 183.708 431.954 183.872C432.031 183.999 432.248 184.186 432.606 184.433C432.964 184.68 433.109 184.926 433.043 185.171C432.964 185.463 432.686 185.611 432.211 185.613C431.735 185.615 431.027 185.466 430.087 185.167C429.101 184.853 428.402 184.559 427.991 184.285C427.592 184.005 427.434 183.713 427.515 183.412C427.582 183.167 427.827 183.045 428.251 183.047C428.675 183.049 428.951 183.019 429.079 182.957C429.254 182.87 429.442 182.566 429.644 182.047C429.857 181.521 430.149 180.574 430.519 179.208Z"
    fill="white"></path>
  <path
    d="M450.987 178.074C450.93 178.24 450.905 178.357 450.913 178.423C450.925 178.48 450.958 178.52 451.012 178.542C451.139 178.593 451.383 178.497 451.745 178.254C452.043 178.049 452.285 177.899 452.472 177.807C453.069 177.48 453.689 177.31 454.333 177.297C454.98 177.275 455.661 177.408 456.377 177.697C457.671 178.22 458.586 178.979 459.12 179.974C459.667 180.963 459.853 182.221 459.678 183.749C459.646 184.021 459.579 184.351 459.476 184.741C459.376 185.121 459.218 185.625 459.002 186.253C458.932 186.456 458.814 186.782 458.65 187.231C458.485 187.68 458.358 188.033 458.269 188.292C458.104 188.772 457.934 189.282 457.758 189.821C457.592 190.364 457.423 190.932 457.25 191.525C457.122 191.957 457.064 192.275 457.076 192.48C457.091 192.675 457.17 192.865 457.313 193.049C457.369 193.125 457.492 193.232 457.681 193.372C458.075 193.667 458.228 193.94 458.143 194.189C458.041 194.485 457.754 194.616 457.28 194.582C456.81 194.54 456.091 194.322 455.122 193.931C454.163 193.543 453.492 193.198 453.111 192.897C452.733 192.586 452.595 192.283 452.697 191.988C452.78 191.748 453.051 191.647 453.512 191.686C453.976 191.716 454.293 191.665 454.462 191.534C454.603 191.423 454.808 191.037 455.076 190.378C455.344 189.718 455.914 188.123 456.784 185.593C457.388 183.839 457.574 182.489 457.343 181.543C457.12 180.601 456.457 179.907 455.352 179.46C454.637 179.171 453.916 179.064 453.189 179.138C452.462 179.212 451.749 179.471 451.05 179.914C450.741 180.094 450.484 180.332 450.279 180.628C450.083 180.927 449.872 181.405 449.646 182.061L449.294 183.086C448.579 185.163 448.111 186.583 447.89 187.346C447.672 188.099 447.581 188.573 447.617 188.766C447.666 188.986 447.874 189.249 448.243 189.556C448.624 189.857 448.773 190.128 448.691 190.368C448.589 190.663 448.297 190.793 447.815 190.755C447.345 190.713 446.63 190.497 445.67 190.109C444.701 189.718 444.022 189.369 443.632 189.064C443.245 188.75 443.102 188.445 443.204 188.15C443.287 187.91 443.558 187.809 444.019 187.848C444.493 187.882 444.814 187.833 444.983 187.701C445.146 187.557 445.387 187.081 445.706 186.274C446.037 185.461 446.527 184.113 447.175 182.229C447.668 180.798 448.017 179.677 448.224 178.866C448.44 178.059 448.519 177.544 448.462 177.321C448.425 177.159 448.177 176.949 447.72 176.69C447.265 176.422 447.094 176.127 447.205 175.804C447.319 175.471 447.819 175.279 448.703 175.226C449.6 175.168 450.397 175.279 451.094 175.561C451.338 175.66 451.485 175.804 451.534 175.992C451.582 176.18 451.537 176.477 451.397 176.883L450.987 178.074Z"
    fill="white"></path>
  <path
    d="M470.598 200.249C470.791 199.79 471.082 199.477 471.469 199.31C471.866 199.147 472.278 199.172 472.707 199.385C473.162 199.61 473.453 199.999 473.58 200.551C473.716 201.107 473.651 201.701 473.386 202.331C473.192 202.79 472.904 203.223 472.52 203.632C472.133 204.049 471.565 204.518 470.816 205.04C470.372 205.342 470.052 205.537 469.856 205.625C469.66 205.713 469.51 205.731 469.405 205.679C469.221 205.588 469.076 205.467 468.97 205.317C468.861 205.175 468.825 205.06 468.863 204.97C468.893 204.898 469.244 204.642 469.916 204.202C470.588 203.763 471.005 203.349 471.168 202.962C471.221 202.836 471.239 202.731 471.222 202.646C471.205 202.562 471.119 202.438 470.966 202.275C470.685 201.962 470.513 201.643 470.449 201.317C470.389 200.983 470.438 200.627 470.598 200.249Z"
    fill="white"></path>
  <path
    d="M510.674 211.476C510.899 211.728 511.125 211.957 511.354 212.163C511.587 212.362 511.816 212.539 512.04 212.695C513.747 213.884 515.221 214.436 516.46 214.35C517.708 214.269 518.733 213.553 519.535 212.201C520.312 210.89 520.537 209.67 520.21 208.54C519.892 207.416 519.015 206.355 517.581 205.356C516.627 204.691 516.022 204.317 515.766 204.234C515.518 204.156 515.309 204.194 515.138 204.348C514.965 204.525 514.482 205.244 513.688 206.507C512.899 207.762 511.894 209.418 510.674 211.476ZM522.141 213.678C521.095 215.442 519.654 216.354 517.817 216.416C515.98 216.478 513.879 215.685 511.516 214.039C511.379 213.944 511.22 213.821 511.038 213.67C510.855 213.519 510.74 213.427 510.692 213.394C510.315 213.131 510.043 213.037 509.875 213.11C509.721 213.18 509.444 213.551 509.046 214.223L508.911 214.45C507.92 216.122 507.217 217.365 506.802 218.179C506.395 219 506.198 219.522 506.213 219.745C506.225 219.897 506.413 220.211 506.775 220.689C507.145 221.172 507.258 221.536 507.113 221.779C506.929 222.09 506.57 222.16 506.037 221.991C505.511 221.826 504.74 221.39 503.722 220.681C502.712 219.978 502.027 219.405 501.666 218.964C501.31 218.514 501.227 218.13 501.416 217.81C501.56 217.567 501.908 217.524 502.46 217.683C503.019 217.847 503.358 217.905 503.477 217.857C503.705 217.779 504.157 217.227 504.832 216.202C505.516 215.183 506.692 213.266 508.36 210.452C510.014 207.663 511.124 205.724 511.69 204.635C512.265 203.551 512.538 202.881 512.509 202.624C512.5 202.487 512.31 202.176 511.94 201.693C511.578 201.215 511.466 200.859 511.606 200.624C511.725 200.422 511.899 200.311 512.126 200.291C512.365 200.269 512.642 200.337 512.955 200.496C512.955 200.496 512.992 200.521 513.064 200.571C514.822 201.653 516.871 203.01 519.211 204.64C521.07 205.935 522.256 207.372 522.769 208.952C523.281 210.531 523.072 212.107 522.141 213.678Z"
    fill="white"></path>
  <path
    d="M528.958 222.681C528.858 222.826 528.803 222.932 528.792 222.998C528.787 223.057 528.807 223.105 528.853 223.142C528.959 223.228 529.217 223.205 529.627 223.074C529.966 222.96 530.237 222.885 530.439 222.849C531.096 222.705 531.731 222.718 532.345 222.891C532.965 223.056 533.575 223.381 534.174 223.867C535.258 224.747 535.917 225.746 536.151 226.863C536.398 227.979 536.229 229.252 535.643 230.683C535.539 230.937 535.384 231.238 535.18 231.586C534.98 231.926 534.692 232.369 534.315 232.915C534.193 233.092 533.992 233.374 533.712 233.762C533.433 234.149 533.215 234.456 533.06 234.681C532.705 235.195 532.129 236.063 531.332 237.285C531.266 237.381 531.216 237.454 531.183 237.502C530.947 237.912 530.809 238.214 530.77 238.408C530.736 238.594 530.762 238.797 530.847 239.016C530.88 239.105 530.967 239.245 531.108 239.435C531.4 239.835 531.471 240.143 531.321 240.36C531.143 240.617 530.835 240.661 530.395 240.493C529.961 240.316 529.338 239.898 528.527 239.24C527.723 238.588 527.182 238.061 526.903 237.659C526.63 237.249 526.582 236.916 526.76 236.659C526.904 236.45 527.189 236.431 527.616 236.601C528.048 236.764 528.362 236.806 528.559 236.727C528.723 236.66 529.023 236.345 529.459 235.783C529.894 235.221 530.872 233.839 532.393 231.638C533.447 230.111 533.994 228.856 534.034 227.873C534.082 226.896 533.643 226.032 532.718 225.281C532.119 224.795 531.464 224.483 530.755 224.346C530.045 224.209 529.297 224.255 528.512 224.483C528.17 224.568 527.86 224.725 527.585 224.953C527.317 225.186 526.986 225.589 526.592 226.159L525.976 227.051C524.727 228.859 523.893 230.101 523.474 230.776C523.06 231.444 522.844 231.877 522.826 232.075C522.811 232.301 522.937 232.616 523.202 233.02C523.481 233.422 523.548 233.727 523.404 233.936C523.226 234.193 522.914 234.234 522.467 234.059C522.033 233.883 521.414 233.468 520.61 232.816C519.799 232.158 519.25 231.624 518.963 231.217C518.683 230.801 518.631 230.464 518.809 230.207C518.953 229.998 519.238 229.979 519.665 230.149C520.104 230.318 520.423 230.363 520.619 230.284C520.802 230.207 521.184 229.783 521.764 229.012C522.351 228.248 523.449 226.7 525.059 224.37C527.234 221.22 528.703 219.033 529.466 217.808C530.242 216.582 530.635 215.824 530.647 215.532C530.659 215.379 530.479 215.107 530.108 214.719C529.743 214.322 529.658 213.983 529.852 213.702C529.958 213.55 530.123 213.464 530.348 213.446C530.574 213.429 530.881 213.471 531.271 213.575C531.784 213.74 532.267 213.932 532.721 214.149C533.187 214.365 533.508 214.543 533.682 214.685C533.909 214.869 534.021 215.06 534.015 215.256C534.023 215.45 533.907 215.72 533.669 216.066C533.597 216.17 533.398 216.441 533.072 216.879C531.855 218.537 530.723 220.126 529.674 221.645L528.958 222.681Z"
    fill="white"></path>
  <path
    d="M541.133 248.045C543.247 250.031 545.293 250.924 547.272 250.726C549.257 250.534 551.201 249.248 553.104 246.868C555.116 244.351 556.078 241.963 555.99 239.703C555.915 237.442 554.792 235.293 552.621 233.253C551.86 232.538 551.227 231.997 550.722 231.63C550.225 231.27 549.871 231.097 549.659 231.112C549.402 231.138 548.824 231.65 547.926 232.65C547.027 233.649 545.657 235.3 543.816 237.604C541.974 239.907 540.694 241.556 539.974 242.55C539.255 243.543 538.845 244.22 538.744 244.579C538.641 244.896 538.789 245.342 539.188 245.918C539.588 246.494 540.236 247.203 541.133 248.045ZM536.503 245.84C536.417 245.76 536.227 245.6 535.931 245.363C535.642 245.131 535.405 244.929 535.22 244.755C534.587 244.16 534.173 243.664 533.978 243.268C533.791 242.879 533.804 242.551 534.018 242.284C534.195 242.062 534.544 242.07 535.065 242.306C535.594 242.549 535.921 242.655 536.045 242.625C536.28 242.579 536.804 242.096 537.615 241.175C538.433 240.261 539.863 238.526 541.906 235.97C543.931 233.438 545.299 231.671 546.011 230.671C546.731 229.678 547.095 229.051 547.103 228.791C547.113 228.654 546.969 228.319 546.672 227.786C546.383 227.26 546.323 226.891 546.494 226.677C546.64 226.494 546.827 226.409 547.053 226.421C547.293 226.433 547.557 226.54 547.843 226.743C547.843 226.743 547.889 226.779 547.981 226.851C549.669 228.263 551.573 229.965 553.694 231.958C556.471 234.565 557.997 237.341 558.273 240.285C558.556 243.235 557.57 246.122 555.314 248.944C553.119 251.69 550.693 253.064 548.036 253.067C545.386 253.061 542.595 251.682 539.662 248.927C539.384 248.666 538.895 248.187 538.194 247.489C537.501 246.797 536.937 246.248 536.503 245.84Z"
    fill="white"></path>
</svg>
